<?xml version="1.0" encoding="utf-8"?>
<!-- Generator: Adobe Illustrator 21.1.0, SVG Export Plug-In . SVG Version: 6.00 Build 0)  -->
<svg version="1.1" id="Слой_1" xmlns="http://www.w3.org/2000/svg" xmlns:xlink="http://www.w3.org/1999/xlink" x="0px" y="0px"
	 width="167.1px" height="95.8px" viewBox="0 0 167.1 95.8" style="enable-background:new 0 0 167.1 95.8;" xml:space="preserve">
<style type="text/css">
	.st0{font-family:'SegoeUI';}
	.st1{font-size:14.944px;}
	.st2{font-size:16.5px;}
	.st3{fill:none;stroke:#000000;stroke-width:0.5;stroke-miterlimit:10;}
</style>
<g>
	<text transform="matrix(1 0 0 1 11.7404 12.85)" class="st0 st1">a</text>
	<text transform="matrix(1 0 0 1 42.5207 12.85)" class="st0 st1">b</text>
	<text transform="matrix(1 0 0 1 70.0598 12.85)" class="st0 st1">a</text>
	<text transform="matrix(1 0 0 1 81.4006 12.85)" class="st0 st1">×</text>
	<text transform="matrix(1 0 0 1 96.341 12.85)" class="st0 st1">b</text>
	<text transform="matrix(1 0 0 1 107.6809 12.85)"><tspan x="0" y="0" class="st0 st1">o</tspan><tspan x="8.5" y="0" class="st0 st1">r</tspan></text>
	<text transform="matrix(1 0 0 1 124.7814 12.85)" class="st0 st1">a</text>
	<text transform="matrix(1 0 0 1 136.1213 12.85)" class="st0 st1">÷</text>
	<text transform="matrix(1 0 0 1 151.0607 12.85)" class="st0 st1">b</text>
	<text transform="matrix(1 0 0 1 10.4348 34.9896)" class="st0 st1">+</text>
	<text transform="matrix(1 0 0 1 40.675 34.9896)" class="st0 st1">+</text>
	<text transform="matrix(1 0 0 1 108.5881 34.9896)" class="st0 st1">+</text>
	<text transform="matrix(1 0 0 1 10.4348 53.5287)" class="st0 st1">+</text>
	<text transform="matrix(1 0 0 1 42.4152 53.5287)" class="st0 st2">-</text>
	<text transform="matrix(1 0 0 1 110.4016 53.5287)" class="st0 st2">-</text>
	<text transform="matrix(1 0 0 1 12.3547 72.0697)" class="st0 st2">-</text>
	<text transform="matrix(1 0 0 1 40.675 72.0697)" class="st0 st1">+</text>
	<text transform="matrix(1 0 0 1 110.4016 72.0697)" class="st0 st2">-</text>
	<text transform="matrix(1 0 0 1 12.3547 90.6098)" class="st0 st2">-</text>
	<text transform="matrix(1 0 0 1 42.4152 90.6098)" class="st0 st2">-</text>
	<text transform="matrix(1 0 0 1 108.5881 90.6098)" class="st0 st1">+</text>
	<line class="st3" x1="0.4" y1="0.3" x2="166.9" y2="0.3"/>
	<line class="st3" x1="0.4" y1="18.3" x2="166.9" y2="18.3"/>
	<line class="st3" x1="0.6" y1="22" x2="167.1" y2="22"/>
	<line class="st3" x1="0.6" y1="40" x2="167.1" y2="40"/>
	<line class="st3" x1="0.6" y1="59.5" x2="167.1" y2="59.5"/>
	<line class="st3" x1="0.6" y1="77.5" x2="167.1" y2="77.5"/>
	<line class="st3" x1="0.6" y1="95.5" x2="167.1" y2="95.5"/>
	<line class="st3" x1="0.3" y1="22" x2="0.3" y2="95.5"/>
	<line class="st3" x1="31.8" y1="22" x2="31.8" y2="95.5"/>
	<line class="st3" x1="61.8" y1="22" x2="61.8" y2="95.5"/>
	<line class="st3" x1="166.8" y1="22" x2="166.8" y2="95.5"/>
	<line class="st3" x1="0.3" y1="0.1" x2="0.3" y2="18.1"/>
	<line class="st3" x1="31.1" y1="0.3" x2="31.1" y2="18.3"/>
	<line class="st3" x1="61.2" y1="0.3" x2="61.2" y2="18.3"/>
	<line class="st3" x1="166.8" y1="0.3" x2="166.8" y2="18.3"/>
</g>
</svg>
