<?xml version="1.0" encoding="utf-8"?>
<!-- Generator: Adobe Illustrator 21.1.0, SVG Export Plug-In . SVG Version: 6.00 Build 0)  -->
<svg version="1.1" id="Слой_1" xmlns="http://www.w3.org/2000/svg" xmlns:xlink="http://www.w3.org/1999/xlink" x="0px" y="0px"
	 width="112px" height="95.8px" viewBox="0 0 112 95.8" style="enable-background:new 0 0 112 95.8;" xml:space="preserve">
<style type="text/css">
	.st0{font-family:'SegoeUI';}
	.st1{font-size:14.944px;}
	.st2{font-size:16.5px;}
	.st3{fill:none;stroke:#000000;stroke-width:0.5;stroke-miterlimit:10;}
</style>
<g>
	<text transform="matrix(1 0 0 1 12.0922 12.863)" class="st0 st1">a</text>
	<text transform="matrix(1 0 0 1 42.8725 12.863)" class="st0 st1">b</text>
	<text transform="matrix(1 0 0 1 70.4125 12.863)" class="st0 st1">a</text>
	<text transform="matrix(1 0 0 1 81.7524 12.863)" class="st0 st1">+</text>
	<text transform="matrix(1 0 0 1 96.6928 12.863)" class="st0 st1">b</text>
	<text transform="matrix(1 0 0 1 10.3608 35.0027)" class="st0 st1">+</text>
	<text transform="matrix(1 0 0 1 40.6 35.0027)" class="st0 st1">+</text>
	<text transform="matrix(1 0 0 1 81.4594 35.0027)" class="st0 st1">+</text>
	<text transform="matrix(1 0 0 1 10.3608 53.5417)" class="st0 st1">+</text>
	<text transform="matrix(1 0 0 1 42.3403 53.5417)" class="st0 st2">-</text>
	<text transform="matrix(1 0 0 1 84.8803 53.5417)" class="st0 st1">?</text>
	<text transform="matrix(1 0 0 1 13.7797 72.0828)" class="st0 st2">-</text>
	<text transform="matrix(1 0 0 1 40.6 72.0828)" class="st0 st1">+</text>
	<text transform="matrix(1 0 0 1 84.8803 72.0828)" class="st0 st1">?</text>
	<text transform="matrix(1 0 0 1 13.7797 90.6228)" class="st0 st2">-</text>
	<text transform="matrix(1 0 0 1 43.8403 90.6228)" class="st0 st2">-</text>
	<text transform="matrix(1 0 0 1 84.4594 90.6228)" class="st0 st2">-</text>
	<line class="st3" x1="0.6" y1="0.3" x2="111.8" y2="0.3"/>
	<line class="st3" x1="0.6" y1="18.3" x2="111.8" y2="18.3"/>
	<line class="st3" x1="0.6" y1="22" x2="111.7" y2="22"/>
	<line class="st3" x1="0.6" y1="40" x2="111.7" y2="40"/>
	<line class="st3" x1="0.6" y1="59.5" x2="111.7" y2="59.5"/>
	<line class="st3" x1="0.6" y1="77.5" x2="111.7" y2="77.5"/>
	<line class="st3" x1="0.6" y1="95.5" x2="111.7" y2="95.5"/>
	<line class="st3" x1="0.3" y1="22" x2="0.3" y2="95.5"/>
	<line class="st3" x1="31.8" y1="22" x2="31.8" y2="95.5"/>
	<line class="st3" x1="61.8" y1="22" x2="61.8" y2="95.5"/>
	<line class="st3" x1="111.5" y1="22" x2="111.5" y2="95.5"/>
	<line class="st3" x1="0.6" y1="0.1" x2="0.6" y2="18.1"/>
	<line class="st3" x1="31.5" y1="0.3" x2="31.5" y2="18.3"/>
	<line class="st3" x1="61.5" y1="0.3" x2="61.5" y2="18.3"/>
	<line class="st3" x1="111.7" y1="0.3" x2="111.7" y2="18.3"/>
</g>
</svg>
