<?xml version="1.0" encoding="utf-8"?>
<!-- Generator: Adobe Illustrator 21.1.0, SVG Export Plug-In . SVG Version: 6.00 Build 0)  -->
<svg version="1.1" id="Слой_1" xmlns="http://www.w3.org/2000/svg" xmlns:xlink="http://www.w3.org/1999/xlink" x="0px" y="0px"
	 width="615.2px" height="254.9px" viewBox="0 0 615.2 254.9" style="enable-background:new 0 0 615.2 254.9;" xml:space="preserve"
	>
<style type="text/css">
	.st0{font-family:'MyriadPro-Regular';}
	.st1{font-size:23px;}
	.st2{font-size:33.3557px;}
	.st3{font-size:34.722px;}
	.st4{font-size:53.541px;}
	.st5{font-size:31.2323px;}
	.st6{font-size:26.7705px;}
	.st7{fill:none;stroke:#000000;stroke-width:1.5;stroke-miterlimit:10;}
</style>
<text transform="matrix(1 0 0 1 2.288055e-02 249.1387)" class="st0 st1">Table 2.1: Table of signs for multiplying or dividing two numbers.</text>
<g>
	<text transform="matrix(1 0 0 1 302.69 29.2144)" class="st0 st2">×</text>
	<text transform="matrix(1 0 0 1 424.8292 29.2144)" class="st0 st2">÷</text>
	<text transform="matrix(1 0 0 1 143.484 77.9888)" class="st0 st3">+</text>
	<text transform="matrix(1 0 0 1 216.317 77.9888)" class="st0 st3">+</text>
	<text transform="matrix(1 0 0 1 372.5206 77.9888)" class="st0 st3">+</text>
	<text transform="matrix(1 0 0 1 369.5469 205.1841)" class="st0 st3">+</text>
	<text transform="matrix(1 0 0 1 143.484 121.2368)" class="st0 st3">+</text>
	<text transform="matrix(1 0 0 1 216.317 163.7065)" class="st0 st3">+</text>
	<text transform="matrix(1 0 0 1 374.5635 169.23)" class="st0 st4">-</text>
	<text transform="matrix(1 0 0 1 218.4459 126.7603)" class="st0 st4">-</text>
	<text transform="matrix(1 0 0 1 218.4459 210.7085)" class="st0 st4">-</text>
	<text transform="matrix(1 0 0 1 374.5635 126.7603)" class="st0 st4">-</text>
	<text transform="matrix(1 0 0 1 143.4849 169.23)" class="st0 st4">-</text>
	<text transform="matrix(1 0 0 1 143.4849 210.7085)" class="st0 st4">-</text>
	<text transform="matrix(1 0 0 1 146.4586 29.7456)" class="st0 st5">a</text>
	<text transform="matrix(1 0 0 1 213.3844 29.7456)" class="st0 st5">b</text>
	<text transform="matrix(1 0 0 1 277.3365 29.7456)" class="st0 st5">a</text>
	<text transform="matrix(1 0 0 1 333.8526 29.7456)" class="st0 st5">b</text>
	<text transform="matrix(1 0 0 1 363.627 30.8608)" class="st0 st6">or</text>
	<text transform="matrix(1 0 0 1 399.2901 29.7456)" class="st0 st5">a</text>
	<text transform="matrix(1 0 0 1 452.8321 29.7456)" class="st0 st5">b</text>
	<line class="st7" x1="121.6" y1="41.8" x2="493.6" y2="41.8"/>
	<line class="st7" x1="121.6" y1="41.8" x2="121.6" y2="1.8"/>
	<line class="st7" x1="190.1" y1="41.3" x2="190.1" y2="1.3"/>
	<line class="st7" x1="256.1" y1="41.3" x2="256.1" y2="0.3"/>
	<line class="st7" x1="493.6" y1="41.3" x2="493.6" y2="0.3"/>
	<line class="st7" x1="121.1" y1="0.8" x2="493.1" y2="0.8"/>
	<line class="st7" x1="122.1" y1="50.3" x2="494.1" y2="50.3"/>
	<line class="st7" x1="122.1" y1="91.3" x2="494.1" y2="91.3"/>
	<line class="st7" x1="122.1" y1="132.3" x2="494.1" y2="132.3"/>
	<line class="st7" x1="122.1" y1="174.3" x2="494.1" y2="174.3"/>
	<line class="st7" x1="122.1" y1="215.3" x2="494.1" y2="215.3"/>
	<line class="st7" x1="122.1" y1="50.3" x2="122.1" y2="215.3"/>
	<line class="st7" x1="190.1" y1="50.3" x2="190.1" y2="215.3"/>
	<line class="st7" x1="256.1" y1="50.3" x2="256.1" y2="215.3"/>
	<line class="st7" x1="494.1" y1="50.3" x2="494.1" y2="215.3"/>
</g>
</svg>
