<?xml version="1.0" encoding="utf-8"?>
<!-- Generator: Adobe Illustrator 21.1.0, SVG Export Plug-In . SVG Version: 6.00 Build 0)  -->
<svg version="1.1" id="Слой_1" xmlns="http://www.w3.org/2000/svg" xmlns:xlink="http://www.w3.org/1999/xlink" x="0px" y="0px"
	 width="270.3px" height="404.4px" viewBox="0 0 270.3 404.4" style="enable-background:new 0 0 270.3 404.4;" xml:space="preserve"
	>
<style type="text/css">
	.st0{fill:none;stroke:#000000;stroke-width:0.797;stroke-miterlimit:10;}
	.st1{fill:none;stroke:#000000;stroke-width:4.9813;stroke-miterlimit:10;}
	.st2{font-family:'SegoeUI';}
	.st3{font-size:14.944px;}
</style>
<path d="M241.5,21.3c0-1.2-47.6-2.1-106.3-2.1c-58.7,0-106.3,1-106.3,2.1s47.6,2.1,106.3,2.1C193.9,23.4,241.5,22.5,241.5,21.3"/>
<ellipse class="st0" cx="135.2" cy="21.3" rx="106.3" ry="2.1"/>
<polyline points="129.8,85.1 124.5,170.1 145.8,170.1 135.2,0 "/>
<polygon class="st0" points="129.8,85.1 124.5,170.1 145.8,170.1 135.2,0 "/>
<polyline points="113.9,180.7 113.9,170.1 156.4,170.1 156.4,191.4 113.9,191.4 "/>
<polygon class="st0" points="113.9,180.7 113.9,170.1 156.4,170.1 156.4,191.4 113.9,191.4 "/>
<line class="st0" x1="50.1" y1="21.3" x2="7.6" y2="106.3"/>
<line class="st0" x1="50.1" y1="21.3" x2="92.6" y2="106.3"/>
<line class="st0" x1="220.2" y1="21.3" x2="262.7" y2="106.3"/>
<line class="st0" x1="220.2" y1="21.3" x2="177.7" y2="106.3"/>
<path d="M0.8,103.8c2.1,4.5,7.4,6.5,11.9,4.4c4.5-2.1,6.5-7.4,4.4-11.9c-2.1-4.5-7.4-6.5-11.9-4.4C0.7,94-1.2,99.3,0.8,103.8"/>
<path d="M83.1,96.3c-2.1,4.5-0.1,9.8,4.4,11.9c4.5,2.1,9.8,0.1,11.9-4.4c2.1-4.5,0.1-9.8-4.4-11.9C90.5,89.8,85.2,91.8,83.1,96.3"/>
<path class="st1" d="M11.9,106.5l-0.5-0.8c7.6,14.3,22.5,23.2,38.6,23.2s31-8.9,38.6-23.2"/>
<text transform="matrix(1 0 0 1 32.8422 117.1435)" class="st2 st3">x</text>
<text transform="matrix(1 0 0 1 44.7221 117.1435)" class="st2 st3">+</text>
<text transform="matrix(1 0 0 1 59.6615 117.1435)" class="st2 st3">y</text>
<path d="M170.9,103.8c2.1,4.5,7.4,6.5,11.9,4.4c4.5-2.1,6.5-7.4,4.4-11.9c-2.1-4.5-7.4-6.5-11.9-4.4
	C170.8,94,168.8,99.3,170.9,103.8"/>
<path d="M253.2,96.3c-2.1,4.5-0.1,9.8,4.4,11.9c4.5,2.1,9.8,0.1,11.9-4.4c2.1-4.5,0.1-9.8-4.4-11.9
	C260.6,89.8,255.3,91.8,253.2,96.3"/>
<path class="st1" d="M182,106.5l-0.5-0.8c7.6,14.3,22.5,23.2,38.6,23.2s31-8.9,38.6-23.2"/>
<text transform="matrix(1 0 0 1 216.4208 120.0234)" class="st2 st3">z</text>
<path d="M241.5,233.9c0-1.2-47.6-2.1-106.3-2.1c-58.7,0-106.3,1-106.3,2.1c0,1.2,47.6,2.1,106.3,2.1
	C193.9,236,241.5,235.1,241.5,233.9"/>
<ellipse class="st0" cx="135.2" cy="233.9" rx="106.3" ry="2.1"/>
<polyline points="129.8,297.7 124.5,382.7 145.8,382.7 135.2,212.6 "/>
<polygon class="st0" points="129.8,297.7 124.5,382.7 145.8,382.7 135.2,212.6 "/>
<polyline points="113.9,393.3 113.9,382.7 156.4,382.7 156.4,404 113.9,404 "/>
<polygon class="st0" points="113.9,393.3 113.9,382.7 156.4,382.7 156.4,404 113.9,404 "/>
<line class="st0" x1="50.1" y1="233.9" x2="7.6" y2="318.9"/>
<line class="st0" x1="50.1" y1="233.9" x2="92.6" y2="318.9"/>
<line class="st0" x1="220.2" y1="233.9" x2="262.7" y2="318.9"/>
<line class="st0" x1="220.2" y1="233.9" x2="177.7" y2="318.9"/>
<path d="M0.8,316.4c2.1,4.5,7.4,6.5,11.9,4.4c4.5-2.1,6.5-7.4,4.4-11.9c-2.1-4.5-7.4-6.5-11.9-4.4C0.7,306.6-1.2,311.9,0.8,316.4"/>
<path d="M83.1,308.9c-2.1,4.5-0.1,9.8,4.4,11.9c4.5,2.1,9.8,0.1,11.9-4.4c2.1-4.5,0.1-9.8-4.4-11.9
	C90.5,302.4,85.2,304.4,83.1,308.9"/>
<path class="st1" d="M11.9,319.1l-0.5-0.8c7.6,14.3,22.5,23.2,38.6,23.2s31-8.9,38.6-23.2"/>
<text transform="matrix(1 0 0 1 19.7016 321.2382)" class="st2 st3">x</text>
<text transform="matrix(1 0 0 1 31.5814 321.2382)" class="st2 st3">+</text>
<text transform="matrix(1 0 0 1 46.5219 321.2382)" class="st2 st3">y</text>
<text transform="matrix(1 0 0 1 57.682 321.2382)" class="st2 st3">−</text>
<text transform="matrix(1 0 0 1 72.6225 321.2382)" class="st2 st3">y</text>
<path d="M170.9,316.4c2.1,4.5,7.4,6.5,11.9,4.4c4.5-2.1,6.5-7.4,4.4-11.9c-2.1-4.5-7.4-6.5-11.9-4.4
	C170.8,306.6,168.8,311.9,170.9,316.4"/>
<path d="M253.2,308.9c-2.1,4.5-0.1,9.8,4.4,11.9c4.5,2.1,9.8,0.1,11.9-4.4c2.1-4.5,0.1-9.8-4.4-11.9
	C260.6,302.4,255.3,304.4,253.2,308.9"/>
<path class="st1" d="M182,319.1l-0.5-0.8c7.6,14.3,22.5,23.2,38.6,23.2s31-8.9,38.6-23.2"/>
<text transform="matrix(1 0 0 1 203.2802 321.2382)" class="st2 st3">z</text>
<text transform="matrix(1 0 0 1 214.2607 321.2382)" class="st2 st3">−</text>
<text transform="matrix(1 0 0 1 229.2001 321.2382)" class="st2 st3">y</text>
</svg>
