<?xml version="1.0" encoding="utf-8"?>
<!-- Generator: Adobe Illustrator 21.1.0, SVG Export Plug-In . SVG Version: 6.00 Build 0)  -->
<svg version="1.1" id="Слой_1" xmlns="http://www.w3.org/2000/svg" xmlns:xlink="http://www.w3.org/1999/xlink" x="0px" y="0px"
	 width="111.6px" height="64px" viewBox="0 0 111.6 64" style="enable-background:new 0 0 111.6 64;" xml:space="preserve">
<style type="text/css">
	.st0{font-family:'SegoeUI';}
	.st1{font-size:9.9626px;}
	.st2{fill:none;stroke:#000000;stroke-width:0.5;stroke-miterlimit:10;}
</style>
<text transform="matrix(1 0 0 1 7.9101 8.6504)" class="st0 st1">a</text>
<text transform="matrix(1 0 0 1 28.4301 8.6504)" class="st0 st1">b</text>
<text transform="matrix(1 0 0 1 46.7899 8.6504)" class="st0 st1">a</text>
<text transform="matrix(1 0 0 1 54.35 8.6504)" class="st0 st1">×</text>
<text transform="matrix(1 0 0 1 64.3104 8.6504)" class="st0 st1">b</text>
<text transform="matrix(1 0 0 1 71.8705 8.6504)"><tspan x="0" y="0" class="st0 st1">o</tspan><tspan x="5.7" y="0" class="st0 st1">r</tspan></text>
<text transform="matrix(1 0 0 1 83.2709 8.6504)" class="st0 st1">a</text>
<text transform="matrix(1 0 0 1 90.8305 8.6504)" class="st0 st1">÷</text>
<text transform="matrix(1 0 0 1 100.7904 8.6504)" class="st0 st1">b</text>
<text transform="matrix(1 0 0 1 7.0402 23.4102)" class="st0 st1">+</text>
<text transform="matrix(1 0 0 1 27.1999 23.4102)" class="st0 st1">+</text>
<text transform="matrix(1 0 0 1 72.4397 23.4102)" class="st0 st1">+</text>
<text transform="matrix(1 0 0 1 7.0402 35.7695)" class="st0 st1">+</text>
<text transform="matrix(1 0 0 1 29.3601 35.7695)" class="st0 st1">-</text>
<text transform="matrix(1 0 0 1 74.7199 35.7695)" class="st0 st1">-</text>
<text transform="matrix(1 0 0 1 9.32 48.1299)" class="st0 st1">-</text>
<text transform="matrix(1 0 0 1 27.1999 48.1299)" class="st0 st1">+</text>
<text transform="matrix(1 0 0 1 74.7199 48.1299)" class="st0 st1">-</text>
<text transform="matrix(1 0 0 1 9.32 60.4902)" class="st0 st1">-</text>
<text transform="matrix(1 0 0 1 29.3601 60.4902)" class="st0 st1">-</text>
<text transform="matrix(1 0 0 1 72.4397 60.4902)" class="st0 st1">+</text>
<line class="st2" x1="0.3" y1="0.3" x2="111.3" y2="0.3"/>
<line class="st2" x1="0.3" y1="12.3" x2="111.3" y2="12.3"/>
<line class="st2" x1="0.5" y1="14.8" x2="111.5" y2="14.8"/>
<line class="st2" x1="0.5" y1="26.8" x2="111.5" y2="26.8"/>
<line class="st2" x1="0.5" y1="39.8" x2="111.5" y2="39.8"/>
<line class="st2" x1="0.5" y1="51.8" x2="111.5" y2="51.8"/>
<line class="st2" x1="0.5" y1="63.8" x2="111.5" y2="63.8"/>
<line class="st2" x1="0.3" y1="14.8" x2="0.3" y2="63.8"/>
<line class="st2" x1="21.3" y1="14.8" x2="21.3" y2="63.8"/>
<line class="st2" x1="41.3" y1="14.8" x2="41.3" y2="63.8"/>
<line class="st2" x1="111.3" y1="14.8" x2="111.3" y2="63.8"/>
<line class="st2" x1="0.3" y1="0.2" x2="0.3" y2="12.1"/>
<line class="st2" x1="20.9" y1="0.3" x2="20.9" y2="12.3"/>
<line class="st2" x1="40.8" y1="0.3" x2="40.8" y2="12.3"/>
<line class="st2" x1="111.3" y1="0.3" x2="111.3" y2="12.3"/>
</svg>
