<?xml version="1.0" encoding="utf-8"?>
<!-- Generator: Adobe Illustrator 21.1.0, SVG Export Plug-In . SVG Version: 6.00 Build 0)  -->
<svg version="1.1" id="Слой_1" xmlns="http://www.w3.org/2000/svg" xmlns:xlink="http://www.w3.org/1999/xlink" x="0px" y="0px"
	 width="161.1px" height="303.9px" viewBox="0 0 161.1 303.9" style="enable-background:new 0 0 161.1 303.9;" xml:space="preserve"
	>
<style type="text/css">
	.st0{font-family:'MyriadPro-Regular';}
	.st1{font-size:14.944px;}
	.st2{font-family:'SegoeUI';}
	.st3{letter-spacing:4;}
	.st4{font-size:10.4608px;}
	.st5{fill:none;stroke:#000000;stroke-miterlimit:10;}
	.st6{fill:none;stroke:#000000;stroke-width:0.5;stroke-miterlimit:10;}
</style>
<g>
	<text transform="matrix(1 0 0 1 0 12.7036)"><tspan x="0" y="0" class="st0 st1">F</tspan><tspan x="6.9" y="0" class="st0 st1">r</tspan><tspan x="11.7" y="0" class="st0 st1">a</tspan><tspan x="18.9" y="0" class="st0 st1">ct</tspan><tspan x="30.6" y="0" class="st0 st1">i</tspan><tspan x="34.1" y="0" class="st0 st1">o</tspan><tspan x="42.4" y="0" class="st0 st1">n</tspan></text>
	<text transform="matrix(1 0 0 1 69.6602 12.7036)"><tspan x="0" y="0" class="st2 st1">Dec</tspan><tspan x="25.2" y="0" class="st2 st1">i</tspan><tspan x="28.8" y="0" class="st2 st1">m</tspan><tspan x="41.7" y="0" class="st2 st1">a</tspan><tspan x="49.3" y="0" class="st2 st1 st3">l</tspan><tspan x="57.8" y="0" class="st2 st1">F</tspan><tspan x="64.7" y="0" class="st2 st1">o</tspan><tspan x="73.2" y="0" class="st2 st1">r</tspan><tspan x="78.4" y="0" class="st2 st1">m</tspan></text>
	<text transform="matrix(1 0 0 1 22.5 29.4829)" class="st2 st4">1</text>
	<text transform="matrix(1 0 0 1 19.6211 40.4634)"><tspan x="0" y="0" class="st2 st4">2</tspan><tspan x="5.6" y="0" class="st2 st4">0</tspan></text>
	<text transform="matrix(1 0 0 1 100.0801 35.4233)"><tspan x="0" y="0" class="st2 st1">0</tspan><tspan x="8.1" y="0" class="st2 st1">,</tspan><tspan x="11.4" y="0" class="st2 st1">0</tspan><tspan x="19.5" y="0" class="st2 st1">5</tspan></text>
	<text transform="matrix(1 0 0 1 22.5 65.4829)" class="st2 st4">1</text>
	<text transform="matrix(1 0 0 1 19.6211 76.4634)"><tspan x="0" y="0" class="st2 st4">1</tspan><tspan x="5.6" y="0" class="st2 st4">6</tspan></text>
	<text transform="matrix(1 0 0 1 92.7002 71.2427)"><tspan x="0" y="0" class="st2 st1">0</tspan><tspan x="8.1" y="0" class="st2 st1">,</tspan><tspan x="11.4" y="0" class="st2 st1">062</tspan><tspan x="35.8" y="0" class="st2 st1">5</tspan></text>
	<text transform="matrix(1 0 0 1 22.5 101.3032)" class="st2 st4">1</text>
	<text transform="matrix(1 0 0 1 19.6211 112.4634)"><tspan x="0" y="0" class="st2 st4">1</tspan><tspan x="5.6" y="0" class="st2 st4">0</tspan></text>
	<text transform="matrix(1 0 0 1 103.8613 107.2427)"><tspan x="0" y="0" class="st2 st1">0</tspan><tspan x="8.1" y="0" class="st2 st1">,1</tspan></text>
	<text transform="matrix(1 0 0 1 22.5 137.3032)" class="st2 st4">1</text>
	<text transform="matrix(1 0 0 1 22.5 148.2827)" class="st2 st4">8</text>
	<text transform="matrix(1 0 0 1 96.2998 143.2427)"><tspan x="0" y="0" class="st2 st1">0</tspan><tspan x="8.1" y="0" class="st2 st1">,</tspan><tspan x="11.4" y="0" class="st2 st1">12</tspan><tspan x="27.6" y="0" class="st2 st1">5</tspan></text>
	<text transform="matrix(1 0 0 1 22.5 173.8423)" class="st2 st4">1</text>
	<text transform="matrix(1 0 0 1 22.5 184.8232)" class="st2 st4">6</text>
	<text transform="matrix(1 0 0 1 96.2998 179.6025)" class="st2 st1">0</text>
	<text transform="matrix(1 0 0 1 103.8594 179.6025)" class="st2 st1">,</text>
	<text transform="matrix(1 0 0 1 108 179.6025)"><tspan x="0" y="0" class="st2 st1">1</tspan><tspan x="8.1" y="0" class="st2 st1">6</tspan></text>
	<text transform="matrix(1 0 0 1 124.7402 176.5439)" class="st2 st1">˙</text>
	<text transform="matrix(1 0 0 1 123.1211 179.6025)" class="st2 st1">6</text>
	<text transform="matrix(1 0 0 1 22.5 209.6631)" class="st2 st4">1</text>
	<text transform="matrix(1 0 0 1 22.5 220.8232)" class="st2 st4">5</text>
	<text transform="matrix(1 0 0 1 103.8613 215.6025)"><tspan x="0" y="0" class="st2 st1">0</tspan><tspan x="8.1" y="0" class="st2 st1">,2</tspan></text>
	<text transform="matrix(1 0 0 1 22.5 245.6631)" class="st2 st4">1</text>
	<text transform="matrix(1 0 0 1 22.5 256.6436)" class="st2 st4">2</text>
	<text transform="matrix(1 0 0 1 103.8613 251.6025)"><tspan x="0" y="0" class="st2 st1">0</tspan><tspan x="8.1" y="0" class="st2 st1">,5</tspan></text>
	<text transform="matrix(1 0 0 1 22.5 277.6631)" class="st2 st4">3</text>
	<text transform="matrix(1 0 0 1 22.5 288.6436)" class="st2 st4">4</text>
	<text transform="matrix(1 0 0 1 100.0801 283.4229)"><tspan x="0" y="0" class="st2 st1">0</tspan><tspan x="8.1" y="0" class="st2 st1">,</tspan><tspan x="11.4" y="0" class="st2 st1">7</tspan><tspan x="19.5" y="0" class="st2 st1">5</tspan></text>
	<line class="st5" x1="0.1" y1="18.4" x2="161.1" y2="18.4"/>
	<line class="st5" x1="61.1" y1="0.4" x2="60.6" y2="303.9"/>
	<line class="st6" x1="19.1" y1="31.4" x2="31.1" y2="31.4"/>
	<line class="st6" x1="19.1" y1="67.9" x2="31.1" y2="67.9"/>
	<line class="st6" x1="19.1" y1="103.9" x2="31.1" y2="103.9"/>
	<line class="st6" x1="22.1" y1="138.9" x2="29.6" y2="138.9"/>
	<line class="st6" x1="22.1" y1="175.9" x2="29.6" y2="175.9"/>
	<line class="st6" x1="22.1" y1="211.9" x2="29.6" y2="211.9"/>
	<line class="st6" x1="22.1" y1="247.9" x2="29.6" y2="247.9"/>
	<line class="st6" x1="22.1" y1="279.9" x2="29.6" y2="279.9"/>
</g>
</svg>
