<?xml version="1.0" encoding="utf-8"?>
<!-- Generator: Adobe Illustrator 21.1.0, SVG Export Plug-In . SVG Version: 6.00 Build 0)  -->
<svg version="1.1" id="Слой_1" xmlns="http://www.w3.org/2000/svg" xmlns:xlink="http://www.w3.org/1999/xlink" x="0px" y="0px"
	 width="716px" height="271.9px" viewBox="0 0 716 271.9" style="enable-background:new 0 0 716 271.9;" xml:space="preserve">
<style type="text/css">
	.st0{font-family:'MyriadPro-Regular';}
	.st1{font-size:33.3557px;}
	.st2{font-size:34.722px;}
	.st3{font-size:53.541px;}
	.st4{font-size:31.2323px;}
	.st5{font-size:26.7705px;}
</style>
<g>
	<g>
		<defs>
			<rect id="SVGID_1_" x="171.8" width="372.4" height="1.6"/>
		</defs>
		<clipPath id="SVGID_2_">
			<use xlink:href="#SVGID_1_"  style="overflow:visible;"/>
		</clipPath>
		<g transform="matrix(1 0 0 1 0 -1.192093e-07)" style="clip-path:url(#SVGID_2_);">
			
				<image style="overflow:visible;" width="1" height="1" xlink:href="5597A060.png"  transform="matrix(372.4407 0 0 -1.6071 171.7886 1.6071)">
			</image>
		</g>
	</g>
	<g>
		<defs>
			<rect id="SVGID_3_" x="171.8" y="1.2" width="1.6" height="40.2"/>
		</defs>
		<clipPath id="SVGID_4_">
			<use xlink:href="#SVGID_3_"  style="overflow:visible;"/>
		</clipPath>
		<g style="clip-path:url(#SVGID_4_);">
			
				<image style="overflow:visible;" width="1" height="1" xlink:href="5597A061.png"  transform="matrix(1.6071 0 0 -40.177 171.7886 41.3822)">
			</image>
		</g>
	</g>
	<g>
		<defs>
			<rect id="SVGID_5_" x="239.3" y="1.2" width="1.6" height="40.2"/>
		</defs>
		<clipPath id="SVGID_6_">
			<use xlink:href="#SVGID_5_"  style="overflow:visible;"/>
		</clipPath>
		<g style="clip-path:url(#SVGID_6_);">
			
				<image style="overflow:visible;" width="1" height="1" xlink:href="5597A067.png"  transform="matrix(1.6071 0 0 -40.177 239.2859 41.3822)">
			</image>
		</g>
	</g>
	<g>
		<defs>
			<rect id="SVGID_7_" x="306.4" y="1.2" width="1.6" height="40.2"/>
		</defs>
		<clipPath id="SVGID_8_">
			<use xlink:href="#SVGID_7_"  style="overflow:visible;"/>
		</clipPath>
		<g style="clip-path:url(#SVGID_8_);">
			
				<image style="overflow:visible;" width="1" height="1" xlink:href="5597A062.png"  transform="matrix(1.6071 0 0 -40.177 306.3815 41.3822)">
			</image>
		</g>
	</g>
	<text transform="matrix(1 0 0 1 353.0264 29.2883)" class="st0 st1">×</text>
	<text transform="matrix(1 0 0 1 475.1656 29.2883)" class="st0 st1">÷</text>
	<g>
		<defs>
			<rect id="SVGID_9_" x="542.6" y="1.2" width="1.6" height="40.2"/>
		</defs>
		<clipPath id="SVGID_10_">
			<use xlink:href="#SVGID_9_"  style="overflow:visible;"/>
		</clipPath>
		<g style="clip-path:url(#SVGID_10_);">
			
				<image style="overflow:visible;" width="1" height="1" xlink:href="5597A063.png"  transform="matrix(1.6071 0 0 -40.177 542.6223 41.3822)">
			</image>
		</g>
	</g>
	<g>
		<defs>
			<rect id="SVGID_11_" x="171.8" y="41" width="372.4" height="1.6"/>
		</defs>
		<clipPath id="SVGID_12_">
			<use xlink:href="#SVGID_11_"  style="overflow:visible;"/>
		</clipPath>
		<g style="clip-path:url(#SVGID_12_);">
			
				<image style="overflow:visible;" width="1" height="1" xlink:href="5597A06E.png"  transform="matrix(372.4407 0 0 -1.6071 171.7886 42.5876)">
			</image>
		</g>
	</g>
	<g>
		<defs>
			<rect id="SVGID_13_" x="171.8" y="49" width="372.4" height="1.6"/>
		</defs>
		<clipPath id="SVGID_14_">
			<use xlink:href="#SVGID_13_"  style="overflow:visible;"/>
		</clipPath>
		<g style="clip-path:url(#SVGID_14_);">
			
				<image style="overflow:visible;" width="1" height="1" xlink:href="5597A06F.png"  transform="matrix(372.4407 0 0 -1.6071 171.7886 50.623)">
			</image>
		</g>
	</g>
	<g>
		<defs>
			<rect id="SVGID_15_" x="171.8" y="50.6" width="1.6" height="40.2"/>
		</defs>
		<clipPath id="SVGID_16_">
			<use xlink:href="#SVGID_15_"  style="overflow:visible;"/>
		</clipPath>
		<g style="clip-path:url(#SVGID_16_);">
			
				<image style="overflow:visible;" width="1" height="1" xlink:href="5597A064.png"  transform="matrix(1.6071 0 0 -40.177 171.7886 90.8)">
			</image>
		</g>
	</g>
	<g>
		<defs>
			<rect id="SVGID_17_" x="239.3" y="50.6" width="1.6" height="40.2"/>
		</defs>
		<clipPath id="SVGID_18_">
			<use xlink:href="#SVGID_17_"  style="overflow:visible;"/>
		</clipPath>
		<g style="clip-path:url(#SVGID_18_);">
			
				<image style="overflow:visible;" width="1" height="1" xlink:href="5597A065.png"  transform="matrix(1.6071 0 0 -40.177 239.2859 90.8)">
			</image>
		</g>
	</g>
	<g>
		<defs>
			<rect id="SVGID_19_" x="306.4" y="50.6" width="1.6" height="40.2"/>
		</defs>
		<clipPath id="SVGID_20_">
			<use xlink:href="#SVGID_19_"  style="overflow:visible;"/>
		</clipPath>
		<g style="clip-path:url(#SVGID_20_);">
			
				<image style="overflow:visible;" width="1" height="1" xlink:href="5EEA2E3F.png"  transform="matrix(1.6071 0 0 -40.177 306.3815 90.8)">
			</image>
		</g>
	</g>
	<g>
		<defs>
			<rect id="SVGID_21_" x="542.6" y="50.6" width="1.6" height="40.2"/>
		</defs>
		<clipPath id="SVGID_22_">
			<use xlink:href="#SVGID_21_"  style="overflow:visible;"/>
		</clipPath>
		<g style="clip-path:url(#SVGID_22_);">
			
				<image style="overflow:visible;" width="1" height="1" xlink:href="5EEA2E3D.png"  transform="matrix(1.6071 0 0 -40.177 542.6223 90.8)">
			</image>
		</g>
	</g>
	<g>
		<defs>
			<rect id="SVGID_23_" x="171.8" y="90.4" width="372.4" height="1.6"/>
		</defs>
		<clipPath id="SVGID_24_">
			<use xlink:href="#SVGID_23_"  style="overflow:visible;"/>
		</clipPath>
		<g style="clip-path:url(#SVGID_24_);">
			
				<image style="overflow:visible;" width="1" height="1" xlink:href="5EEA2E3B.png"  transform="matrix(372.4407 0 0 -1.6071 171.7886 92.0053)">
			</image>
		</g>
	</g>
	<g>
		<defs>
			<rect id="SVGID_25_" x="171.8" y="92" width="1.6" height="40.2"/>
		</defs>
		<clipPath id="SVGID_26_">
			<use xlink:href="#SVGID_25_"  style="overflow:visible;"/>
		</clipPath>
		<g style="clip-path:url(#SVGID_26_);">
			
				<image style="overflow:visible;" width="1" height="1" xlink:href="5EEA2E35.png"  transform="matrix(1.6071 0 0 -40.177 171.7886 132.1822)">
			</image>
		</g>
	</g>
	<g>
		<defs>
			<rect id="SVGID_27_" x="239.3" y="92" width="1.6" height="40.2"/>
		</defs>
		<clipPath id="SVGID_28_">
			<use xlink:href="#SVGID_27_"  style="overflow:visible;"/>
		</clipPath>
		<g style="clip-path:url(#SVGID_28_);">
			
				<image style="overflow:visible;" width="1" height="1" xlink:href="5EEA2E37.png"  transform="matrix(1.6071 0 0 -40.177 239.2859 132.1822)">
			</image>
		</g>
	</g>
	<g>
		<defs>
			<rect id="SVGID_29_" x="306.4" y="92" width="1.6" height="40.2"/>
		</defs>
		<clipPath id="SVGID_30_">
			<use xlink:href="#SVGID_29_"  style="overflow:visible;"/>
		</clipPath>
		<g style="clip-path:url(#SVGID_30_);">
			
				<image style="overflow:visible;" width="1" height="1" xlink:href="5EEA2E2A.png"  transform="matrix(1.6071 0 0 -40.177 306.3815 132.1822)">
			</image>
		</g>
	</g>
	<g>
		<defs>
			<rect id="SVGID_31_" x="542.6" y="92" width="1.6" height="40.2"/>
		</defs>
		<clipPath id="SVGID_32_">
			<use xlink:href="#SVGID_31_"  style="overflow:visible;"/>
		</clipPath>
		<g style="clip-path:url(#SVGID_32_);">
			
				<image style="overflow:visible;" width="1" height="1" xlink:href="5EEA2E2B.png"  transform="matrix(1.6071 0 0 -40.177 542.6223 132.1822)">
			</image>
		</g>
	</g>
	<g>
		<defs>
			<rect id="SVGID_33_" x="171.8" y="131.8" width="372.4" height="1.6"/>
		</defs>
		<clipPath id="SVGID_34_">
			<use xlink:href="#SVGID_33_"  style="overflow:visible;"/>
		</clipPath>
		<g style="clip-path:url(#SVGID_34_);">
			
				<image style="overflow:visible;" width="1" height="1" xlink:href="5EEA2E2D.png"  transform="matrix(372.4407 0 0 -1.6071 171.7886 133.3876)">
			</image>
		</g>
	</g>
	<g>
		<defs>
			<rect id="SVGID_35_" x="171.8" y="133.4" width="1.6" height="40.2"/>
		</defs>
		<clipPath id="SVGID_36_">
			<use xlink:href="#SVGID_35_"  style="overflow:visible;"/>
		</clipPath>
		<g style="clip-path:url(#SVGID_36_);">
			
				<image style="overflow:visible;" width="1" height="1" xlink:href="5EEA2E2F.png"  transform="matrix(1.6071 0 0 -40.177 171.7886 173.5645)">
			</image>
		</g>
	</g>
	<g>
		<defs>
			<rect id="SVGID_37_" x="239.3" y="133.4" width="1.6" height="40.2"/>
		</defs>
		<clipPath id="SVGID_38_">
			<use xlink:href="#SVGID_37_"  style="overflow:visible;"/>
		</clipPath>
		<g style="clip-path:url(#SVGID_38_);">
			
				<image style="overflow:visible;" width="1" height="1" xlink:href="5EEA2E28.png"  transform="matrix(1.6071 0 0 -40.177 239.2859 173.5645)">
			</image>
		</g>
	</g>
	<g>
		<defs>
			<rect id="SVGID_39_" x="306.4" y="133.4" width="1.6" height="40.2"/>
		</defs>
		<clipPath id="SVGID_40_">
			<use xlink:href="#SVGID_39_"  style="overflow:visible;"/>
		</clipPath>
		<g style="clip-path:url(#SVGID_40_);">
			
				<image style="overflow:visible;" width="1" height="1" xlink:href="5EEA2E4E.png"  transform="matrix(1.6071 0 0 -40.177 306.3815 173.5645)">
			</image>
		</g>
	</g>
	<g>
		<defs>
			<rect id="SVGID_41_" x="542.6" y="133.4" width="1.6" height="40.2"/>
		</defs>
		<clipPath id="SVGID_42_">
			<use xlink:href="#SVGID_41_"  style="overflow:visible;"/>
		</clipPath>
		<g style="clip-path:url(#SVGID_42_);">
			
				<image style="overflow:visible;" width="1" height="1" xlink:href="5EEA2E4D.png"  transform="matrix(1.6071 0 0 -40.177 542.6223 173.5645)">
			</image>
		</g>
	</g>
	<g>
		<defs>
			<rect id="SVGID_43_" x="171.8" y="173.2" width="372.4" height="1.6"/>
		</defs>
		<clipPath id="SVGID_44_">
			<use xlink:href="#SVGID_43_"  style="overflow:visible;"/>
		</clipPath>
		<g style="clip-path:url(#SVGID_44_);">
			
				<image style="overflow:visible;" width="1" height="1" xlink:href="5EEA2E4A.png"  transform="matrix(372.4407 0 0 -1.6071 171.7886 174.7698)">
			</image>
		</g>
	</g>
	<g>
		<defs>
			<rect id="SVGID_45_" x="171.8" y="174.8" width="1.6" height="40.2"/>
		</defs>
		<clipPath id="SVGID_46_">
			<use xlink:href="#SVGID_45_"  style="overflow:visible;"/>
		</clipPath>
		<g transform="matrix(1 0 0 1 0 -1.525879e-05)" style="clip-path:url(#SVGID_46_);">
			
				<image style="overflow:visible;" width="1" height="1" xlink:href="5EEA2E45.png"  transform="matrix(1.6071 0 0 -40.177 171.7886 214.9468)">
			</image>
		</g>
	</g>
	<g>
		<defs>
			<rect id="SVGID_47_" x="239.3" y="174.8" width="1.6" height="40.2"/>
		</defs>
		<clipPath id="SVGID_48_">
			<use xlink:href="#SVGID_47_"  style="overflow:visible;"/>
		</clipPath>
		<g transform="matrix(1 0 0 1 0 -1.525879e-05)" style="clip-path:url(#SVGID_48_);">
			
				<image style="overflow:visible;" width="1" height="1" xlink:href="5EEA2E46.png"  transform="matrix(1.6071 0 0 -40.177 239.2859 214.9468)">
			</image>
		</g>
	</g>
	<g>
		<defs>
			<rect id="SVGID_49_" x="306.4" y="174.8" width="1.6" height="40.2"/>
		</defs>
		<clipPath id="SVGID_50_">
			<use xlink:href="#SVGID_49_"  style="overflow:visible;"/>
		</clipPath>
		<g transform="matrix(1 0 0 1 0 -1.525879e-05)" style="clip-path:url(#SVGID_50_);">
			
				<image style="overflow:visible;" width="1" height="1" xlink:href="5EEA2E44.png"  transform="matrix(1.6071 0 0 -40.177 306.3815 214.9468)">
			</image>
		</g>
	</g>
	<g>
		<defs>
			<rect id="SVGID_51_" x="542.6" y="174.8" width="1.6" height="40.2"/>
		</defs>
		<clipPath id="SVGID_52_">
			<use xlink:href="#SVGID_51_"  style="overflow:visible;"/>
		</clipPath>
		<g transform="matrix(1 0 0 1 0 -1.525879e-05)" style="clip-path:url(#SVGID_52_);">
			
				<image style="overflow:visible;" width="1" height="1" xlink:href="5EEA2E7A.png"  transform="matrix(1.6071 0 0 -40.177 542.6223 214.9468)">
			</image>
		</g>
	</g>
	<g>
		<defs>
			<rect id="SVGID_53_" x="171.8" y="214.5" width="372.4" height="1.6"/>
		</defs>
		<clipPath id="SVGID_54_">
			<use xlink:href="#SVGID_53_"  style="overflow:visible;"/>
		</clipPath>
		<g style="clip-path:url(#SVGID_54_);">
			
				<image style="overflow:visible;" width="1" height="1" xlink:href="5EEA2E7D.png"  transform="matrix(372.4407 0 0 -1.6071 171.7886 216.1522)">
			</image>
		</g>
	</g>
	<text transform="matrix(1 0 0 1 193.8204 78.0627)" class="st0 st2">+</text>
	<text transform="matrix(1 0 0 1 266.6534 78.0627)" class="st0 st2">+</text>
	<text transform="matrix(1 0 0 1 422.857 78.0627)" class="st0 st2">+</text>
	<text transform="matrix(1 0 0 1 419.8834 205.2581)" class="st0 st2">+</text>
	<text transform="matrix(1 0 0 1 193.8204 121.3108)" class="st0 st2">+</text>
	<text transform="matrix(1 0 0 1 266.6534 163.7805)" class="st0 st2">+</text>
	<text transform="matrix(1 0 0 1 424.9 169.304)" class="st0 st3">-</text>
	<text transform="matrix(1 0 0 1 268.7823 126.8342)" class="st0 st3">-</text>
	<text transform="matrix(1 0 0 1 268.7823 210.7825)" class="st0 st3">-</text>
	<text transform="matrix(1 0 0 1 424.9 126.8342)" class="st0 st3">-</text>
	<text transform="matrix(1 0 0 1 193.8214 169.304)" class="st0 st3">-</text>
	<text transform="matrix(1 0 0 1 193.8214 210.7825)" class="st0 st3">-</text>
	<text transform="matrix(1 0 0 1 196.795 29.8196)" class="st0 st4">a</text>
	<text transform="matrix(1 0 0 1 263.7208 29.8196)" class="st0 st4">b</text>
	<text transform="matrix(1 0 0 1 327.6729 29.8196)" class="st0 st4">a</text>
	<text transform="matrix(1 0 0 1 384.189 29.8196)" class="st0 st4">b</text>
	<text transform="matrix(1 0 0 1 413.9634 30.9348)" class="st0 st5">or</text>
	<text transform="matrix(1 0 0 1 449.6265 29.8196)" class="st0 st4">a</text>
	<text transform="matrix(1 0 0 1 503.1685 29.8196)" class="st0 st4">b</text>
</g>
<text transform="matrix(1 0 0 1 2.629781e-02 265.2126)" class="st0 st5">Table 2.1: Table of signs for multiplying or dividing two numbers.</text>
</svg>
