<?xml version="1.0" encoding="utf-8"?>
<!-- Generator: Adobe Illustrator 21.1.0, SVG Export Plug-In . SVG Version: 6.00 Build 0)  -->
<svg version="1.1" id="Слой_1" xmlns="http://www.w3.org/2000/svg" xmlns:xlink="http://www.w3.org/1999/xlink" x="0px" y="0px"
	 width="716px" height="271.9px" viewBox="0 0 716 271.9" style="enable-background:new 0 0 716 271.9;" xml:space="preserve">
<style type="text/css">
	.st0{font-family:'MyriadPro-Regular';}
	.st1{font-size:33.3557px;}
	.st2{font-size:34.722px;}
	.st3{font-size:53.541px;}
	.st4{font-size:31.2323px;}
	.st5{font-size:26.7705px;}
	.st6{fill:none;stroke:#000000;stroke-width:1.5;stroke-miterlimit:10;}
</style>
<text transform="matrix(1 0 0 1 353.0264 29.2883)" class="st0 st1">×</text>
<text transform="matrix(1 0 0 1 475.1656 29.2883)" class="st0 st1">÷</text>
<text transform="matrix(1 0 0 1 193.8204 78.0627)" class="st0 st2">+</text>
<text transform="matrix(1 0 0 1 266.6534 78.0627)" class="st0 st2">+</text>
<text transform="matrix(1 0 0 1 422.857 78.0627)" class="st0 st2">+</text>
<text transform="matrix(1 0 0 1 419.8834 205.2581)" class="st0 st2">+</text>
<text transform="matrix(1 0 0 1 193.8204 121.3108)" class="st0 st2">+</text>
<text transform="matrix(1 0 0 1 266.6534 163.7805)" class="st0 st2">+</text>
<text transform="matrix(1 0 0 1 424.9 169.304)" class="st0 st3">-</text>
<text transform="matrix(1 0 0 1 268.7823 126.8342)" class="st0 st3">-</text>
<text transform="matrix(1 0 0 1 268.7823 210.7825)" class="st0 st3">-</text>
<text transform="matrix(1 0 0 1 424.9 126.8342)" class="st0 st3">-</text>
<text transform="matrix(1 0 0 1 193.8214 169.304)" class="st0 st3">-</text>
<text transform="matrix(1 0 0 1 193.8214 210.7825)" class="st0 st3">-</text>
<text transform="matrix(1 0 0 1 196.795 29.8196)" class="st0 st4">a</text>
<text transform="matrix(1 0 0 1 263.7208 29.8196)" class="st0 st4">b</text>
<text transform="matrix(1 0 0 1 327.6729 29.8196)" class="st0 st4">a</text>
<text transform="matrix(1 0 0 1 384.189 29.8196)" class="st0 st4">b</text>
<text transform="matrix(1 0 0 1 413.9634 30.9348)" class="st0 st5">or</text>
<text transform="matrix(1 0 0 1 449.6265 29.8196)" class="st0 st4">a</text>
<text transform="matrix(1 0 0 1 503.1685 29.8196)" class="st0 st4">b</text>
<text transform="matrix(1 0 0 1 2.629757e-02 265.2126)" class="st0 st5">Table 2.1: Table of signs for multiplying or dividing two numbers.</text>
<line class="st6" x1="171.9" y1="41.8" x2="543.9" y2="41.8"/>
<line class="st6" x1="171.9" y1="41.8" x2="171.9" y2="1.8"/>
<line class="st6" x1="240.4" y1="41.3" x2="240.4" y2="1.3"/>
<line class="st6" x1="306.4" y1="41.3" x2="306.4" y2="0.3"/>
<line class="st6" x1="543.9" y1="41.3" x2="543.9" y2="0.3"/>
<line class="st6" x1="171.4" y1="0.8" x2="543.4" y2="0.8"/>
<line class="st6" x1="172.4" y1="50.3" x2="544.4" y2="50.3"/>
<line class="st6" x1="172.4" y1="91.3" x2="544.4" y2="91.3"/>
<line class="st6" x1="172.4" y1="132.3" x2="544.4" y2="132.3"/>
<line class="st6" x1="172.4" y1="174.3" x2="544.4" y2="174.3"/>
<line class="st6" x1="172.4" y1="215.3" x2="544.4" y2="215.3"/>
<line class="st6" x1="172.4" y1="50.3" x2="172.4" y2="215.3"/>
<line class="st6" x1="240.4" y1="50.3" x2="240.4" y2="215.3"/>
<line class="st6" x1="306.4" y1="50.3" x2="306.4" y2="215.3"/>
<line class="st6" x1="544.4" y1="50.3" x2="544.4" y2="215.3"/>
</svg>
