<?xml version="1.0" encoding="utf-8"?>
<!-- Generator: Adobe Illustrator 21.1.0, SVG Export Plug-In . SVG Version: 6.00 Build 0)  -->
<svg version="1.1" id="Слой_1" xmlns="http://www.w3.org/2000/svg" xmlns:xlink="http://www.w3.org/1999/xlink" x="0px" y="0px"
	 width="222.8px" height="127.5px" viewBox="0 0 222.8 127.5" style="enable-background:new 0 0 222.8 127.5;" xml:space="preserve"
	>
<style type="text/css">
	.st0{font-family:'SegoeUI';}
	.st1{font-size:19.9253px;}
	.st2{stroke:#000000;stroke-width:0.25;stroke-miterlimit:10;}
	.st3{fill:none;stroke:#000000;stroke-width:0.5;stroke-miterlimit:10;}
</style>
<g>
	<text transform="matrix(1 0 0 1 15.5705 17.0506)" class="st0 st1">a</text>
	<text transform="matrix(1 0 0 1 56.6105 17.0506)" class="st0 st1">b</text>
	<text transform="matrix(1 0 0 1 93.3303 17.0506)" class="st0 st1">a</text>
	<text transform="matrix(1 0 0 1 108.4504 17.0506)" class="st0 st1">×</text>
	<text transform="matrix(1 0 0 1 128.3713 17.0506)" class="st0 st1">b</text>
	<text transform="matrix(1 0 0 1 143.4914 17.0506)"><tspan x="0" y="0" class="st0 st1">o</tspan><tspan x="11.3" y="0" class="st0 st1">r</tspan></text>
	<text transform="matrix(1 0 0 1 166.2922 17.0506)" class="st0 st1">a</text>
	<text transform="matrix(1 0 0 1 181.4113 17.0506)" class="st0 st1">÷</text>
	<text transform="matrix(1 0 0 1 201.3313 17.0506)" class="st0 st1">b</text>
	<text transform="matrix(1 0 0 1 13.8303 46.5701)" class="st0 st1">+</text>
	<text transform="matrix(1 0 0 1 54.1496 46.5701)" class="st0 st1">+</text>
	<text transform="matrix(1 0 0 1 144.6291 46.5701)" class="st0 st1">+</text>
	<text transform="matrix(1 0 0 1 13.8303 71.2889)" class="st0 st1">+</text>
	<text transform="matrix(1 0 0 1 58.4699 71.2889)" class="st0 st1">-</text>
	<text transform="matrix(1 0 0 1 149.1897 71.2889)" class="st2 st0 st1">-</text>
	<text transform="matrix(1 0 0 1 18.3898 96.0096)" class="st0 st1">-</text>
	<text transform="matrix(1 0 0 1 54.1496 96.0096)" class="st0 st1">+</text>
	<text transform="matrix(1 0 0 1 149.1897 96.0096)" class="st0 st1">-</text>
	<text transform="matrix(1 0 0 1 18.3898 120.7303)" class="st0 st1">-</text>
	<text transform="matrix(1 0 0 1 58.4699 120.7303)" class="st0 st1">-</text>
	<text transform="matrix(1 0 0 1 144.6291 120.7303)" class="st0 st1">+</text>
	<line class="st3" x1="0.4" y1="0.3" x2="222.4" y2="0.3"/>
	<line class="st3" x1="0.4" y1="24.3" x2="222.4" y2="24.3"/>
	<line class="st3" x1="0.8" y1="29.3" x2="222.8" y2="29.3"/>
	<line class="st3" x1="0.8" y1="53.3" x2="222.8" y2="53.3"/>
	<line class="st3" x1="0.8" y1="79.3" x2="222.8" y2="79.3"/>
	<line class="st3" x1="0.8" y1="103.3" x2="222.8" y2="103.3"/>
	<line class="st3" x1="0.8" y1="127.3" x2="222.8" y2="127.3"/>
	<line class="st3" x1="0.3" y1="29.3" x2="0.3" y2="127.3"/>
	<line class="st3" x1="42.3" y1="29.3" x2="42.3" y2="127.3"/>
	<line class="st3" x1="82.3" y1="29.3" x2="82.3" y2="127.3"/>
	<line class="st3" x1="222.4" y1="29.3" x2="222.4" y2="127.3"/>
	<line class="st3" x1="0.3" y1="0.1" x2="0.3" y2="24"/>
	<line class="st3" x1="41.5" y1="0.3" x2="41.5" y2="24.3"/>
	<line class="st3" x1="81.4" y1="0.3" x2="81.4" y2="24.3"/>
	<line class="st3" x1="222.3" y1="0.3" x2="222.3" y2="24.3"/>
</g>
</svg>
