<?xml version="1.0" encoding="utf-8"?>
<!-- Generator: Adobe Illustrator 21.1.0, SVG Export Plug-In . SVG Version: 6.00 Build 0)  -->
<svg version="1.1" id="Слой_1" xmlns="http://www.w3.org/2000/svg" xmlns:xlink="http://www.w3.org/1999/xlink" x="0px" y="0px"
	 width="453.5px" height="68.5px" viewBox="0 0 453.5 68.5" style="enable-background:new 0 0 453.5 68.5;" xml:space="preserve">
<style type="text/css">
	.st0{fill:none;stroke:#000000;stroke-width:0.797;stroke-miterlimit:10;}
	.st1{font-family:'SegoeUI';}
	.st2{font-size:19.9253px;}
	.st3{letter-spacing:6;}
</style>
<g>
	<polyline points="8.6,37.4 0,40.5 8.6,43.6 5.2,40.5 	"/>
	<polyline points="444.9,43.6 453.5,40.5 444.9,37.4 448.4,40.5 	"/>
	<line class="st0" x1="5.2" y1="40.5" x2="448.4" y2="40.5"/>
	<text transform="matrix(1 0 0 1 161.6801 63.5264)"><tspan x="0" y="0" class="st1 st2">-</tspan><tspan x="8" y="0" class="st1 st2">1</tspan></text>
	<text transform="matrix(1 0 0 1 104.9868 63.5264)"><tspan x="0" y="0" class="st1 st2">-</tspan><tspan x="8" y="0" class="st1 st2">2</tspan></text>
	<g>
		<path d="M53.8,57.5v1.3h-4.9v-1.3H53.8z"/>
		<path d="M55.8,61.5c0.5,0.3,1.7,0.8,2.9,0.8c2.3,0,2.9-1.4,2.9-2.5c0-1.8-1.7-2.6-3.3-2.6h-1v-1.3h1c1.3,0,2.9-0.7,2.9-2.2
			c0-1-0.7-2-2.3-2c-1,0-2,0.5-2.6,0.9l-0.5-1.3c0.7-0.5,2-1,3.4-1c2.6,0,3.7,1.5,3.7,3.1c0,1.3-0.8,2.5-2.4,3v0
			c1.6,0.3,2.9,1.5,2.9,3.3c0,2.1-1.6,3.9-4.7,3.9c-1.5,0-2.7-0.5-3.4-0.9L55.8,61.5z"/>
		<path d="M231,56.9c0,4.4-1.6,6.8-4.5,6.8c-2.5,0-4.2-2.4-4.3-6.7c0-4.3,1.9-6.7,4.5-6.7C229.4,50.4,231,52.8,231,56.9z
			 M223.9,57.1c0,3.4,1,5.3,2.6,5.3c1.8,0,2.7-2.1,2.7-5.4c0-3.2-0.8-5.3-2.6-5.3C225,51.7,223.9,53.6,223.9,57.1z"/>
		<path d="M283.1,52.2L283.1,52.2l-2.3,1.2l-0.3-1.3l2.8-1.5h1.5v13h-1.7V52.2z"/>
		<path d="M336.2,63.5v-1.1l1.4-1.3c3.3-3.1,4.8-4.8,4.8-6.8c0-1.3-0.6-2.5-2.6-2.5c-1.2,0-2.2,0.6-2.8,1.1l-0.6-1.2
			c0.9-0.8,2.2-1.3,3.7-1.3c2.8,0,4,1.9,4,3.8c0,2.4-1.7,4.3-4.5,7l-1,1v0h5.8v1.5H336.2z"/>
		<path d="M393.6,61.5c0.5,0.3,1.7,0.8,2.9,0.8c2.3,0,2.9-1.4,2.9-2.5c0-1.8-1.7-2.6-3.3-2.6h-1v-1.3h1c1.3,0,2.9-0.7,2.9-2.2
			c0-1-0.7-2-2.3-2c-1,0-2,0.5-2.6,0.9l-0.5-1.3c0.7-0.5,2-1,3.4-1c2.6,0,3.7,1.5,3.7,3.1c0,1.3-0.8,2.5-2.4,3v0
			c1.6,0.3,2.9,1.5,2.9,3.3c0,2.1-1.6,3.9-4.7,3.9c-1.5,0-2.7-0.5-3.4-0.9L393.6,61.5z"/>
	</g>
	<line class="st0" x1="226.8" y1="34.8" x2="226.8" y2="46.2"/>
	<line class="st0" x1="283.5" y1="34.8" x2="283.5" y2="46.2"/>
	<line class="st0" x1="340.2" y1="34.8" x2="340.2" y2="46.2"/>
	<line class="st0" x1="396.9" y1="34.8" x2="396.9" y2="46.2"/>
	<line class="st0" x1="170.1" y1="34.8" x2="170.1" y2="46.2"/>
	<line class="st0" x1="113.4" y1="34.8" x2="113.4" y2="46.2"/>
	<line class="st0" x1="56.7" y1="34.8" x2="56.7" y2="46.2"/>
	<polyline points="178.7,9.1 170.1,12.1 178.7,15.2 175.3,12.1 	"/>
	<line class="st0" x1="175.3" y1="12.1" x2="226.8" y2="12.1"/>
	<polyline points="274.8,15.2 283.5,12.1 274.8,9.1 278.3,12.1 	"/>
	<line class="st0" x1="226.8" y1="12.1" x2="278.3" y2="12.1"/>
	<line class="st0" x1="226.8" y1="17.8" x2="226.8" y2="6.5"/>
	<text transform="matrix(1 0 0 1 287.5468 16.9385)"><tspan x="0" y="0" class="st1 st2">p</tspan><tspan x="12.2" y="0" class="st1 st2">o</tspan><tspan x="24" y="0" class="st1 st2">s</tspan><tspan x="32.5" y="0" class="st1 st2">i</tspan><tspan x="37.3" y="0" class="st1 st2">t</tspan><tspan x="44.1" y="0" class="st1 st2">i</tspan><tspan x="48.9" y="0" class="st1 st2">v</tspan><tspan x="58.4" y="0" class="st1 st2 st3">e</tspan><tspan x="75.3" y="0" class="st1 st2">nu</tspan><tspan x="97.9" y="0" class="st1 st2">m</tspan><tspan x="115.1" y="0" class="st1 st2">b</tspan><tspan x="127.3" y="0" class="st1 st2">e</tspan><tspan x="137.7" y="0" class="st1 st2">r</tspan><tspan x="144.6" y="0" class="st1 st2">s</tspan></text>
	<text transform="matrix(1 0 0 1 4.3198 16.9385)"><tspan x="0" y="0" class="st1 st2">n</tspan><tspan x="11.3" y="0" class="st1 st2">e</tspan><tspan x="21.7" y="0" class="st1 st2">g</tspan><tspan x="33.5" y="0" class="st1 st2">a</tspan><tspan x="43.7" y="0" class="st1 st2">t</tspan><tspan x="50.5" y="0" class="st1 st2">i</tspan><tspan x="55.3" y="0" class="st1 st2">v</tspan><tspan x="64.8" y="0" class="st1 st2 st3">e</tspan><tspan x="81.7" y="0" class="st1 st2">nu</tspan><tspan x="104.3" y="0" class="st1 st2">m</tspan><tspan x="121.5" y="0" class="st1 st2">b</tspan><tspan x="133.7" y="0" class="st1 st2">e</tspan><tspan x="144.1" y="0" class="st1 st2">r</tspan><tspan x="151" y="0" class="st1 st2">s</tspan></text>
</g>
</svg>
