<?xml version="1.0" encoding="utf-8"?>
<!-- Generator: Adobe Illustrator 21.1.0, SVG Export Plug-In . SVG Version: 6.00 Build 0)  -->
<svg version="1.1" id="Слой_1" xmlns="http://www.w3.org/2000/svg" xmlns:xlink="http://www.w3.org/1999/xlink" x="0px" y="0px"
	 width="226.8px" height="34.3px" viewBox="0 0 226.8 34.3" style="enable-background:new 0 0 226.8 34.3;" xml:space="preserve">
<style type="text/css">
	.st0{fill:none;stroke:#000000;stroke-width:0.797;stroke-miterlimit:10;}
	.st1{font-family:'SegoeUI';}
	.st2{font-size:9.9626px;}
	.st3{letter-spacing:3;}
</style>
<polyline points="4.3,18.7 0,20.2 4.3,21.8 2.6,20.2 "/>
<polyline points="222.4,21.8 226.8,20.2 222.4,18.7 224.2,20.2 "/>
<line class="st0" x1="2.6" y1="20.2" x2="224.2" y2="20.2"/>
<text transform="matrix(1 0 0 1 80.84 31.7632)"><tspan x="0" y="0" class="st1 st2">-</tspan><tspan x="4" y="0" class="st1 st2">1</tspan></text>
<text transform="matrix(1 0 0 1 52.4934 31.7632)"><tspan x="0" y="0" class="st1 st2">-</tspan><tspan x="4" y="0" class="st1 st2">2</tspan></text>
<g>
	<path d="M26.9,28.7v0.6h-2.5v-0.6H26.9z"/>
	<path d="M27.9,30.8c0.2,0.2,0.8,0.4,1.4,0.4c1.1,0,1.5-0.7,1.5-1.3c0-0.9-0.8-1.3-1.7-1.3h-0.5V28h0.5c0.6,0,1.4-0.3,1.4-1.1
		c0-0.5-0.3-1-1.1-1c-0.5,0-1,0.2-1.3,0.4l-0.2-0.6c0.3-0.2,1-0.5,1.7-0.5c1.3,0,1.9,0.8,1.9,1.5c0,0.7-0.4,1.2-1.2,1.5v0
		c0.8,0.2,1.4,0.8,1.4,1.7c0,1-0.8,1.9-2.4,1.9c-0.7,0-1.4-0.2-1.7-0.4L27.9,30.8z"/>
	<path d="M115.5,28.5c0,2.2-0.8,3.4-2.3,3.4c-1.3,0-2.1-1.2-2.1-3.3c0-2.2,0.9-3.4,2.3-3.4C114.7,25.2,115.5,26.4,115.5,28.5z
		 M112,28.6c0,1.7,0.5,2.6,1.3,2.6c0.9,0,1.3-1,1.3-2.7c0-1.6-0.4-2.6-1.3-2.6C112.5,25.9,112,26.8,112,28.6z"/>
	<path d="M141.5,26.1L141.5,26.1l-1.1,0.6l-0.2-0.7l1.4-0.8h0.7v6.5h-0.8V26.1z"/>
	<path d="M168.1,31.8v-0.5l0.7-0.7c1.7-1.6,2.4-2.4,2.4-3.4c0-0.7-0.3-1.3-1.3-1.3c-0.6,0-1.1,0.3-1.4,0.5l-0.3-0.6
		c0.4-0.4,1.1-0.7,1.8-0.7c1.4,0,2,1,2,1.9c0,1.2-0.9,2.2-2.2,3.5l-0.5,0.5v0h2.9v0.7H168.1z"/>
	<path d="M196.8,30.8c0.2,0.2,0.8,0.4,1.4,0.4c1.1,0,1.5-0.7,1.5-1.3c0-0.9-0.8-1.3-1.7-1.3h-0.5V28h0.5c0.6,0,1.4-0.3,1.4-1.1
		c0-0.5-0.3-1-1.1-1c-0.5,0-1,0.2-1.3,0.4l-0.2-0.6c0.3-0.2,1-0.5,1.7-0.5c1.3,0,1.9,0.8,1.9,1.5c0,0.7-0.4,1.2-1.2,1.5v0
		c0.8,0.2,1.4,0.8,1.4,1.7c0,1-0.8,1.9-2.4,1.9c-0.7,0-1.4-0.2-1.7-0.4L196.8,30.8z"/>
</g>
<line class="st0" x1="113.4" y1="17.4" x2="113.4" y2="23.1"/>
<line class="st0" x1="141.7" y1="17.4" x2="141.7" y2="23.1"/>
<line class="st0" x1="170.1" y1="17.4" x2="170.1" y2="23.1"/>
<line class="st0" x1="198.4" y1="17.4" x2="198.4" y2="23.1"/>
<line class="st0" x1="85" y1="17.4" x2="85" y2="23.1"/>
<line class="st0" x1="56.7" y1="17.4" x2="56.7" y2="23.1"/>
<line class="st0" x1="28.3" y1="17.4" x2="28.3" y2="23.1"/>
<polyline points="89.4,4.5 85,6.1 89.4,7.6 87.6,6.1 "/>
<line class="st0" x1="87.6" y1="6.1" x2="113.4" y2="6.1"/>
<polyline points="137.4,7.6 141.7,6.1 137.4,4.5 139.1,6.1 "/>
<line class="st0" x1="113.4" y1="6.1" x2="139.1" y2="6.1"/>
<line class="st0" x1="113.4" y1="8.9" x2="113.4" y2="3.2"/>
<text transform="matrix(1 0 0 1 143.7731 8.4692)"><tspan x="0" y="0" class="st1 st2">p</tspan><tspan x="6.1" y="0" class="st1 st2">o</tspan><tspan x="12" y="0" class="st1 st2">s</tspan><tspan x="16.2" y="0" class="st1 st2">i</tspan><tspan x="18.7" y="0" class="st1 st2">t</tspan><tspan x="22" y="0" class="st1 st2">i</tspan><tspan x="24.5" y="0" class="st1 st2">v</tspan><tspan x="29.2" y="0" class="st1 st2 st3">e</tspan><tspan x="37.7" y="0" class="st1 st2">nu</tspan><tspan x="49" y="0" class="st1 st2">m</tspan><tspan x="57.5" y="0" class="st1 st2">b</tspan><tspan x="63.7" y="0" class="st1 st2">e</tspan><tspan x="68.9" y="0" class="st1 st2">r</tspan><tspan x="72.3" y="0" class="st1 st2">s</tspan></text>
<text transform="matrix(1 0 0 1 2.1599 8.4692)"><tspan x="0" y="0" class="st1 st2">n</tspan><tspan x="5.6" y="0" class="st1 st2">e</tspan><tspan x="10.9" y="0" class="st1 st2">g</tspan><tspan x="16.8" y="0" class="st1 st2">a</tspan><tspan x="21.9" y="0" class="st1 st2">t</tspan><tspan x="25.2" y="0" class="st1 st2">i</tspan><tspan x="27.7" y="0" class="st1 st2">v</tspan><tspan x="32.4" y="0" class="st1 st2 st3">e</tspan><tspan x="40.9" y="0" class="st1 st2">nu</tspan><tspan x="52.2" y="0" class="st1 st2">m</tspan><tspan x="60.7" y="0" class="st1 st2">b</tspan><tspan x="66.8" y="0" class="st1 st2">e</tspan><tspan x="72.1" y="0" class="st1 st2">r</tspan><tspan x="75.5" y="0" class="st1 st2">s</tspan></text>
</svg>
