<?xml version="1.0" encoding="utf-8"?>
<!-- Generator: Adobe Illustrator 21.1.0, SVG Export Plug-In . SVG Version: 6.00 Build 0)  -->
<svg version="1.1" id="Слой_1" xmlns="http://www.w3.org/2000/svg" xmlns:xlink="http://www.w3.org/1999/xlink" x="0px" y="0px"
	 width="369.8px" height="333.8px" viewBox="0 0 369.8 333.8" style="enable-background:new 0 0 369.8 333.8;" xml:space="preserve"
	>
<style type="text/css">
	.st0{fill:none;stroke:#000000;stroke-miterlimit:10;}
	.st1{fill:none;stroke:#000000;stroke-width:0.5;stroke-miterlimit:10;}
</style>
<g>
	<g>
		<path d="M111,2.9h-4.1v3.6h3.8v1.1h-3.8v4.6h-1.2V1.8h5.3V2.9z"/>
		<path d="M116.3,6c-0.2-0.2-0.5-0.2-0.9-0.2c-0.5,0-0.9,0.2-1.3,0.7c-0.3,0.5-0.5,1.1-0.5,2v3.8h-1.2V4.8h1.2v1.5h0
			c0.2-0.5,0.4-0.9,0.8-1.2c0.4-0.3,0.7-0.4,1.2-0.4c0.3,0,0.5,0,0.7,0.1V6z"/>
		<path d="M122.9,12.3h-1.2v-1.2h0c-0.5,0.9-1.3,1.3-2.3,1.3c-0.7,0-1.3-0.2-1.7-0.6c-0.4-0.4-0.6-0.9-0.6-1.6
			c0-1.4,0.8-2.2,2.5-2.4l2.2-0.3c0-1.3-0.5-1.9-1.5-1.9c-0.9,0-1.7,0.3-2.4,0.9V5.3c0.7-0.5,1.6-0.7,2.5-0.7c1.8,0,2.6,0.9,2.6,2.8
			V12.3z M121.7,8.5l-1.8,0.2c-0.6,0.1-1,0.2-1.3,0.4c-0.3,0.2-0.4,0.5-0.4,1c0,0.4,0.1,0.7,0.4,0.9c0.3,0.2,0.6,0.3,1,0.3
			c0.6,0,1.1-0.2,1.5-0.6c0.4-0.4,0.6-0.9,0.6-1.6V8.5z"/>
		<path d="M130.3,11.9c-0.6,0.3-1.3,0.5-2,0.5c-1.1,0-1.9-0.3-2.6-1c-0.7-0.7-1-1.6-1-2.7c0-1.2,0.4-2.2,1.1-3
			c0.7-0.7,1.6-1.1,2.8-1.1c0.7,0,1.2,0.1,1.7,0.4v1.2c-0.6-0.4-1.1-0.6-1.8-0.6c-0.8,0-1.4,0.3-1.9,0.8s-0.7,1.3-0.7,2.2
			c0,0.9,0.2,1.6,0.7,2.1c0.5,0.5,1.1,0.8,1.9,0.8c0.7,0,1.3-0.2,1.8-0.6V11.9z"/>
		<path d="M135.5,12.2c-0.3,0.2-0.7,0.2-1.1,0.2c-1.3,0-2-0.7-2-2.2V5.8h-1.3v-1h1.3V3l1.2-0.4v2.2h1.9v1h-1.9V10
			c0,0.5,0.1,0.9,0.3,1.1c0.2,0.2,0.5,0.3,0.8,0.3c0.3,0,0.6-0.1,0.8-0.2V12.2z"/>
		<path d="M137.7,2.9c-0.2,0-0.4-0.1-0.5-0.2S137,2.4,137,2.1s0.1-0.4,0.2-0.6s0.3-0.2,0.5-0.2c0.2,0,0.4,0.1,0.6,0.2
			s0.2,0.3,0.2,0.6c0,0.2-0.1,0.4-0.2,0.5S138,2.9,137.7,2.9z M138.3,12.3h-1.2V4.8h1.2V12.3z"/>
		<path d="M143.9,12.5c-1.1,0-2-0.3-2.6-1c-0.7-0.7-1-1.6-1-2.8c0-1.3,0.3-2.2,1-2.9c0.7-0.7,1.6-1.1,2.8-1.1c1.1,0,2,0.3,2.6,1
			s0.9,1.6,0.9,2.9c0,1.2-0.3,2.1-1,2.9C145.9,12.1,145,12.5,143.9,12.5z M144,5.6c-0.8,0-1.4,0.3-1.8,0.8c-0.4,0.5-0.7,1.2-0.7,2.2
			c0,0.9,0.2,1.6,0.7,2.1s1.1,0.8,1.8,0.8c0.8,0,1.4-0.3,1.8-0.8s0.6-1.2,0.6-2.1c0-0.9-0.2-1.7-0.6-2.2S144.8,5.6,144,5.6z"/>
		<path d="M155.8,12.3h-1.2V8c0-1.6-0.6-2.4-1.7-2.4c-0.6,0-1.1,0.2-1.5,0.7c-0.4,0.5-0.6,1-0.6,1.7v4.3h-1.2V4.8h1.2V6h0
			c0.6-0.9,1.4-1.4,2.5-1.4c0.8,0,1.4,0.3,1.9,0.8s0.6,1.3,0.6,2.3V12.3z"/>
	</g>
	<g>
		<path d="M175.3,12.3V1.8h2.9c3.7,0,5.5,1.7,5.5,5.1c0,1.6-0.5,2.9-1.5,3.9c-1,1-2.4,1.5-4.1,1.5H175.3z M176.6,2.9v8.2h1.6
			c1.4,0,2.4-0.4,3.2-1.1s1.1-1.8,1.1-3.1c0-2.7-1.4-4-4.3-4H176.6z"/>
		<path d="M191.7,8.8h-5.3c0,0.8,0.2,1.5,0.7,1.9c0.4,0.5,1,0.7,1.8,0.7c0.8,0,1.6-0.3,2.3-0.8v1.1c-0.7,0.5-1.5,0.7-2.6,0.7
			c-1.1,0-1.9-0.3-2.5-1c-0.6-0.7-0.9-1.6-0.9-2.9c0-1.2,0.3-2.1,1-2.8c0.7-0.7,1.5-1.1,2.5-1.1c1,0,1.7,0.3,2.3,0.9
			c0.5,0.6,0.8,1.5,0.8,2.6V8.8z M190.4,7.8c0-0.7-0.2-1.2-0.5-1.6c-0.3-0.4-0.8-0.6-1.4-0.6c-0.6,0-1,0.2-1.4,0.6
			c-0.4,0.4-0.6,0.9-0.7,1.6H190.4z"/>
		<path d="M198.6,11.9c-0.6,0.3-1.3,0.5-2,0.5c-1.1,0-1.9-0.3-2.6-1c-0.7-0.7-1-1.6-1-2.7c0-1.2,0.4-2.2,1.1-3
			c0.7-0.7,1.6-1.1,2.8-1.1c0.7,0,1.2,0.1,1.7,0.4v1.2c-0.6-0.4-1.1-0.6-1.8-0.6c-0.8,0-1.4,0.3-1.9,0.8s-0.7,1.3-0.7,2.2
			c0,0.9,0.2,1.6,0.7,2.1c0.5,0.5,1.1,0.8,1.9,0.8c0.7,0,1.3-0.2,1.8-0.6V11.9z"/>
		<path d="M201,2.9c-0.2,0-0.4-0.1-0.5-0.2s-0.2-0.3-0.2-0.6s0.1-0.4,0.2-0.6s0.3-0.2,0.5-0.2c0.2,0,0.4,0.1,0.6,0.2
			s0.2,0.3,0.2,0.6c0,0.2-0.1,0.4-0.2,0.5S201.2,2.9,201,2.9z M201.6,12.3h-1.2V4.8h1.2V12.3z"/>
		<path d="M214.6,12.3h-1.2V8c0-0.8-0.1-1.4-0.4-1.8c-0.3-0.4-0.7-0.6-1.3-0.6c-0.5,0-0.9,0.2-1.3,0.7c-0.4,0.5-0.5,1-0.5,1.7v4.3
			h-1.2V7.8c0-1.5-0.6-2.2-1.7-2.2c-0.5,0-1,0.2-1.3,0.7c-0.3,0.4-0.5,1-0.5,1.7v4.3H204V4.8h1.2V6h0c0.5-0.9,1.3-1.4,2.3-1.4
			c0.5,0,1,0.1,1.3,0.4c0.4,0.3,0.6,0.7,0.8,1.1c0.6-1,1.4-1.5,2.5-1.5c1.6,0,2.5,1,2.5,3V12.3z"/>
		<path d="M222.2,12.3h-1.2v-1.2h0c-0.5,0.9-1.3,1.3-2.3,1.3c-0.7,0-1.3-0.2-1.7-0.6s-0.6-0.9-0.6-1.6c0-1.4,0.8-2.2,2.5-2.4
			l2.2-0.3c0-1.3-0.5-1.9-1.5-1.9c-0.9,0-1.7,0.3-2.4,0.9V5.3c0.7-0.5,1.6-0.7,2.5-0.7c1.8,0,2.6,0.9,2.6,2.8V12.3z M221.1,8.5
			l-1.8,0.2c-0.6,0.1-1,0.2-1.3,0.4c-0.3,0.2-0.4,0.5-0.4,1c0,0.4,0.1,0.7,0.4,0.9c0.3,0.2,0.6,0.3,1,0.3c0.6,0,1.1-0.2,1.5-0.6
			c0.4-0.4,0.6-0.9,0.6-1.6V8.5z"/>
		<path d="M225.7,12.3h-1.2V1.2h1.2V12.3z"/>
		<path d="M238.5,2.9h-4.1v3.6h3.8v1.1h-3.8v4.6h-1.2V1.8h5.3V2.9z"/>
		<path d="M243,12.5c-1.1,0-2-0.3-2.6-1c-0.7-0.7-1-1.6-1-2.8c0-1.3,0.3-2.2,1-2.9c0.7-0.7,1.6-1.1,2.8-1.1c1.1,0,2,0.3,2.6,1
			s0.9,1.6,0.9,2.9c0,1.2-0.3,2.1-1,2.9C245.1,12.1,244.2,12.5,243,12.5z M243.1,5.6c-0.8,0-1.4,0.3-1.8,0.8
			c-0.4,0.5-0.7,1.2-0.7,2.2c0,0.9,0.2,1.6,0.7,2.1c0.5,0.5,1.1,0.8,1.8,0.8c0.8,0,1.4-0.3,1.8-0.8s0.6-1.2,0.6-2.1
			c0-0.9-0.2-1.7-0.6-2.2S243.9,5.6,243.1,5.6z"/>
		<path d="M252.3,6c-0.2-0.2-0.5-0.2-0.9-0.2c-0.5,0-0.9,0.2-1.3,0.7c-0.3,0.5-0.5,1.1-0.5,2v3.8h-1.2V4.8h1.2v1.5h0
			c0.2-0.5,0.4-0.9,0.8-1.2c0.4-0.3,0.7-0.4,1.2-0.4c0.3,0,0.5,0,0.7,0.1V6z"/>
		<path d="M264.1,12.3H263V8c0-0.8-0.1-1.4-0.4-1.8c-0.3-0.4-0.7-0.6-1.3-0.6c-0.5,0-0.9,0.2-1.3,0.7c-0.4,0.5-0.5,1-0.5,1.7v4.3
			h-1.2V7.8c0-1.5-0.6-2.2-1.7-2.2c-0.5,0-1,0.2-1.3,0.7c-0.3,0.4-0.5,1-0.5,1.7v4.3h-1.2V4.8h1.2V6h0c0.5-0.9,1.3-1.4,2.3-1.4
			c0.5,0,1,0.1,1.3,0.4c0.4,0.3,0.6,0.7,0.8,1.1c0.6-1,1.4-1.5,2.5-1.5c1.6,0,2.5,1,2.5,3V12.3z"/>
	</g>
	<g>
		<path d="M131.9,29.1h-4.1v-0.7h1.7v-5.7l-1.7,0.5v-0.8l2.5-0.8v6.8h1.6V29.1z"/>
	</g>
	<g>
		<path d="M128.8,40h-4.4v-0.7l2.1-2.1c0.5-0.5,0.9-1,1.2-1.4s0.4-0.8,0.4-1.2c0-0.4-0.1-0.7-0.4-1c-0.2-0.2-0.6-0.3-1-0.3
			c-0.7,0-1.3,0.3-1.9,0.8v-0.9c0.6-0.4,1.2-0.7,2-0.7c0.7,0,1.2,0.2,1.5,0.5c0.4,0.4,0.6,0.8,0.6,1.4c0,0.5-0.1,0.9-0.4,1.4
			s-0.7,1-1.4,1.7l-1.7,1.7v0h3.4V40z"/>
		<path d="M132.3,40.2c-0.7,0-1.3-0.3-1.7-0.9c-0.4-0.6-0.6-1.5-0.6-2.7c0-1.3,0.2-2.3,0.6-2.9s1-1,1.8-1c1.5,0,2.3,1.3,2.3,3.8
			c0,1.2-0.2,2.2-0.6,2.8C133.7,39.8,133.1,40.2,132.3,40.2z M132.4,33.3c-1,0-1.6,1.1-1.6,3.2c0,2,0.5,3,1.5,3c1,0,1.5-1,1.5-3
			C133.9,34.3,133.4,33.3,132.4,33.3z"/>
	</g>
	<g>
		<path d="M208.3,35.2c-1,0-1.8-0.4-2.4-1.3c-0.6-0.9-0.9-2.2-0.9-3.9c0-1.8,0.3-3.2,0.9-4.2c0.6-0.9,1.5-1.4,2.6-1.4
			c2.2,0,3.3,1.8,3.3,5.4c0,1.8-0.3,3.1-0.9,4.1C210.3,34.7,209.4,35.2,208.3,35.2z M208.5,25.4c-1.5,0-2.2,1.5-2.2,4.5
			c0,2.8,0.7,4.2,2.2,4.2c1.4,0,2.2-1.4,2.2-4.3C210.6,26.9,209.9,25.4,208.5,25.4z"/>
		<path d="M214.8,33.3l-1.2,3.6h-0.9l0.9-3.6H214.8z"/>
		<path d="M219.7,35.2c-1,0-1.8-0.4-2.4-1.3c-0.6-0.9-0.9-2.2-0.9-3.9c0-1.8,0.3-3.2,0.9-4.2c0.6-0.9,1.5-1.4,2.6-1.4
			c2.2,0,3.3,1.8,3.3,5.4c0,1.8-0.3,3.1-0.9,4.1C221.7,34.7,220.8,35.2,219.7,35.2z M219.9,25.4c-1.5,0-2.2,1.5-2.2,4.5
			c0,2.8,0.7,4.2,2.2,4.2c1.4,0,2.2-1.4,2.2-4.3C222,26.9,221.3,25.4,219.9,25.4z"/>
		<path d="M225.1,34.7v-1.3c0.7,0.5,1.4,0.7,2.2,0.7c0.7,0,1.3-0.2,1.8-0.6s0.7-1,0.7-1.7c0-0.7-0.2-1.2-0.7-1.6s-1.1-0.6-2-0.6
			c-0.3,0-0.8,0-1.6,0.1v-5.2h5.1v1.1h-3.9v3.1c0.3,0,0.6,0,0.9,0c1.1,0,2,0.3,2.6,0.8c0.6,0.6,0.9,1.3,0.9,2.3c0,1-0.3,1.8-1,2.4
			s-1.6,0.9-2.7,0.9C226.3,35.2,225.6,35,225.1,34.7z"/>
	</g>
	<g>
		<path d="M131.9,65.1h-4.1v-0.7h1.7v-5.7l-1.7,0.5v-0.8l2.5-0.8v6.8h1.6V65.1z"/>
	</g>
	<g>
		<path d="M129,76h-4.1v-0.7h1.7v-5.7l-1.7,0.5v-0.8l2.5-0.8v6.8h1.6V76z"/>
		<path d="M134.3,68.8v0.8c-0.4-0.2-0.8-0.3-1.2-0.3c-0.7,0-1.2,0.3-1.6,0.9c-0.4,0.6-0.6,1.4-0.6,2.3h0c0.3-0.7,0.9-1,1.7-1
			c0.6,0,1.1,0.2,1.5,0.6c0.4,0.4,0.6,1,0.6,1.6c0,0.7-0.2,1.3-0.6,1.8c-0.4,0.5-1,0.7-1.6,0.7c-0.7,0-1.3-0.3-1.7-0.9
			c-0.4-0.6-0.6-1.4-0.6-2.5c0-1.3,0.3-2.3,0.8-3.1s1.3-1.1,2.2-1.1C133.6,68.6,134,68.7,134.3,68.8z M132.5,72.2
			c-0.4,0-0.8,0.1-1.1,0.4c-0.3,0.3-0.4,0.6-0.4,1c0,0.5,0.1,0.9,0.4,1.3c0.3,0.4,0.6,0.5,1.1,0.5c0.4,0,0.8-0.2,1-0.5
			s0.4-0.7,0.4-1.2c0-0.5-0.1-0.9-0.4-1.2C133.3,72.3,132.9,72.2,132.5,72.2z"/>
	</g>
	<g>
		<path d="M200.9,71c-1,0-1.8-0.4-2.4-1.3c-0.6-0.9-0.9-2.2-0.9-3.9c0-1.8,0.3-3.2,0.9-4.2c0.6-0.9,1.5-1.4,2.6-1.4
			c2.2,0,3.3,1.8,3.3,5.4c0,1.8-0.3,3.1-0.9,4.1C202.9,70.5,202,71,200.9,71z M201.1,61.2c-1.5,0-2.2,1.5-2.2,4.5
			c0,2.8,0.7,4.2,2.2,4.2c1.4,0,2.2-1.4,2.2-4.3C203.2,62.7,202.5,61.2,201.1,61.2z"/>
		<path d="M207.4,69.2l-1.2,3.6h-0.9l0.9-3.6H207.4z"/>
		<path d="M212.3,71c-1,0-1.8-0.4-2.4-1.3c-0.6-0.9-0.9-2.2-0.9-3.9c0-1.8,0.3-3.2,0.9-4.2c0.6-0.9,1.5-1.4,2.6-1.4
			c2.2,0,3.3,1.8,3.3,5.4c0,1.8-0.3,3.1-0.9,4.1C214.3,70.5,213.4,71,212.3,71z M212.5,61.2c-1.5,0-2.2,1.5-2.2,4.5
			c0,2.8,0.7,4.2,2.2,4.2c1.4,0,2.2-1.4,2.2-4.3C214.6,62.7,213.9,61.2,212.5,61.2z"/>
		<path d="M223.3,60.5v1.1c-0.5-0.3-1.1-0.4-1.7-0.4c-0.9,0-1.7,0.4-2.2,1.2c-0.6,0.8-0.8,1.9-0.8,3.3h0c0.5-1,1.3-1.5,2.4-1.5
			c0.9,0,1.6,0.3,2.2,0.9c0.5,0.6,0.8,1.4,0.8,2.4c0,1-0.3,1.9-0.9,2.5c-0.6,0.6-1.4,1-2.4,1c-1.1,0-1.9-0.4-2.5-1.3
			c-0.6-0.8-0.9-2-0.9-3.5c0-1.8,0.4-3.3,1.2-4.4c0.8-1.1,1.8-1.6,3.1-1.6C222.3,60.2,222.9,60.3,223.3,60.5z M220.7,65.3
			c-0.6,0-1.1,0.2-1.5,0.6c-0.4,0.4-0.6,0.9-0.6,1.5c0,0.7,0.2,1.3,0.6,1.8s0.9,0.8,1.5,0.8c0.6,0,1.1-0.2,1.5-0.7
			c0.4-0.4,0.6-1,0.6-1.7c0-0.7-0.2-1.3-0.5-1.7C221.9,65.5,221.4,65.3,220.7,65.3z"/>
		<path d="M231.6,70.8h-6.3v-1.1l3.1-3.1c0.8-0.8,1.3-1.4,1.7-1.9s0.5-1.1,0.5-1.7c0-0.6-0.2-1.1-0.5-1.4c-0.3-0.3-0.8-0.5-1.5-0.5
			c-0.9,0-1.8,0.4-2.7,1.2v-1.3c0.8-0.6,1.8-1,2.9-1c0.9,0,1.7,0.3,2.2,0.8s0.8,1.2,0.8,2c0,0.7-0.2,1.3-0.6,2c-0.4,0.6-1,1.4-2,2.4
			l-2.4,2.4v0h4.9V70.8z"/>
		<path d="M234,70.6v-1.3c0.7,0.5,1.4,0.7,2.2,0.7c0.7,0,1.3-0.2,1.8-0.6s0.7-1,0.7-1.7c0-0.7-0.2-1.2-0.7-1.6s-1.1-0.6-2-0.6
			c-0.3,0-0.8,0-1.6,0.1v-5.2h5.1v1.1h-3.9v3.1c0.3,0,0.6,0,0.9,0c1.1,0,2,0.3,2.6,0.8c0.6,0.6,0.9,1.3,0.9,2.3c0,1-0.3,1.8-1,2.4
			s-1.6,0.9-2.7,0.9C235.2,71,234.4,70.8,234,70.6z"/>
	</g>
	<g>
		<path d="M131.9,100.9h-4.1v-0.7h1.7v-5.7l-1.7,0.5v-0.8l2.5-0.8v6.8h1.6V100.9z"/>
	</g>
	<g>
		<path d="M129,112h-4.1v-0.7h1.7v-5.7l-1.7,0.5v-0.8l2.5-0.8v6.8h1.6V112z"/>
		<path d="M132.3,112.2c-0.7,0-1.3-0.3-1.7-0.9c-0.4-0.6-0.6-1.5-0.6-2.7c0-1.3,0.2-2.3,0.6-2.9s1-1,1.8-1c1.5,0,2.3,1.3,2.3,3.8
			c0,1.2-0.2,2.2-0.6,2.8C133.7,111.8,133.1,112.2,132.3,112.2z M132.4,105.3c-1,0-1.6,1.1-1.6,3.2c0,2,0.5,3,1.5,3c1,0,1.5-1,1.5-3
			C133.9,106.3,133.4,105.3,132.4,105.3z"/>
	</g>
	<g>
		<path d="M212.1,107c-1,0-1.8-0.4-2.4-1.3c-0.6-0.9-0.9-2.2-0.9-3.9c0-1.8,0.3-3.2,0.9-4.2c0.6-0.9,1.5-1.4,2.6-1.4
			c2.2,0,3.3,1.8,3.3,5.4c0,1.8-0.3,3.1-0.9,4.1C214.1,106.5,213.2,107,212.1,107z M212.3,97.2c-1.5,0-2.2,1.5-2.2,4.5
			c0,2.8,0.7,4.2,2.2,4.2c1.4,0,2.2-1.4,2.2-4.3C214.4,98.7,213.7,97.2,212.3,97.2z"/>
		<path d="M218.6,105.2l-1.2,3.6h-0.9l0.9-3.6H218.6z"/>
		<path d="M226.7,106.8h-5.9v-1.1h2.4v-8.1l-2.4,0.7v-1.1l3.6-1.1v9.6h2.4V106.8z"/>
	</g>
	<g>
		<path d="M131.9,136.9h-4.1v-0.7h1.7v-5.7l-1.7,0.5v-0.8l2.5-0.8v6.8h1.6V136.9z"/>
	</g>
	<g>
		<path d="M128.9,144L128.9,144c-0.9-0.4-1.3-1-1.3-1.8c0-0.5,0.2-1,0.6-1.3s0.9-0.5,1.6-0.5c0.6,0,1,0.2,1.4,0.5
			c0.4,0.3,0.6,0.7,0.6,1.2c0,0.8-0.5,1.4-1.4,1.9v0c1.1,0.4,1.6,1,1.6,2c0,0.6-0.2,1.1-0.7,1.4c-0.4,0.4-1,0.5-1.8,0.5
			c-0.6,0-1.1-0.2-1.5-0.5c-0.4-0.4-0.6-0.8-0.6-1.4C127.3,145.1,127.8,144.4,128.9,144z M129.6,144.4c-0.9,0.4-1.4,0.9-1.4,1.6
			c0,0.4,0.1,0.7,0.4,0.9c0.3,0.2,0.6,0.3,1.1,0.3c0.4,0,0.8-0.1,1-0.3c0.3-0.2,0.4-0.5,0.4-0.9
			C131.1,145.3,130.6,144.8,129.6,144.4z M130.8,142.2c0-0.3-0.1-0.6-0.3-0.8c-0.2-0.2-0.5-0.3-0.9-0.3c-0.3,0-0.6,0.1-0.9,0.3
			c-0.2,0.2-0.4,0.5-0.4,0.8c0,0.6,0.4,1.1,1.2,1.4C130.4,143.3,130.8,142.8,130.8,142.2z"/>
	</g>
	<g>
		<path d="M204.5,143c-1,0-1.8-0.4-2.4-1.3c-0.6-0.9-0.9-2.2-0.9-3.9c0-1.8,0.3-3.2,0.9-4.2c0.6-0.9,1.5-1.4,2.6-1.4
			c2.2,0,3.3,1.8,3.3,5.4c0,1.8-0.3,3.1-0.9,4.1C206.5,142.5,205.6,143,204.5,143z M204.7,133.2c-1.5,0-2.2,1.5-2.2,4.5
			c0,2.8,0.7,4.2,2.2,4.2c1.4,0,2.2-1.4,2.2-4.3C206.8,134.7,206.1,133.2,204.7,133.2z"/>
		<path d="M211,141.2l-1.2,3.6H209l0.9-3.6H211z"/>
		<path d="M219.2,142.8h-5.9v-1.1h2.4v-8.1l-2.4,0.7v-1.1l3.6-1.1v9.6h2.4V142.8z"/>
		<path d="M227.1,142.8h-6.3v-1.1l3.1-3.1c0.8-0.8,1.3-1.4,1.7-1.9s0.5-1.1,0.5-1.7c0-0.6-0.2-1.1-0.5-1.4c-0.3-0.3-0.8-0.5-1.5-0.5
			c-0.9,0-1.8,0.4-2.7,1.2v-1.3c0.8-0.6,1.8-1,2.9-1c0.9,0,1.7,0.3,2.2,0.8s0.8,1.2,0.8,2c0,0.7-0.2,1.3-0.6,2c-0.4,0.6-1,1.4-2,2.4
			l-2.4,2.4v0h4.9V142.8z"/>
		<path d="M229.4,142.6v-1.3c0.7,0.5,1.4,0.7,2.2,0.7c0.7,0,1.3-0.2,1.8-0.6s0.7-1,0.7-1.7c0-0.7-0.2-1.2-0.7-1.6s-1.1-0.6-2-0.6
			c-0.3,0-0.8,0-1.6,0.1v-5.2h5.1v1.1h-3.9v3.1c0.3,0,0.6,0,0.9,0c1.1,0,2,0.3,2.6,0.8c0.6,0.6,0.9,1.3,0.9,2.3c0,1-0.3,1.8-1,2.4
			s-1.6,0.9-2.7,0.9C230.6,143,229.9,142.8,229.4,142.6z"/>
	</g>
	<g>
		<path d="M131.9,173.4h-4.1v-0.7h1.7V167l-1.7,0.5v-0.8l2.5-0.8v6.8h1.6V173.4z"/>
	</g>
	<g>
		<path d="M131.6,177.2v0.8c-0.4-0.2-0.8-0.3-1.2-0.3c-0.7,0-1.2,0.3-1.6,0.9c-0.4,0.6-0.6,1.4-0.6,2.3h0c0.3-0.7,0.9-1,1.7-1
			c0.6,0,1.1,0.2,1.5,0.6c0.4,0.4,0.6,1,0.6,1.6c0,0.7-0.2,1.3-0.6,1.8c-0.4,0.5-1,0.7-1.6,0.7c-0.7,0-1.3-0.3-1.7-0.9
			c-0.4-0.6-0.6-1.4-0.6-2.5c0-1.3,0.3-2.3,0.8-3.1c0.5-0.8,1.3-1.1,2.2-1.1C130.9,176.9,131.3,177,131.6,177.2z M129.8,180.5
			c-0.4,0-0.8,0.1-1.1,0.4s-0.4,0.6-0.4,1c0,0.5,0.1,0.9,0.4,1.3c0.3,0.4,0.6,0.5,1.1,0.5c0.4,0,0.8-0.2,1-0.5
			c0.3-0.3,0.4-0.7,0.4-1.2c0-0.5-0.1-0.9-0.4-1.2S130.2,180.5,129.8,180.5z"/>
	</g>
	<g>
		<path d="M204.5,179.3c-1,0-1.8-0.4-2.4-1.3c-0.6-0.9-0.9-2.2-0.9-3.9c0-1.8,0.3-3.2,0.9-4.2c0.6-0.9,1.5-1.4,2.6-1.4
			c2.2,0,3.3,1.8,3.3,5.4c0,1.8-0.3,3.1-0.9,4.1C206.5,178.9,205.6,179.3,204.5,179.3z M204.7,169.6c-1.5,0-2.2,1.5-2.2,4.5
			c0,2.8,0.7,4.2,2.2,4.2c1.4,0,2.2-1.4,2.2-4.3C206.8,171,206.1,169.6,204.7,169.6z"/>
	</g>
	<g>
		<path d="M210.5,177.5l-1.2,3.6h-0.9l0.9-3.6H210.5z"/>
	</g>
	<g>
		<path d="M219.5,179.2h-5.9v-1.1h2.4V170l-2.4,0.7v-1.1l3.6-1.1v9.6h2.4V179.2z"/>
		<path d="M227.3,168.8v1.1c-0.5-0.3-1.1-0.4-1.7-0.4c-0.9,0-1.7,0.4-2.2,1.2c-0.6,0.8-0.8,1.9-0.8,3.3h0c0.5-1,1.3-1.5,2.4-1.5
			c0.9,0,1.6,0.3,2.2,0.9s0.8,1.4,0.8,2.4c0,1-0.3,1.9-0.9,2.5c-0.6,0.6-1.4,1-2.4,1c-1.1,0-1.9-0.4-2.5-1.3s-0.9-2-0.9-3.5
			c0-1.8,0.4-3.3,1.2-4.4c0.8-1.1,1.8-1.6,3.1-1.6C226.3,168.5,226.8,168.6,227.3,168.8z M224.6,173.6c-0.6,0-1.1,0.2-1.5,0.6
			c-0.4,0.4-0.6,0.9-0.6,1.5c0,0.7,0.2,1.3,0.6,1.8s0.9,0.8,1.5,0.8c0.6,0,1.1-0.2,1.5-0.7c0.4-0.4,0.6-1,0.6-1.7
			c0-0.7-0.2-1.3-0.5-1.7C225.8,173.9,225.3,173.6,224.6,173.6z"/>
	</g>
	<g>
		<path d="M230.6,167.2c-0.2,0-0.4-0.1-0.5-0.2s-0.2-0.3-0.2-0.5c0-0.2,0.1-0.4,0.2-0.5c0.1-0.1,0.3-0.2,0.5-0.2
			c0.2,0,0.4,0.1,0.5,0.2s0.2,0.3,0.2,0.5c0,0.2-0.1,0.4-0.2,0.5S230.8,167.2,230.6,167.2z"/>
	</g>
	<g>
		<path d="M234.2,168.8v1.1c-0.5-0.3-1.1-0.4-1.7-0.4c-0.9,0-1.7,0.4-2.2,1.2c-0.6,0.8-0.8,1.9-0.8,3.3h0c0.5-1,1.3-1.5,2.4-1.5
			c0.9,0,1.6,0.3,2.2,0.9s0.8,1.4,0.8,2.4c0,1-0.3,1.9-0.9,2.5c-0.6,0.6-1.4,1-2.4,1c-1.1,0-1.9-0.4-2.5-1.3s-0.9-2-0.9-3.5
			c0-1.8,0.4-3.3,1.2-4.4c0.8-1.1,1.8-1.6,3.1-1.6C233.2,168.5,233.8,168.6,234.2,168.8z M231.6,173.6c-0.6,0-1.1,0.2-1.5,0.6
			c-0.4,0.4-0.6,0.9-0.6,1.5c0,0.7,0.2,1.3,0.6,1.8s0.9,0.8,1.5,0.8c0.6,0,1.1-0.2,1.5-0.7c0.4-0.4,0.6-1,0.6-1.7
			c0-0.7-0.2-1.3-0.5-1.7C232.8,173.9,232.3,173.6,231.6,173.6z"/>
	</g>
	<g>
		<path d="M131.9,209.2h-4.1v-0.7h1.7v-5.7l-1.7,0.5v-0.8l2.5-0.8v6.8h1.6V209.2z"/>
	</g>
	<g>
		<path d="M127.6,220.2v-0.9c0.5,0.3,1,0.5,1.5,0.5s0.9-0.1,1.3-0.4c0.3-0.3,0.5-0.7,0.5-1.2c0-0.5-0.2-0.9-0.5-1.1
			c-0.3-0.3-0.8-0.4-1.4-0.4c-0.2,0-0.6,0-1.1,0.1v-3.7h3.5v0.8h-2.8v2.1c0.2,0,0.4,0,0.6,0c0.8,0,1.4,0.2,1.8,0.6
			c0.4,0.4,0.6,0.9,0.6,1.6c0,0.7-0.2,1.3-0.7,1.7c-0.5,0.4-1.1,0.6-1.9,0.6C128.5,220.5,128,220.4,127.6,220.2z"/>
	</g>
	<g>
		<path d="M212.1,215.3c-1,0-1.8-0.4-2.4-1.3c-0.6-0.9-0.9-2.2-0.9-3.9c0-1.8,0.3-3.2,0.9-4.2s1.5-1.4,2.6-1.4
			c2.2,0,3.3,1.8,3.3,5.4c0,1.8-0.3,3.1-0.9,4.1C214.1,214.9,213.2,215.3,212.1,215.3z M212.3,205.5c-1.5,0-2.2,1.5-2.2,4.5
			c0,2.8,0.7,4.2,2.2,4.2c1.4,0,2.2-1.4,2.2-4.3C214.4,207,213.7,205.5,212.3,205.5z"/>
		<path d="M218.6,213.5l-1.2,3.6h-0.9l0.9-3.6H218.6z"/>
		<path d="M226.5,215.2h-6.3v-1.1l3.1-3.1c0.8-0.8,1.3-1.4,1.7-1.9c0.3-0.5,0.5-1.1,0.5-1.7c0-0.6-0.2-1.1-0.5-1.4
			c-0.3-0.3-0.8-0.5-1.5-0.5c-0.9,0-1.8,0.4-2.7,1.2v-1.3c0.8-0.6,1.8-1,2.9-1c0.9,0,1.7,0.3,2.2,0.8s0.8,1.2,0.8,2
			c0,0.7-0.2,1.3-0.6,2c-0.4,0.6-1,1.4-2,2.4l-2.4,2.4v0h4.9V215.2z"/>
	</g>
	<g>
		<path d="M131.9,245.2h-4.1v-0.7h1.7v-5.7l-1.7,0.5v-0.8l2.5-0.8v6.8h1.6V245.2z"/>
	</g>
	<g>
		<path d="M131.7,256.2h-4.4v-0.7l2.1-2.1c0.5-0.5,0.9-1,1.2-1.4s0.4-0.8,0.4-1.2c0-0.4-0.1-0.7-0.4-1s-0.6-0.3-1-0.3
			c-0.7,0-1.3,0.3-1.9,0.8v-0.9c0.6-0.4,1.2-0.7,2-0.7c0.7,0,1.2,0.2,1.5,0.5c0.4,0.4,0.6,0.8,0.6,1.4c0,0.5-0.1,0.9-0.4,1.4
			c-0.3,0.4-0.7,1-1.4,1.7l-1.7,1.7v0h3.4V256.2z"/>
	</g>
	<g>
		<path d="M212.1,251.3c-1,0-1.8-0.4-2.4-1.3c-0.6-0.9-0.9-2.2-0.9-3.9c0-1.8,0.3-3.2,0.9-4.2s1.5-1.4,2.6-1.4
			c2.2,0,3.3,1.8,3.3,5.4c0,1.8-0.3,3.1-0.9,4.1C214.1,250.9,213.2,251.3,212.1,251.3z M212.3,241.5c-1.5,0-2.2,1.5-2.2,4.5
			c0,2.8,0.7,4.2,2.2,4.2c1.4,0,2.2-1.4,2.2-4.3C214.4,243,213.7,241.5,212.3,241.5z"/>
		<path d="M218.6,249.5l-1.2,3.6h-0.9l0.9-3.6H218.6z"/>
		<path d="M220.7,250.9v-1.3c0.7,0.5,1.4,0.7,2.2,0.7c0.7,0,1.3-0.2,1.8-0.6c0.5-0.4,0.7-1,0.7-1.7c0-0.7-0.2-1.2-0.7-1.6
			c-0.5-0.4-1.1-0.6-2-0.6c-0.3,0-0.8,0-1.6,0.1v-5.2h5.1v1.1h-3.9v3.1c0.3,0,0.6,0,0.9,0c1.1,0,2,0.3,2.6,0.8
			c0.6,0.6,0.9,1.3,0.9,2.3c0,1-0.3,1.8-1,2.4c-0.7,0.6-1.6,0.9-2.7,0.9C221.9,251.3,221.2,251.2,220.7,250.9z"/>
	</g>
	<g>
		<path d="M127.5,277v-0.9c0.5,0.4,1.1,0.6,1.7,0.6c0.5,0,0.9-0.1,1.2-0.4c0.3-0.3,0.5-0.6,0.5-1c0-1-0.7-1.4-2-1.4h-0.6v-0.7h0.6
			c1.2,0,1.8-0.4,1.8-1.3c0-0.8-0.5-1.2-1.4-1.2c-0.5,0-1,0.2-1.5,0.5v-0.8c0.5-0.3,1-0.4,1.7-0.4c0.6,0,1.1,0.2,1.5,0.5
			c0.4,0.3,0.6,0.7,0.6,1.3c0,1-0.5,1.6-1.5,1.9v0c0.5,0.1,0.9,0.2,1.3,0.6s0.5,0.7,0.5,1.2c0,0.7-0.2,1.2-0.7,1.6
			c-0.5,0.4-1.1,0.6-1.9,0.6C128.4,277.4,127.9,277.2,127.5,277z"/>
	</g>
	<g>
		<path d="M132.1,286.3h-0.9v1.9h-0.8v-1.9h-3.4v-0.5l3.3-4.8h1v4.7h0.9V286.3z M130.3,285.6v-3.2c0-0.2,0-0.5,0-0.8h0
			c0,0.1-0.1,0.3-0.3,0.6l-2.3,3.4H130.3z"/>
	</g>
	<g>
		<path d="M208.3,283.2c-1,0-1.8-0.4-2.4-1.3c-0.6-0.9-0.9-2.2-0.9-3.9c0-1.8,0.3-3.2,0.9-4.2s1.5-1.4,2.6-1.4
			c2.2,0,3.3,1.8,3.3,5.4c0,1.8-0.3,3.1-0.9,4.1C210.3,282.7,209.4,283.2,208.3,283.2z M208.5,273.4c-1.5,0-2.2,1.5-2.2,4.5
			c0,2.8,0.7,4.2,2.2,4.2c1.4,0,2.2-1.4,2.2-4.3C210.6,274.9,209.9,273.4,208.5,273.4z"/>
		<path d="M214.8,281.3l-1.2,3.6h-0.9l0.9-3.6H214.8z"/>
		<path d="M223.1,272.9L219,283h-1.2l3.9-9.4h-5.3v-1.1h6.7V272.9z"/>
		<path d="M225.1,282.7v-1.3c0.7,0.5,1.4,0.7,2.2,0.7c0.7,0,1.3-0.2,1.8-0.6c0.5-0.4,0.7-1,0.7-1.7c0-0.7-0.2-1.2-0.7-1.6
			c-0.5-0.4-1.1-0.6-2-0.6c-0.3,0-0.8,0-1.6,0.1v-5.2h5.1v1.1h-3.9v3.1c0.3,0,0.6,0,0.9,0c1.1,0,2,0.3,2.6,0.8
			c0.6,0.6,0.9,1.3,0.9,2.3c0,1-0.3,1.8-1,2.4c-0.7,0.6-1.6,0.9-2.7,0.9C226.3,283.2,225.6,283,225.1,282.7z"/>
	</g>
	<line class="st0" x1="104.4" y1="18" x2="265.4" y2="18"/>
	<line class="st0" x1="165.4" y1="0" x2="164.9" y2="303.5"/>
	<line class="st1" x1="123.4" y1="31" x2="135.4" y2="31"/>
	<line class="st1" x1="123.4" y1="67.5" x2="135.4" y2="67.5"/>
	<line class="st1" x1="123.4" y1="103.5" x2="135.4" y2="103.5"/>
	<line class="st1" x1="126.4" y1="138.5" x2="133.9" y2="138.5"/>
	<line class="st1" x1="126.4" y1="175.5" x2="133.9" y2="175.5"/>
	<line class="st1" x1="126.4" y1="211.5" x2="133.9" y2="211.5"/>
	<line class="st1" x1="126.4" y1="247.5" x2="133.9" y2="247.5"/>
	<line class="st1" x1="126.4" y1="279.5" x2="133.9" y2="279.5"/>
</g>
<g>
	<path d="M5.8,323.5H3.4v7.5h-1v-7.5H0v-0.9h5.8V323.5z"/>
	<path d="M10,331h-1v-0.9h0c-0.4,0.7-1,1.1-1.8,1.1c-0.6,0-1.1-0.2-1.4-0.5s-0.5-0.7-0.5-1.3c0-1.1,0.7-1.8,2-2l1.8-0.3
		c0-1-0.4-1.5-1.2-1.5c-0.7,0-1.4,0.2-2,0.7v-1c0.6-0.4,1.3-0.6,2-0.6c1.4,0,2.1,0.7,2.1,2.2V331z M9.1,328l-1.4,0.2
		c-0.4,0.1-0.8,0.2-1,0.3s-0.3,0.4-0.3,0.8c0,0.3,0.1,0.5,0.3,0.7s0.5,0.3,0.8,0.3c0.5,0,0.9-0.2,1.2-0.5s0.5-0.8,0.5-1.3V328z"/>
	<path d="M12.8,330.1L12.8,330.1l0,0.9h-1v-8.9h1v3.9h0c0.5-0.8,1.2-1.2,2.1-1.2c0.8,0,1.4,0.3,1.8,0.8s0.7,1.3,0.7,2.2
		c0,1-0.2,1.8-0.7,2.4s-1.2,0.9-2,0.9C13.8,331.1,13.2,330.8,12.8,330.1z M12.8,327.7v0.8c0,0.5,0.2,0.9,0.5,1.3s0.7,0.5,1.2,0.5
		c0.6,0,1-0.2,1.4-0.7s0.5-1.1,0.5-1.9c0-0.7-0.2-1.2-0.5-1.6s-0.7-0.6-1.3-0.6c-0.6,0-1,0.2-1.3,0.6S12.8,327.1,12.8,327.7z"/>
	<path d="M19.9,331h-1v-8.9h1V331z"/>
	<path d="M26.6,328.2h-4.2c0,0.7,0.2,1.2,0.5,1.5s0.8,0.5,1.4,0.5c0.7,0,1.3-0.2,1.9-0.7v0.9c-0.5,0.4-1.2,0.6-2.1,0.6
		c-0.8,0-1.5-0.3-2-0.8s-0.7-1.3-0.7-2.3c0-0.9,0.3-1.7,0.8-2.3s1.2-0.9,2-0.9s1.4,0.3,1.8,0.8s0.6,1.2,0.6,2.1V328.2z M25.7,327.4
		c0-0.6-0.1-1-0.4-1.3s-0.6-0.5-1.1-0.5c-0.5,0-0.8,0.2-1.2,0.5s-0.5,0.7-0.6,1.3H25.7z"/>
	<path d="M36,331H31v-0.9l2.4-2.5c0.6-0.6,1.1-1.1,1.3-1.6s0.4-0.9,0.4-1.3c0-0.5-0.1-0.9-0.4-1.1s-0.7-0.4-1.2-0.4
		c-0.8,0-1.5,0.3-2.2,1v-1c0.7-0.5,1.4-0.8,2.3-0.8c0.8,0,1.3,0.2,1.8,0.6s0.6,1,0.6,1.6c0,0.5-0.1,1.1-0.4,1.6s-0.8,1.2-1.6,1.9
		l-1.9,1.9v0H36V331z"/>
	<path d="M38.2,331.1c-0.2,0-0.3-0.1-0.5-0.2s-0.2-0.3-0.2-0.5s0.1-0.3,0.2-0.5s0.3-0.2,0.5-0.2c0.2,0,0.3,0.1,0.5,0.2
		s0.2,0.3,0.2,0.5s-0.1,0.3-0.2,0.5S38.4,331.1,38.2,331.1z"/>
	<path d="M40.2,330.7v-1c0.6,0.5,1.2,0.7,1.9,0.7c0.6,0,1.1-0.1,1.4-0.4s0.5-0.7,0.5-1.2c0-1.1-0.8-1.6-2.3-1.6h-0.7v-0.8h0.7
		c1.4,0,2.1-0.5,2.1-1.5c0-1-0.5-1.4-1.6-1.4c-0.6,0-1.1,0.2-1.7,0.6v-0.9c0.5-0.3,1.2-0.5,1.9-0.5c0.7,0,1.3,0.2,1.7,0.6
		s0.6,0.9,0.6,1.4c0,1.1-0.6,1.8-1.7,2.1v0c0.6,0.1,1.1,0.3,1.4,0.6s0.5,0.8,0.5,1.4c0,0.8-0.3,1.4-0.8,1.8s-1.3,0.7-2.1,0.7
		C41.3,331.1,40.7,331,40.2,330.7z"/>
	<path d="M47.3,326.2c-0.2,0-0.3-0.1-0.5-0.2s-0.2-0.3-0.2-0.5s0.1-0.3,0.2-0.5s0.3-0.2,0.5-0.2c0.2,0,0.3,0.1,0.5,0.2
		s0.2,0.3,0.2,0.5s-0.1,0.3-0.2,0.5S47.4,326.2,47.3,326.2z M47.3,331.1c-0.2,0-0.3-0.1-0.5-0.2s-0.2-0.3-0.2-0.5s0.1-0.3,0.2-0.5
		s0.3-0.2,0.5-0.2c0.2,0,0.3,0.1,0.5,0.2s0.2,0.3,0.2,0.5s-0.1,0.3-0.2,0.5S47.4,331.1,47.3,331.1z"/>
	<path d="M52.5,330.7v-1.2c0.1,0.1,0.3,0.2,0.5,0.3s0.4,0.2,0.6,0.2s0.4,0.1,0.6,0.1s0.4,0.1,0.6,0.1c0.6,0,1.1-0.1,1.4-0.3
		s0.4-0.5,0.4-1c0-0.2,0-0.4-0.1-0.6s-0.2-0.3-0.4-0.5s-0.4-0.3-0.6-0.4s-0.5-0.3-0.8-0.4c-0.3-0.1-0.6-0.3-0.8-0.5
		s-0.5-0.3-0.7-0.5s-0.3-0.4-0.4-0.6s-0.2-0.5-0.2-0.8c0-0.4,0.1-0.7,0.3-1s0.4-0.5,0.7-0.7s0.6-0.3,0.9-0.4s0.7-0.1,1.1-0.1
		c0.8,0,1.4,0.1,1.8,0.3v1.1c-0.5-0.3-1.1-0.5-1.9-0.5c-0.2,0-0.4,0-0.6,0.1s-0.4,0.1-0.6,0.2s-0.3,0.2-0.4,0.4s-0.2,0.4-0.2,0.6
		c0,0.2,0,0.4,0.1,0.6s0.2,0.3,0.4,0.4s0.3,0.3,0.6,0.4s0.5,0.3,0.8,0.4c0.3,0.1,0.6,0.3,0.9,0.5s0.5,0.3,0.7,0.5s0.4,0.4,0.5,0.7
		s0.2,0.5,0.2,0.8c0,0.4-0.1,0.8-0.2,1.1s-0.4,0.5-0.7,0.7s-0.6,0.3-1,0.4s-0.7,0.1-1.1,0.1c-0.1,0-0.3,0-0.5,0s-0.4-0.1-0.6-0.1
		s-0.4-0.1-0.6-0.2S52.7,330.7,52.5,330.7z"/>
	<path d="M61.7,331.1c-0.9,0-1.6-0.3-2.1-0.8s-0.8-1.3-0.8-2.2c0-1,0.3-1.8,0.8-2.4s1.3-0.8,2.2-0.8c0.9,0,1.6,0.3,2.1,0.8
		s0.8,1.3,0.8,2.3c0,1-0.3,1.7-0.8,2.3S62.6,331.1,61.7,331.1z M61.8,325.7c-0.6,0-1.1,0.2-1.5,0.6s-0.5,1-0.5,1.7
		c0,0.7,0.2,1.3,0.5,1.7s0.8,0.6,1.5,0.6c0.6,0,1.1-0.2,1.4-0.6s0.5-1,0.5-1.7c0-0.8-0.2-1.3-0.5-1.7S62.4,325.7,61.8,325.7z"/>
	<path d="M74.7,331h-1v-3.4c0-0.7-0.1-1.1-0.3-1.4s-0.5-0.4-1-0.4c-0.4,0-0.8,0.2-1,0.6s-0.4,0.8-0.4,1.3v3.4h-1v-3.6
		c0-1.2-0.5-1.8-1.4-1.8c-0.4,0-0.8,0.2-1,0.5s-0.4,0.8-0.4,1.4v3.4h-1v-6h1v0.9h0c0.4-0.7,1-1.1,1.9-1.1c0.4,0,0.8,0.1,1.1,0.3
		s0.5,0.5,0.6,0.9c0.4-0.8,1.1-1.2,2-1.2c1.3,0,2,0.8,2,2.4V331z"/>
	<path d="M81.4,328.2h-4.2c0,0.7,0.2,1.2,0.5,1.5s0.8,0.5,1.4,0.5c0.7,0,1.3-0.2,1.9-0.7v0.9c-0.5,0.4-1.2,0.6-2.1,0.6
		c-0.8,0-1.5-0.3-2-0.8s-0.7-1.3-0.7-2.3c0-0.9,0.3-1.7,0.8-2.3s1.2-0.9,2-0.9s1.4,0.3,1.8,0.8s0.6,1.2,0.6,2.1V328.2z M80.4,327.4
		c0-0.6-0.1-1-0.4-1.3s-0.6-0.5-1.1-0.5c-0.5,0-0.8,0.2-1.2,0.5s-0.5,0.7-0.6,1.3H80.4z"/>
	<path d="M90.2,330.7c-0.5,0.3-1,0.4-1.6,0.4c-0.9,0-1.5-0.3-2.1-0.8s-0.8-1.3-0.8-2.2c0-1,0.3-1.8,0.8-2.4s1.3-0.9,2.3-0.9
		c0.5,0,1,0.1,1.4,0.3v1c-0.4-0.3-0.9-0.5-1.4-0.5c-0.6,0-1.1,0.2-1.5,0.7s-0.6,1-0.6,1.7c0,0.7,0.2,1.3,0.6,1.7s0.9,0.6,1.5,0.6
		c0.5,0,1-0.2,1.5-0.5V330.7z"/>
	<path d="M94.2,331.1c-0.9,0-1.6-0.3-2.1-0.8s-0.8-1.3-0.8-2.2c0-1,0.3-1.8,0.8-2.4s1.3-0.8,2.2-0.8c0.9,0,1.6,0.3,2.1,0.8
		s0.8,1.3,0.8,2.3c0,1-0.3,1.7-0.8,2.3S95.1,331.1,94.2,331.1z M94.2,325.7c-0.6,0-1.1,0.2-1.5,0.6s-0.5,1-0.5,1.7
		c0,0.7,0.2,1.3,0.5,1.7s0.8,0.6,1.5,0.6c0.6,0,1.1-0.2,1.4-0.6s0.5-1,0.5-1.7c0-0.8-0.2-1.3-0.5-1.7S94.9,325.7,94.2,325.7z"/>
	<path d="M107.2,331h-1v-3.4c0-0.7-0.1-1.1-0.3-1.4s-0.5-0.4-1-0.4c-0.4,0-0.8,0.2-1,0.6s-0.4,0.8-0.4,1.3v3.4h-1v-3.6
		c0-1.2-0.5-1.8-1.4-1.8c-0.4,0-0.8,0.2-1,0.5s-0.4,0.8-0.4,1.4v3.4h-1v-6h1v0.9h0c0.4-0.7,1-1.1,1.9-1.1c0.4,0,0.8,0.1,1.1,0.3
		s0.5,0.5,0.6,0.9c0.4-0.8,1.1-1.2,2-1.2c1.3,0,2,0.8,2,2.4V331z"/>
	<path d="M117.5,331h-1v-3.4c0-0.7-0.1-1.1-0.3-1.4s-0.5-0.4-1-0.4c-0.4,0-0.8,0.2-1,0.6s-0.4,0.8-0.4,1.3v3.4h-1v-3.6
		c0-1.2-0.5-1.8-1.4-1.8c-0.4,0-0.8,0.2-1,0.5s-0.4,0.8-0.4,1.4v3.4h-1v-6h1v0.9h0c0.4-0.7,1-1.1,1.9-1.1c0.4,0,0.8,0.1,1.1,0.3
		s0.5,0.5,0.6,0.9c0.4-0.8,1.1-1.2,2-1.2c1.3,0,2,0.8,2,2.4V331z"/>
	<path d="M121.9,331.1c-0.9,0-1.6-0.3-2.1-0.8s-0.8-1.3-0.8-2.2c0-1,0.3-1.8,0.8-2.4s1.3-0.8,2.2-0.8c0.9,0,1.6,0.3,2.1,0.8
		s0.8,1.3,0.8,2.3c0,1-0.3,1.7-0.8,2.3S122.8,331.1,121.9,331.1z M121.9,325.7c-0.6,0-1.1,0.2-1.5,0.6s-0.5,1-0.5,1.7
		c0,0.7,0.2,1.3,0.5,1.7s0.8,0.6,1.5,0.6c0.6,0,1.1-0.2,1.4-0.6s0.5-1,0.5-1.7c0-0.8-0.2-1.3-0.5-1.7S122.6,325.7,121.9,325.7z"/>
	<path d="M131.4,331h-1v-3.4c0-1.3-0.5-1.9-1.4-1.9c-0.5,0-0.9,0.2-1.2,0.5s-0.5,0.8-0.5,1.4v3.4h-1v-6h1v1h0c0.5-0.8,1.1-1.1,2-1.1
		c0.7,0,1.2,0.2,1.5,0.6s0.5,1,0.5,1.8V331z"/>
	<path d="M139.4,323c-0.2-0.1-0.4-0.2-0.6-0.2c-0.7,0-1,0.4-1,1.3v0.9h1.4v0.8h-1.4v5.2h-1v-5.2h-1V325h1v-1c0-0.6,0.2-1.1,0.5-1.5
		s0.8-0.5,1.4-0.5c0.3,0,0.5,0,0.7,0.1V323z"/>
	<path d="M143.3,326c-0.2-0.1-0.4-0.2-0.7-0.2c-0.4,0-0.8,0.2-1,0.6s-0.4,0.9-0.4,1.6v3.1h-1v-6h1v1.2h0c0.1-0.4,0.3-0.8,0.6-1
		s0.6-0.4,0.9-0.4c0.3,0,0.4,0,0.6,0.1V326z"/>
	<path d="M148.7,331h-1v-0.9h0c-0.4,0.7-1,1.1-1.8,1.1c-0.6,0-1.1-0.2-1.4-0.5s-0.5-0.7-0.5-1.3c0-1.1,0.7-1.8,2-2l1.8-0.3
		c0-1-0.4-1.5-1.2-1.5c-0.7,0-1.4,0.2-2,0.7v-1c0.6-0.4,1.3-0.6,2-0.6c1.4,0,2.1,0.7,2.1,2.2V331z M147.7,328l-1.4,0.2
		c-0.4,0.1-0.8,0.2-1,0.3s-0.3,0.4-0.3,0.8c0,0.3,0.1,0.5,0.3,0.7s0.5,0.3,0.8,0.3c0.5,0,0.9-0.2,1.2-0.5s0.5-0.8,0.5-1.3V328z"/>
	<path d="M154.6,330.7c-0.5,0.3-1,0.4-1.6,0.4c-0.9,0-1.5-0.3-2.1-0.8s-0.8-1.3-0.8-2.2c0-1,0.3-1.8,0.8-2.4s1.3-0.9,2.3-0.9
		c0.5,0,1,0.1,1.4,0.3v1c-0.4-0.3-0.9-0.5-1.4-0.5c-0.6,0-1.1,0.2-1.5,0.7s-0.6,1-0.6,1.7c0,0.7,0.2,1.3,0.6,1.7s0.9,0.6,1.5,0.6
		c0.5,0,1-0.2,1.5-0.5V330.7z"/>
	<path d="M158.8,330.9c-0.2,0.1-0.5,0.2-0.9,0.2c-1.1,0-1.6-0.6-1.6-1.8v-3.6h-1V325h1v-1.5l1-0.3v1.8h1.5v0.8h-1.5v3.4
		c0,0.4,0.1,0.7,0.2,0.9s0.4,0.3,0.7,0.3c0.2,0,0.5-0.1,0.6-0.2V330.9z"/>
	<path d="M160.6,323.5c-0.2,0-0.3-0.1-0.4-0.2s-0.2-0.3-0.2-0.4s0.1-0.3,0.2-0.4s0.3-0.2,0.4-0.2c0.2,0,0.3,0.1,0.4,0.2
		s0.2,0.3,0.2,0.4c0,0.2-0.1,0.3-0.2,0.4S160.8,323.5,160.6,323.5z M161.1,331h-1v-6h1V331z"/>
	<path d="M165.5,331.1c-0.9,0-1.6-0.3-2.1-0.8s-0.8-1.3-0.8-2.2c0-1,0.3-1.8,0.8-2.4s1.3-0.8,2.2-0.8c0.9,0,1.6,0.3,2.1,0.8
		s0.8,1.3,0.8,2.3c0,1-0.3,1.7-0.8,2.3S166.4,331.1,165.5,331.1z M165.6,325.7c-0.6,0-1.1,0.2-1.5,0.6s-0.5,1-0.5,1.7
		c0,0.7,0.2,1.3,0.5,1.7s0.8,0.6,1.5,0.6c0.6,0,1.1-0.2,1.4-0.6s0.5-1,0.5-1.7c0-0.8-0.2-1.3-0.5-1.7S166.2,325.7,165.6,325.7z"/>
	<path d="M175,331h-1v-3.4c0-1.3-0.5-1.9-1.4-1.9c-0.5,0-0.9,0.2-1.2,0.5s-0.5,0.8-0.5,1.4v3.4h-1v-6h1v1h0c0.5-0.8,1.1-1.1,2-1.1
		c0.7,0,1.2,0.2,1.5,0.6s0.5,1,0.5,1.8V331z"/>
	<path d="M176.5,330.8v-1c0.5,0.4,1.1,0.6,1.7,0.6c0.8,0,1.3-0.3,1.3-0.8c0-0.2,0-0.3-0.1-0.4s-0.2-0.2-0.3-0.3s-0.3-0.2-0.4-0.2
		s-0.3-0.1-0.5-0.2c-0.3-0.1-0.5-0.2-0.7-0.3s-0.4-0.2-0.5-0.4s-0.2-0.3-0.3-0.5s-0.1-0.4-0.1-0.6c0-0.3,0.1-0.5,0.2-0.7
		s0.3-0.4,0.5-0.5s0.5-0.3,0.7-0.3s0.6-0.1,0.9-0.1c0.5,0,1,0.1,1.4,0.3v1c-0.4-0.3-0.9-0.4-1.5-0.4c-0.2,0-0.3,0-0.5,0.1
		s-0.3,0.1-0.4,0.2s-0.2,0.2-0.2,0.3s-0.1,0.2-0.1,0.3c0,0.2,0,0.3,0.1,0.4s0.1,0.2,0.2,0.3s0.2,0.2,0.4,0.2s0.3,0.1,0.5,0.2
		c0.3,0.1,0.5,0.2,0.7,0.3s0.4,0.2,0.5,0.4s0.3,0.3,0.3,0.5s0.1,0.4,0.1,0.6c0,0.3-0.1,0.6-0.2,0.8s-0.3,0.4-0.5,0.5
		s-0.5,0.3-0.8,0.3s-0.6,0.1-0.9,0.1C177.5,331.1,176.9,331,176.5,330.8z"/>
	<path d="M189.5,331h-1v-0.9h0c-0.4,0.7-1,1.1-1.8,1.1c-0.6,0-1.1-0.2-1.4-0.5s-0.5-0.7-0.5-1.3c0-1.1,0.7-1.8,2-2l1.8-0.3
		c0-1-0.4-1.5-1.2-1.5c-0.7,0-1.4,0.2-2,0.7v-1c0.6-0.4,1.3-0.6,2-0.6c1.4,0,2.1,0.7,2.1,2.2V331z M188.5,328l-1.4,0.2
		c-0.4,0.1-0.8,0.2-1,0.3s-0.3,0.4-0.3,0.8c0,0.3,0.1,0.5,0.3,0.7s0.5,0.3,0.8,0.3c0.5,0,0.9-0.2,1.2-0.5s0.5-0.8,0.5-1.3V328z"/>
	<path d="M196.3,331h-1v-3.4c0-1.3-0.5-1.9-1.4-1.9c-0.5,0-0.9,0.2-1.2,0.5s-0.5,0.8-0.5,1.4v3.4h-1v-6h1v1h0c0.5-0.8,1.1-1.1,2-1.1
		c0.7,0,1.2,0.2,1.5,0.6s0.5,1,0.5,1.8V331z"/>
	<path d="M203.2,331h-1v-1h0c-0.4,0.8-1.1,1.2-2.1,1.2c-0.8,0-1.4-0.3-1.8-0.8s-0.7-1.3-0.7-2.2c0-1,0.3-1.8,0.8-2.4s1.2-0.9,2-0.9
		c0.8,0,1.4,0.3,1.8,1h0v-3.7h1V331z M202.3,328.3v-0.9c0-0.5-0.2-0.9-0.5-1.2s-0.7-0.5-1.2-0.5c-0.6,0-1,0.2-1.4,0.6
		s-0.5,1-0.5,1.8c0,0.7,0.2,1.2,0.5,1.6s0.8,0.6,1.3,0.6c0.5,0,1-0.2,1.3-0.6S202.3,328.9,202.3,328.3z"/>
	<path d="M211.2,330.9c-0.2,0.1-0.5,0.2-0.9,0.2c-1.1,0-1.6-0.6-1.6-1.8v-3.6h-1V325h1v-1.5l1-0.3v1.8h1.5v0.8h-1.5v3.4
		c0,0.4,0.1,0.7,0.2,0.9s0.4,0.3,0.7,0.3c0.2,0,0.5-0.1,0.6-0.2V330.9z"/>
	<path d="M217.5,331h-1v-3.5c0-1.3-0.5-1.9-1.4-1.9c-0.5,0-0.9,0.2-1.2,0.5s-0.5,0.8-0.5,1.4v3.4h-1v-8.9h1v3.9h0
		c0.5-0.8,1.1-1.1,2-1.1c1.4,0,2,0.8,2,2.4V331z"/>
	<path d="M224.1,328.2h-4.2c0,0.7,0.2,1.2,0.5,1.5s0.8,0.5,1.4,0.5c0.7,0,1.3-0.2,1.9-0.7v0.9c-0.5,0.4-1.2,0.6-2.1,0.6
		c-0.8,0-1.5-0.3-2-0.8s-0.7-1.3-0.7-2.3c0-0.9,0.3-1.7,0.8-2.3s1.2-0.9,2-0.9s1.4,0.3,1.8,0.8s0.6,1.2,0.6,2.1V328.2z M223.2,327.4
		c0-0.6-0.1-1-0.4-1.3s-0.6-0.5-1.1-0.5c-0.5,0-0.8,0.2-1.2,0.5s-0.5,0.7-0.6,1.3H223.2z"/>
	<path d="M226.1,323.5c-0.2,0-0.3-0.1-0.4-0.2s-0.2-0.3-0.2-0.4s0.1-0.3,0.2-0.4s0.3-0.2,0.4-0.2c0.2,0,0.3,0.1,0.4,0.2
		s0.2,0.3,0.2,0.4c0,0.2-0.1,0.3-0.2,0.4S226.3,323.5,226.1,323.5z M226.6,331h-1v-6h1V331z"/>
	<path d="M231.6,326c-0.2-0.1-0.4-0.2-0.7-0.2c-0.4,0-0.8,0.2-1,0.6s-0.4,0.9-0.4,1.6v3.1h-1v-6h1v1.2h0c0.1-0.4,0.3-0.8,0.6-1
		s0.6-0.4,0.9-0.4c0.3,0,0.4,0,0.6,0.1V326z"/>
	<path d="M240.8,328.2h-4.2c0,0.7,0.2,1.2,0.5,1.5s0.8,0.5,1.4,0.5c0.7,0,1.3-0.2,1.9-0.7v0.9c-0.5,0.4-1.2,0.6-2.1,0.6
		c-0.8,0-1.5-0.3-2-0.8s-0.7-1.3-0.7-2.3c0-0.9,0.3-1.7,0.8-2.3s1.2-0.9,2-0.9s1.4,0.3,1.8,0.8s0.6,1.2,0.6,2.1V328.2z M239.8,327.4
		c0-0.6-0.1-1-0.4-1.3s-0.6-0.5-1.1-0.5c-0.5,0-0.8,0.2-1.2,0.5s-0.5,0.7-0.6,1.3H239.8z"/>
	<path d="M247.4,333.8h-1V330h0c-0.4,0.8-1.1,1.2-2.1,1.2c-0.8,0-1.4-0.3-1.8-0.8s-0.7-1.3-0.7-2.2c0-1,0.3-1.8,0.8-2.4
		s1.2-0.9,2-0.9c0.8,0,1.4,0.3,1.8,1h0V325h1V333.8z M246.4,328.3v-0.9c0-0.5-0.2-0.9-0.5-1.2s-0.7-0.5-1.2-0.5
		c-0.6,0-1,0.2-1.4,0.6s-0.5,1-0.5,1.8c0,0.7,0.2,1.2,0.5,1.6s0.7,0.6,1.3,0.6c0.6,0,1-0.2,1.3-0.6S246.4,328.9,246.4,328.3z"/>
	<path d="M254.2,331h-1v-0.9h0c-0.4,0.7-1,1.1-1.9,1.1c-1.4,0-2.1-0.9-2.1-2.6V325h1v3.4c0,1.3,0.5,1.9,1.5,1.9
		c0.5,0,0.9-0.2,1.2-0.5s0.5-0.8,0.5-1.4V325h1V331z"/>
	<path d="M256.6,323.5c-0.2,0-0.3-0.1-0.4-0.2s-0.2-0.3-0.2-0.4s0.1-0.3,0.2-0.4s0.3-0.2,0.4-0.2c0.2,0,0.3,0.1,0.4,0.2
		s0.2,0.3,0.2,0.4c0,0.2-0.1,0.3-0.2,0.4S256.8,323.5,256.6,323.5z M257.1,331h-1v-6h1V331z"/>
	<path d="M263.7,325l-2.4,6h-0.9l-2.3-6h1.1l1.5,4.4c0.1,0.3,0.2,0.6,0.2,0.8h0c0-0.3,0.1-0.6,0.2-0.8l1.6-4.4H263.7z"/>
	<path d="M268.8,331h-1v-0.9h0c-0.4,0.7-1,1.1-1.8,1.1c-0.6,0-1.1-0.2-1.4-0.5s-0.5-0.7-0.5-1.3c0-1.1,0.7-1.8,2-2l1.8-0.3
		c0-1-0.4-1.5-1.2-1.5c-0.7,0-1.4,0.2-2,0.7v-1c0.6-0.4,1.3-0.6,2-0.6c1.4,0,2.1,0.7,2.1,2.2V331z M267.9,328l-1.4,0.2
		c-0.4,0.1-0.8,0.2-1,0.3s-0.3,0.4-0.3,0.8c0,0.3,0.1,0.5,0.3,0.7s0.5,0.3,0.8,0.3c0.5,0,0.9-0.2,1.2-0.5s0.5-0.8,0.5-1.3V328z"/>
	<path d="M271.6,331h-1v-8.9h1V331z"/>
	<path d="M278.4,328.2h-4.2c0,0.7,0.2,1.2,0.5,1.5s0.8,0.5,1.4,0.5c0.7,0,1.3-0.2,1.9-0.7v0.9c-0.5,0.4-1.2,0.6-2.1,0.6
		c-0.8,0-1.5-0.3-2-0.8s-0.7-1.3-0.7-2.3c0-0.9,0.3-1.7,0.8-2.3s1.2-0.9,2-0.9s1.4,0.3,1.8,0.8s0.6,1.2,0.6,2.1V328.2z M277.4,327.4
		c0-0.6-0.1-1-0.4-1.3s-0.6-0.5-1.1-0.5c-0.5,0-0.8,0.2-1.2,0.5s-0.5,0.7-0.6,1.3H277.4z"/>
	<path d="M284.8,331h-1v-3.4c0-1.3-0.5-1.9-1.4-1.9c-0.5,0-0.9,0.2-1.2,0.5s-0.5,0.8-0.5,1.4v3.4h-1v-6h1v1h0c0.5-0.8,1.1-1.1,2-1.1
		c0.7,0,1.2,0.2,1.5,0.6s0.5,1,0.5,1.8V331z"/>
	<path d="M289.4,330.9c-0.2,0.1-0.5,0.2-0.9,0.2c-1.1,0-1.6-0.6-1.6-1.8v-3.6h-1V325h1v-1.5l1-0.3v1.8h1.5v0.8h-1.5v3.4
		c0,0.4,0.1,0.7,0.2,0.9s0.4,0.3,0.7,0.3c0.2,0,0.5-0.1,0.6-0.2V330.9z"/>
	<path d="M299.1,331h-1v-1h0c-0.4,0.8-1.1,1.2-2.1,1.2c-0.8,0-1.4-0.3-1.8-0.8s-0.7-1.3-0.7-2.2c0-1,0.3-1.8,0.8-2.4s1.2-0.9,2-0.9
		c0.8,0,1.4,0.3,1.8,1h0v-3.7h1V331z M298.1,328.3v-0.9c0-0.5-0.2-0.9-0.5-1.2s-0.7-0.5-1.2-0.5c-0.6,0-1,0.2-1.4,0.6
		s-0.5,1-0.5,1.8c0,0.7,0.2,1.2,0.5,1.6s0.8,0.6,1.3,0.6c0.5,0,1-0.2,1.3-0.6S298.1,328.9,298.1,328.3z"/>
	<path d="M305.9,328.2h-4.2c0,0.7,0.2,1.2,0.5,1.5s0.8,0.5,1.4,0.5c0.7,0,1.3-0.2,1.9-0.7v0.9c-0.5,0.4-1.2,0.6-2.1,0.6
		c-0.8,0-1.5-0.3-2-0.8s-0.7-1.3-0.7-2.3c0-0.9,0.3-1.7,0.8-2.3s1.2-0.9,2-0.9s1.4,0.3,1.8,0.8s0.6,1.2,0.6,2.1V328.2z M304.9,327.4
		c0-0.6-0.1-1-0.4-1.3s-0.6-0.5-1.1-0.5c-0.5,0-0.8,0.2-1.2,0.5s-0.5,0.7-0.6,1.3H304.9z"/>
	<path d="M311.4,330.7c-0.5,0.3-1,0.4-1.6,0.4c-0.9,0-1.5-0.3-2.1-0.8s-0.8-1.3-0.8-2.2c0-1,0.3-1.8,0.8-2.4s1.3-0.9,2.3-0.9
		c0.5,0,1,0.1,1.4,0.3v1c-0.4-0.3-0.9-0.5-1.4-0.5c-0.6,0-1.1,0.2-1.5,0.7s-0.6,1-0.6,1.7c0,0.7,0.2,1.3,0.6,1.7s0.9,0.6,1.5,0.6
		c0.5,0,1-0.2,1.5-0.5V330.7z"/>
	<path d="M313.3,323.5c-0.2,0-0.3-0.1-0.4-0.2s-0.2-0.3-0.2-0.4s0.1-0.3,0.2-0.4s0.3-0.2,0.4-0.2c0.2,0,0.3,0.1,0.4,0.2
		s0.2,0.3,0.2,0.4c0,0.2-0.1,0.3-0.2,0.4S313.5,323.5,313.3,323.5z M313.8,331h-1v-6h1V331z"/>
	<path d="M324.3,331h-1v-3.4c0-0.7-0.1-1.1-0.3-1.4s-0.5-0.4-1-0.4c-0.4,0-0.8,0.2-1,0.6s-0.4,0.8-0.4,1.3v3.4h-1v-3.6
		c0-1.2-0.5-1.8-1.4-1.8c-0.4,0-0.8,0.2-1,0.5s-0.4,0.8-0.4,1.4v3.4h-1v-6h1v0.9h0c0.4-0.7,1-1.1,1.9-1.1c0.4,0,0.8,0.1,1.1,0.3
		s0.5,0.5,0.6,0.9c0.4-0.8,1.1-1.2,2-1.2c1.3,0,2,0.8,2,2.4V331z"/>
	<path d="M330.4,331h-1v-0.9h0c-0.4,0.7-1,1.1-1.8,1.1c-0.6,0-1.1-0.2-1.4-0.5s-0.5-0.7-0.5-1.3c0-1.1,0.7-1.8,2-2l1.8-0.3
		c0-1-0.4-1.5-1.2-1.5c-0.7,0-1.4,0.2-2,0.7v-1c0.6-0.4,1.3-0.6,2-0.6c1.4,0,2.1,0.7,2.1,2.2V331z M329.4,328l-1.4,0.2
		c-0.4,0.1-0.8,0.2-1,0.3s-0.3,0.4-0.3,0.8c0,0.3,0.1,0.5,0.3,0.7s0.5,0.3,0.8,0.3c0.5,0,0.9-0.2,1.2-0.5s0.5-0.8,0.5-1.3V328z"/>
	<path d="M333.2,331h-1v-8.9h1V331z"/>
	<path d="M341.4,323c-0.2-0.1-0.4-0.2-0.6-0.2c-0.7,0-1,0.4-1,1.3v0.9h1.4v0.8h-1.4v5.2h-1v-5.2h-1V325h1v-1c0-0.6,0.2-1.1,0.5-1.5
		s0.8-0.5,1.4-0.5c0.3,0,0.5,0,0.7,0.1V323z"/>
	<path d="M344.7,331.1c-0.9,0-1.6-0.3-2.1-0.8s-0.8-1.3-0.8-2.2c0-1,0.3-1.8,0.8-2.4s1.3-0.8,2.2-0.8c0.9,0,1.6,0.3,2.1,0.8
		s0.8,1.3,0.8,2.3c0,1-0.3,1.7-0.8,2.3S345.6,331.1,344.7,331.1z M344.7,325.7c-0.6,0-1.1,0.2-1.5,0.6s-0.5,1-0.5,1.7
		c0,0.7,0.2,1.3,0.5,1.7s0.8,0.6,1.5,0.6c0.6,0,1.1-0.2,1.4-0.6s0.5-1,0.5-1.7c0-0.8-0.2-1.3-0.5-1.7S345.3,325.7,344.7,325.7z"/>
	<path d="M352.3,326c-0.2-0.1-0.4-0.2-0.7-0.2c-0.4,0-0.8,0.2-1,0.6s-0.4,0.9-0.4,1.6v3.1h-1v-6h1v1.2h0c0.1-0.4,0.3-0.8,0.6-1
		s0.6-0.4,0.9-0.4c0.3,0,0.4,0,0.6,0.1V326z"/>
	<path d="M361.8,331h-1v-3.4c0-0.7-0.1-1.1-0.3-1.4s-0.5-0.4-1-0.4c-0.4,0-0.8,0.2-1,0.6s-0.4,0.8-0.4,1.3v3.4h-1v-3.6
		c0-1.2-0.5-1.8-1.4-1.8c-0.4,0-0.8,0.2-1,0.5s-0.4,0.8-0.4,1.4v3.4h-1v-6h1v0.9h0c0.4-0.7,1-1.1,1.9-1.1c0.4,0,0.8,0.1,1.1,0.3
		s0.5,0.5,0.6,0.9c0.4-0.8,1.1-1.2,2-1.2c1.3,0,2,0.8,2,2.4V331z"/>
	<path d="M363.3,330.8v-1c0.5,0.4,1.1,0.6,1.7,0.6c0.8,0,1.3-0.3,1.3-0.8c0-0.2,0-0.3-0.1-0.4s-0.2-0.2-0.3-0.3s-0.3-0.2-0.4-0.2
		s-0.3-0.1-0.5-0.2c-0.3-0.1-0.5-0.2-0.7-0.3s-0.4-0.2-0.5-0.4s-0.2-0.3-0.3-0.5s-0.1-0.4-0.1-0.6c0-0.3,0.1-0.5,0.2-0.7
		s0.3-0.4,0.5-0.5s0.5-0.3,0.7-0.3s0.6-0.1,0.9-0.1c0.5,0,1,0.1,1.4,0.3v1c-0.4-0.3-0.9-0.4-1.5-0.4c-0.2,0-0.3,0-0.5,0.1
		s-0.3,0.1-0.4,0.2s-0.2,0.2-0.2,0.3s-0.1,0.2-0.1,0.3c0,0.2,0,0.3,0.1,0.4s0.1,0.2,0.2,0.3s0.2,0.2,0.4,0.2s0.3,0.1,0.5,0.2
		c0.3,0.1,0.5,0.2,0.7,0.3s0.4,0.2,0.5,0.4s0.3,0.3,0.3,0.5s0.1,0.4,0.1,0.6c0,0.3-0.1,0.6-0.2,0.8s-0.3,0.4-0.5,0.5
		s-0.5,0.3-0.8,0.3s-0.6,0.1-0.9,0.1C364.3,331.1,363.8,331,363.3,330.8z"/>
	<path d="M369.1,331.1c-0.2,0-0.3-0.1-0.5-0.2s-0.2-0.3-0.2-0.5s0.1-0.3,0.2-0.5s0.3-0.2,0.5-0.2c0.2,0,0.3,0.1,0.5,0.2
		s0.2,0.3,0.2,0.5s-0.1,0.3-0.2,0.5S369.3,331.1,369.1,331.1z"/>
</g>
</svg>
