<?xml version="1.0" encoding="utf-8"?>
<!-- Generator: Adobe Illustrator 21.1.0, SVG Export Plug-In . SVG Version: 6.00 Build 0)  -->
<svg version="1.1" id="Слой_1" xmlns="http://www.w3.org/2000/svg" xmlns:xlink="http://www.w3.org/1999/xlink" x="0px" y="0px"
	 width="848px" height="157px" viewBox="0 0 848 157" style="enable-background:new 0 0 848 157;" xml:space="preserve">
<style type="text/css">
	.st0{fill:none;stroke:#000000;stroke-width:0.797;stroke-miterlimit:10;}
	.st1{font-family:'MyriadPro-Regular';}
	.st2{font-size:36.6184px;}
</style>
<polyline points="27.8,74.7 12.1,80.4 27.8,86 21.5,80.4 "/>
<polyline points="823.2,86 839,80.4 823.2,74.7 829.5,80.4 "/>
<line class="st0" x1="21.5" y1="80.4" x2="829.5" y2="80.4"/>
<line class="st0" x1="425.5" y1="70" x2="425.5" y2="90.7"/>
<line class="st0" x1="528.9" y1="70" x2="528.9" y2="90.7"/>
<line class="st0" x1="632.3" y1="70" x2="632.3" y2="90.7"/>
<line class="st0" x1="735.6" y1="70" x2="735.6" y2="90.7"/>
<line class="st0" x1="322.2" y1="70" x2="322.2" y2="90.7"/>
<line class="st0" x1="218.8" y1="70" x2="218.8" y2="90.7"/>
<line class="st0" x1="115.4" y1="70" x2="115.4" y2="90.7"/>
<polyline points="337.9,23 322.2,28.7 337.9,34.3 331.6,28.7 "/>
<line class="st0" x1="331.6" y1="28.7" x2="425.5" y2="28.7"/>
<polyline points="513.1,34.3 528.9,28.7 513.1,23 519.4,28.7 "/>
<line class="st0" x1="425.5" y1="28.7" x2="519.4" y2="28.7"/>
<line class="st0" x1="425.5" y1="39" x2="425.5" y2="18.3"/>
<text transform="matrix(1 0 0 1 12.0005 39.54)" class="st1 st2">negative numbers</text>
<text transform="matrix(1 0 0 1 569.8203 39.54)" class="st1 st2">positive numbers</text>
<text transform="matrix(1 0 0 1 92.5601 134.7471)" class="st1 st2">-3</text>
<text transform="matrix(1 0 0 1 198.7534 134.7471)" class="st1 st2">-2</text>
<text transform="matrix(1 0 0 1 304.9468 134.7471)" class="st1 st2">-1</text>
<text transform="matrix(1 0 0 1 417.2432 134.7471)" class="st1 st2">0</text>
<text transform="matrix(1 0 0 1 518.5537 134.7471)" class="st1 st2">1</text>
<text transform="matrix(1 0 0 1 624.7471 134.7471)" class="st1 st2">2</text>
<text transform="matrix(1 0 0 1 728.499 134.7471)" class="st1 st2">3</text>
</svg>
