<?xml version="1.0" encoding="utf-8"?>
<!-- Generator: Adobe Illustrator 21.1.0, SVG Export Plug-In . SVG Version: 6.00 Build 0)  -->
<svg version="1.1" id="Слой_1" xmlns="http://www.w3.org/2000/svg" xmlns:xlink="http://www.w3.org/1999/xlink" x="0px" y="0px"
	 width="615.2px" height="254.9px" viewBox="0 0 615.2 254.9" style="enable-background:new 0 0 615.2 254.9;" xml:space="preserve"
	>
<style type="text/css">
	.st0{font-family:'MyriadPro-Regular';}
	.st1{font-size:23px;}
	.st2{font-size:33.3557px;}
	.st3{font-size:31.2323px;}
	.st4{fill:none;stroke:#000000;stroke-width:1.5;stroke-miterlimit:10;}
	.st5{font-size:34.722px;}
	.st6{font-size:34.72px;}
	.st7{font-size:53.541px;}
</style>
<text transform="matrix(1 0 0 1 86.651 247.1393)" class="st0 st1">Table 2.2: Table of signs for adding two numbers.</text>
<g>
	<text transform="matrix(1 0 0 1 375.3696 31.215)" class="st0 st2">+</text>
	<text transform="matrix(1 0 0 1 219.1382 31.7463)" class="st0 st3">a</text>
	<text transform="matrix(1 0 0 1 286.0639 31.7463)" class="st0 st3">b</text>
	<text transform="matrix(1 0 0 1 350.0161 31.7463)" class="st0 st3">a</text>
	<text transform="matrix(1 0 0 1 406.5322 31.7463)" class="st0 st3">b</text>
	<line class="st4" x1="195.6" y1="3.3" x2="440.6" y2="3.3"/>
	<line class="st4" x1="195.6" y1="43.3" x2="441.6" y2="43.3"/>
	<line class="st4" x1="195.6" y1="3.3" x2="195.6" y2="43.3"/>
	<line class="st4" x1="263.6" y1="3.3" x2="263.6" y2="43.3"/>
	<line class="st4" x1="329.6" y1="3.3" x2="329.6" y2="43.3"/>
	<line class="st4" x1="441.1" y1="3.2" x2="441.1" y2="43.3"/>
	<g>
		<text transform="matrix(1 0 0 1 216.1636 79.9894)" class="st0 st5">+</text>
		<text transform="matrix(1 0 0 1 288.9966 79.9894)" class="st0 st5">+</text>
		<text transform="matrix(1 0 0 1 376.2002 79.9894)" class="st0 st5">+</text>
		<text transform="matrix(1 0 0 1 216.1636 123.2375)" class="st0 st5">+</text>
		<text transform="matrix(1 0 0 1 288.9966 165.7072)" class="st0 st5">+</text>
		<text transform="matrix(1 0 0 1 380.2431 168.2307)" class="st0 st6">?</text>
		<text transform="matrix(1 0 0 1 291.1255 128.7609)" class="st0 st7">-</text>
		<text transform="matrix(1 0 0 1 291.1255 212.7092)" class="st0 st7">-</text>
		<text transform="matrix(1 0 0 1 380.2431 125.7609)" class="st0 st6">?</text>
		<text transform="matrix(1 0 0 1 216.1645 171.2307)" class="st0 st7">-</text>
		<text transform="matrix(1 0 0 1 216.1645 212.7092)" class="st0 st7">-</text>
		<text transform="matrix(1 0 0 1 378.2431 212.2307)" class="st0 st7">-</text>
		<line class="st4" x1="195.6" y1="52.3" x2="440.6" y2="52.3"/>
		<line class="st4" x1="195.6" y1="93.3" x2="440.6" y2="93.3"/>
		<line class="st4" x1="195.6" y1="134.3" x2="440.6" y2="134.3"/>
		<line class="st4" x1="195.6" y1="176.3" x2="440.6" y2="176.3"/>
		<line class="st4" x1="195.6" y1="217.3" x2="440.6" y2="217.3"/>
		<line class="st4" x1="195.6" y1="52.3" x2="195.6" y2="217.3"/>
		<line class="st4" x1="263.6" y1="52.3" x2="263.6" y2="217.3"/>
		<line class="st4" x1="329.6" y1="52.3" x2="329.6" y2="217.3"/>
		<line class="st4" x1="440.6" y1="52.3" x2="440.6" y2="217.3"/>
	</g>
</g>
</svg>
