<?xml version="1.0" encoding="utf-8"?>
<!-- Generator: Adobe Illustrator 21.1.0, SVG Export Plug-In . SVG Version: 6.00 Build 0)  -->
<svg version="1.1" id="Слой_1" xmlns="http://www.w3.org/2000/svg" xmlns:xlink="http://www.w3.org/1999/xlink" x="0px" y="0px"
	 width="74.8px" height="64px" viewBox="0 0 74.8 64" style="enable-background:new 0 0 74.8 64;" xml:space="preserve">
<style type="text/css">
	.st0{font-family:'SegoeUI';}
	.st1{font-size:9.9626px;}
	.st2{fill:none;stroke:#000000;stroke-width:0.5;stroke-miterlimit:10;}
</style>
<text transform="matrix(1 0 0 1 8.1451 8.659)" class="st0 st1">a</text>
<text transform="matrix(1 0 0 1 28.6651 8.659)" class="st0 st1">b</text>
<text transform="matrix(1 0 0 1 47.0249 8.659)" class="st0 st1">a</text>
<text transform="matrix(1 0 0 1 54.585 8.659)" class="st0 st1">+</text>
<text transform="matrix(1 0 0 1 64.5454 8.659)" class="st0 st1">b</text>
<text transform="matrix(1 0 0 1 6.9902 23.4187)" class="st0 st1">+</text>
<text transform="matrix(1 0 0 1 27.1499 23.4187)" class="st0 st1">+</text>
<text transform="matrix(1 0 0 1 54.3896 23.4187)" class="st0 st1">+</text>
<text transform="matrix(1 0 0 1 6.9902 35.7781)" class="st0 st1">+</text>
<text transform="matrix(1 0 0 1 29.3101 35.7781)" class="st0 st1">-</text>
<text transform="matrix(1 0 0 1 56.6699 35.7781)" class="st0 st1">?</text>
<text transform="matrix(1 0 0 1 9.27 48.1384)" class="st0 st1">-</text>
<text transform="matrix(1 0 0 1 27.1499 48.1384)" class="st0 st1">+</text>
<text transform="matrix(1 0 0 1 56.6699 48.1384)" class="st0 st1">?</text>
<text transform="matrix(1 0 0 1 9.27 60.4988)" class="st0 st1">-</text>
<text transform="matrix(1 0 0 1 29.3101 60.4988)" class="st0 st1">-</text>
<text transform="matrix(1 0 0 1 56.3896 60.4988)" class="st0 st1">-</text>
<line class="st2" x1="0.5" y1="0.3" x2="74.6" y2="0.3"/>
<line class="st2" x1="0.5" y1="12.3" x2="74.6" y2="12.3"/>
<line class="st2" x1="0.4" y1="14.8" x2="74.6" y2="14.8"/>
<line class="st2" x1="0.4" y1="26.8" x2="74.6" y2="26.8"/>
<line class="st2" x1="0.4" y1="39.8" x2="74.6" y2="39.8"/>
<line class="st2" x1="0.4" y1="51.8" x2="74.6" y2="51.8"/>
<line class="st2" x1="0.4" y1="63.8" x2="74.6" y2="63.8"/>
<line class="st2" x1="0.3" y1="14.8" x2="0.3" y2="63.8"/>
<line class="st2" x1="21.3" y1="14.8" x2="21.3" y2="63.8"/>
<line class="st2" x1="41.3" y1="14.8" x2="41.3" y2="63.8"/>
<line class="st2" x1="74.4" y1="14.8" x2="74.4" y2="63.8"/>
<line class="st2" x1="0.5" y1="0.2" x2="0.5" y2="12.2"/>
<line class="st2" x1="21.1" y1="0.3" x2="21.1" y2="12.3"/>
<line class="st2" x1="41.1" y1="0.3" x2="41.1" y2="12.3"/>
<line class="st2" x1="74.6" y1="0.3" x2="74.6" y2="12.3"/>
</svg>
