<?xml version="1.0" encoding="utf-8"?>
<!-- Generator: Adobe Illustrator 21.1.0, SVG Export Plug-In . SVG Version: 6.00 Build 0)  -->
<svg version="1.1" id="Слой_1" xmlns="http://www.w3.org/2000/svg" xmlns:xlink="http://www.w3.org/1999/xlink" x="0px" y="0px"
	 width="340.2px" height="49.8px" viewBox="0 0 340.2 49.8" style="enable-background:new 0 0 340.2 49.8;" xml:space="preserve">
<style type="text/css">
	.st0{fill:none;stroke:#000000;stroke-width:0.797;stroke-miterlimit:10;}
	.st1{font-family:'SegoeUI';}
	.st2{font-size:14.944px;}
</style>
<polyline points="6.5,26.4 0,28.7 6.5,31 3.9,28.7 "/>
<polyline points="333.7,31 340.2,28.7 333.7,26.4 336.3,28.7 "/>
<line class="st0" x1="3.9" y1="28.7" x2="336.3" y2="28.7"/>
<text transform="matrix(1 0 0 1 121.2601 46.0029)"><tspan x="0" y="0" class="st1 st2">-</tspan><tspan x="6" y="0" class="st1 st2">1</tspan></text>
<text transform="matrix(1 0 0 1 78.7406 46.0029)"><tspan x="0" y="0" class="st1 st2">-</tspan><tspan x="6" y="0" class="st1 st2">2</tspan></text>
<g>
	<path d="M40.4,41.5v1h-3.7v-1H40.4z"/>
	<path d="M41.8,44.5c0.4,0.2,1.2,0.6,2.2,0.6c1.7,0,2.2-1.1,2.2-1.9c0-1.4-1.2-1.9-2.5-1.9h-0.7v-1h0.7c1,0,2.2-0.5,2.2-1.6
		c0-0.8-0.5-1.5-1.7-1.5c-0.8,0-1.5,0.3-1.9,0.6l-0.3-1c0.5-0.4,1.5-0.7,2.5-0.7c1.9,0,2.8,1.1,2.8,2.3c0,1-0.6,1.9-1.8,2.3v0
		c1.2,0.2,2.2,1.1,2.2,2.5c0,1.6-1.2,2.9-3.5,2.9c-1.1,0-2-0.3-2.5-0.7L41.8,44.5z"/>
	<path d="M173.2,41c0,3.3-1.2,5.1-3.4,5.1c-1.9,0-3.2-1.8-3.2-5c0-3.3,1.4-5.1,3.4-5.1C172,36.1,173.2,37.9,173.2,41z M167.9,41.2
		c0,2.5,0.8,4,2,4c1.3,0,2-1.6,2-4.1c0-2.4-0.6-4-2-4C168.8,37.1,167.9,38.5,167.9,41.2z"/>
	<path d="M212.3,37.5L212.3,37.5l-1.7,0.9l-0.3-1l2.1-1.1h1.1V46h-1.3V37.5z"/>
	<path d="M252.2,46v-0.8l1-1c2.5-2.4,3.6-3.6,3.6-5.1c0-1-0.5-1.9-1.9-1.9c-0.9,0-1.6,0.4-2.1,0.8l-0.4-0.9c0.7-0.6,1.6-1,2.8-1
		c2.1,0,3,1.4,3,2.8c0,1.8-1.3,3.2-3.3,5.2l-0.8,0.7v0h4.4V46H252.2z"/>
	<path d="M295.2,44.5c0.4,0.2,1.2,0.6,2.2,0.6c1.7,0,2.2-1.1,2.2-1.9c0-1.4-1.2-1.9-2.5-1.9h-0.7v-1h0.7c1,0,2.2-0.5,2.2-1.6
		c0-0.8-0.5-1.5-1.7-1.5c-0.8,0-1.5,0.3-1.9,0.6l-0.3-1c0.5-0.4,1.5-0.7,2.5-0.7c1.9,0,2.8,1.1,2.8,2.3c0,1-0.6,1.9-1.8,2.3v0
		c1.2,0.2,2.2,1.1,2.2,2.5c0,1.6-1.2,2.9-3.5,2.9c-1.1,0-2-0.3-2.5-0.7L295.2,44.5z"/>
</g>
<line class="st0" x1="170.1" y1="24.5" x2="170.1" y2="33"/>
<line class="st0" x1="212.6" y1="24.5" x2="212.6" y2="33"/>
<line class="st0" x1="255.1" y1="24.5" x2="255.1" y2="33"/>
<line class="st0" x1="297.6" y1="24.5" x2="297.6" y2="33"/>
<line class="st0" x1="127.6" y1="24.5" x2="127.6" y2="33"/>
<line class="st0" x1="85" y1="24.5" x2="85" y2="33"/>
<line class="st0" x1="42.5" y1="24.5" x2="42.5" y2="33"/>
<polyline points="134,5.1 127.6,7.5 134,9.8 131.5,7.5 "/>
<line class="st0" x1="131.5" y1="7.5" x2="170.1" y2="7.5"/>
<polyline points="206.1,9.8 212.6,7.5 206.1,5.1 208.7,7.5 "/>
<line class="st0" x1="170.1" y1="7.5" x2="208.7" y2="7.5"/>
<line class="st0" x1="170.1" y1="11.7" x2="170.1" y2="3.2"/>
<g>
	<path d="M218.1,10L218.1,10l0,4.5h-1.2V3.6h1.2v1.3h0c0.6-1,1.4-1.5,2.6-1.5c1,0,1.7,0.3,2.3,1c0.5,0.7,0.8,1.6,0.8,2.7
		c0,1.3-0.3,2.3-0.9,3s-1.4,1.1-2.5,1.1C219.4,11.2,218.6,10.8,218.1,10z M218.1,7v1c0,0.6,0.2,1.1,0.6,1.6s0.9,0.6,1.5,0.6
		c0.7,0,1.3-0.3,1.7-0.8s0.6-1.3,0.6-2.3c0-0.8-0.2-1.5-0.6-2c-0.4-0.5-0.9-0.7-1.6-0.7c-0.7,0-1.3,0.2-1.7,0.7
		C218.3,5.6,218.1,6.2,218.1,7z"/>
	<path d="M229.2,11.2c-1.1,0-2-0.3-2.6-1c-0.7-0.7-1-1.6-1-2.8c0-1.3,0.3-2.2,1-2.9c0.7-0.7,1.6-1.1,2.8-1.1c1.1,0,2,0.3,2.6,1
		s0.9,1.6,0.9,2.9c0,1.2-0.3,2.1-1,2.9C231.2,10.9,230.3,11.2,229.2,11.2z M229.2,4.4c-0.8,0-1.4,0.3-1.8,0.8
		c-0.4,0.5-0.7,1.2-0.7,2.2c0,0.9,0.2,1.6,0.7,2.1c0.5,0.5,1.1,0.8,1.8,0.8c0.8,0,1.4-0.3,1.8-0.8s0.6-1.2,0.6-2.1
		c0-0.9-0.2-1.7-0.6-2.2S230,4.4,229.2,4.4z"/>
	<path d="M234.4,10.8V9.5c0.7,0.5,1.4,0.7,2.2,0.7c1.1,0,1.6-0.4,1.6-1.1c0-0.2,0-0.4-0.1-0.5s-0.2-0.3-0.4-0.4
		c-0.2-0.1-0.3-0.2-0.5-0.3c-0.2-0.1-0.4-0.2-0.7-0.3c-0.3-0.1-0.6-0.3-0.9-0.4c-0.3-0.1-0.5-0.3-0.6-0.5c-0.2-0.2-0.3-0.4-0.4-0.6
		c-0.1-0.2-0.1-0.5-0.1-0.8c0-0.4,0.1-0.7,0.2-0.9c0.2-0.3,0.4-0.5,0.6-0.7s0.6-0.3,0.9-0.4s0.7-0.1,1.1-0.1c0.6,0,1.2,0.1,1.7,0.3
		V5c-0.5-0.4-1.2-0.5-1.9-0.5c-0.2,0-0.4,0-0.6,0.1c-0.2,0.1-0.3,0.1-0.5,0.2s-0.2,0.2-0.3,0.3c-0.1,0.1-0.1,0.3-0.1,0.4
		c0,0.2,0,0.4,0.1,0.5c0.1,0.1,0.2,0.2,0.3,0.4c0.1,0.1,0.3,0.2,0.5,0.3c0.2,0.1,0.4,0.2,0.7,0.3c0.3,0.1,0.6,0.3,0.9,0.4
		s0.5,0.3,0.7,0.5c0.2,0.2,0.3,0.4,0.4,0.6c0.1,0.2,0.2,0.5,0.2,0.8c0,0.4-0.1,0.7-0.2,1s-0.4,0.5-0.7,0.7c-0.3,0.2-0.6,0.3-0.9,0.4
		c-0.4,0.1-0.7,0.1-1.1,0.1C235.6,11.2,235,11.1,234.4,10.8z"/>
	<path d="M241.8,1.7c-0.2,0-0.4-0.1-0.5-0.2c-0.2-0.1-0.2-0.3-0.2-0.6s0.1-0.4,0.2-0.6c0.2-0.1,0.3-0.2,0.5-0.2
		c0.2,0,0.4,0.1,0.6,0.2s0.2,0.3,0.2,0.6c0,0.2-0.1,0.4-0.2,0.5S242,1.7,241.8,1.7z M242.4,11.1h-1.2V3.6h1.2V11.1z"/>
	<path d="M248.3,11c-0.3,0.2-0.7,0.2-1.1,0.2c-1.3,0-2-0.7-2-2.2V4.6H244v-1h1.3V1.8l1.2-0.4v2.2h1.9v1h-1.9v4.2
		c0,0.5,0.1,0.9,0.3,1.1c0.2,0.2,0.5,0.3,0.8,0.3c0.3,0,0.6-0.1,0.8-0.2V11z"/>
	<path d="M250.5,1.7c-0.2,0-0.4-0.1-0.5-0.2c-0.2-0.1-0.2-0.3-0.2-0.6s0.1-0.4,0.2-0.6c0.2-0.1,0.3-0.2,0.5-0.2
		c0.2,0,0.4,0.1,0.6,0.2s0.2,0.3,0.2,0.6c0,0.2-0.1,0.4-0.2,0.5S250.8,1.7,250.5,1.7z M251.1,11.1h-1.2V3.6h1.2V11.1z"/>
	<path d="M259.5,3.6l-3,7.5h-1.2l-2.8-7.5h1.3l1.9,5.4c0.1,0.4,0.2,0.7,0.3,1h0c0-0.4,0.1-0.7,0.2-1l2-5.5H259.5z"/>
	<path d="M266.7,7.6h-5.3c0,0.8,0.2,1.5,0.7,1.9c0.4,0.5,1,0.7,1.8,0.7c0.8,0,1.6-0.3,2.3-0.8v1.1c-0.7,0.5-1.5,0.7-2.6,0.7
		c-1.1,0-1.9-0.3-2.5-1c-0.6-0.7-0.9-1.6-0.9-2.9c0-1.2,0.3-2.1,1-2.8c0.7-0.7,1.5-1.1,2.5-1.1s1.7,0.3,2.3,0.9
		c0.5,0.6,0.8,1.5,0.8,2.6V7.6z M265.5,6.6c0-0.7-0.2-1.2-0.5-1.6c-0.3-0.4-0.8-0.6-1.4-0.6c-0.6,0-1,0.2-1.4,0.6
		c-0.4,0.4-0.6,0.9-0.7,1.6H265.5z"/>
	<path d="M279.6,11.1h-1.2V6.8c0-1.6-0.6-2.4-1.7-2.4c-0.6,0-1.1,0.2-1.5,0.7c-0.4,0.5-0.6,1-0.6,1.7v4.3h-1.2V3.6h1.2v1.2h0
		c0.6-0.9,1.4-1.4,2.5-1.4c0.8,0,1.4,0.3,1.9,0.8c0.4,0.5,0.6,1.3,0.6,2.3V11.1z"/>
	<path d="M287.9,11.1h-1.2V9.9h0c-0.5,0.9-1.3,1.4-2.3,1.4c-1.8,0-2.7-1.1-2.7-3.2V3.6h1.2v4.3c0,1.6,0.6,2.4,1.8,2.4
		c0.6,0,1.1-0.2,1.4-0.6s0.6-1,0.6-1.7V3.6h1.2V11.1z"/>
	<path d="M300.9,11.1h-1.2V6.8c0-0.8-0.1-1.4-0.4-1.8c-0.3-0.4-0.7-0.6-1.3-0.6c-0.5,0-0.9,0.2-1.3,0.7c-0.4,0.5-0.5,1-0.5,1.7v4.3
		H295V6.6c0-1.5-0.6-2.2-1.7-2.2c-0.5,0-1,0.2-1.3,0.7c-0.3,0.4-0.5,1-0.5,1.7v4.3h-1.2V3.6h1.2v1.2h0c0.5-0.9,1.3-1.4,2.3-1.4
		c0.5,0,1,0.1,1.3,0.4c0.4,0.3,0.6,0.7,0.8,1.1c0.6-1,1.4-1.5,2.5-1.5c1.6,0,2.5,1,2.5,3V11.1z"/>
	<path d="M304.4,10L304.4,10l0,1.1h-1.2V0h1.2v4.9h0c0.6-1,1.4-1.5,2.6-1.5c1,0,1.7,0.3,2.3,1c0.5,0.7,0.8,1.6,0.8,2.7
		c0,1.3-0.3,2.3-0.9,3s-1.4,1.1-2.5,1.1C305.7,11.2,304.9,10.8,304.4,10z M304.4,7v1c0,0.6,0.2,1.1,0.6,1.6s0.9,0.6,1.5,0.6
		c0.7,0,1.3-0.3,1.7-0.8s0.6-1.3,0.6-2.3c0-0.8-0.2-1.5-0.6-2c-0.4-0.5-0.9-0.7-1.6-0.7c-0.7,0-1.3,0.2-1.7,0.7
		C304.6,5.6,304.4,6.2,304.4,7z"/>
	<path d="M318.4,7.6h-5.3c0,0.8,0.2,1.5,0.7,1.9c0.4,0.5,1,0.7,1.8,0.7c0.8,0,1.6-0.3,2.3-0.8v1.1c-0.7,0.5-1.5,0.7-2.6,0.7
		c-1.1,0-1.9-0.3-2.5-1c-0.6-0.7-0.9-1.6-0.9-2.9c0-1.2,0.3-2.1,1-2.8c0.7-0.7,1.5-1.1,2.5-1.1s1.7,0.3,2.3,0.9
		c0.5,0.6,0.8,1.5,0.8,2.6V7.6z M317.1,6.6c0-0.7-0.2-1.2-0.5-1.6c-0.3-0.4-0.8-0.6-1.4-0.6c-0.6,0-1,0.2-1.4,0.6
		c-0.4,0.4-0.6,0.9-0.7,1.6H317.1z"/>
	<path d="M324.1,4.8c-0.2-0.2-0.5-0.2-0.9-0.2c-0.5,0-0.9,0.2-1.3,0.7c-0.3,0.5-0.5,1.1-0.5,2v3.8h-1.2V3.6h1.2v1.5h0
		c0.2-0.5,0.4-0.9,0.8-1.2c0.4-0.3,0.7-0.4,1.2-0.4c0.3,0,0.5,0,0.7,0.1V4.8z"/>
	<path d="M324.9,10.8V9.5c0.7,0.5,1.4,0.7,2.2,0.7c1.1,0,1.6-0.4,1.6-1.1c0-0.2,0-0.4-0.1-0.5s-0.2-0.3-0.4-0.4
		c-0.2-0.1-0.3-0.2-0.5-0.3c-0.2-0.1-0.4-0.2-0.7-0.3c-0.3-0.1-0.6-0.3-0.9-0.4c-0.3-0.1-0.5-0.3-0.6-0.5c-0.2-0.2-0.3-0.4-0.4-0.6
		c-0.1-0.2-0.1-0.5-0.1-0.8c0-0.4,0.1-0.7,0.2-0.9c0.2-0.3,0.4-0.5,0.6-0.7s0.6-0.3,0.9-0.4s0.7-0.1,1.1-0.1c0.6,0,1.2,0.1,1.7,0.3
		V5c-0.5-0.4-1.2-0.5-1.9-0.5c-0.2,0-0.4,0-0.6,0.1c-0.2,0.1-0.3,0.1-0.5,0.2s-0.2,0.2-0.3,0.3c-0.1,0.1-0.1,0.3-0.1,0.4
		c0,0.2,0,0.4,0.1,0.5c0.1,0.1,0.2,0.2,0.3,0.4c0.1,0.1,0.3,0.2,0.5,0.3c0.2,0.1,0.4,0.2,0.7,0.3c0.3,0.1,0.6,0.3,0.9,0.4
		s0.5,0.3,0.7,0.5c0.2,0.2,0.3,0.4,0.4,0.6c0.1,0.2,0.2,0.5,0.2,0.8c0,0.4-0.1,0.7-0.2,1s-0.4,0.5-0.7,0.7c-0.3,0.2-0.6,0.3-0.9,0.4
		c-0.4,0.1-0.7,0.1-1.1,0.1C326.1,11.2,325.4,11.1,324.9,10.8z"/>
</g>
<g>
	<path d="M10.7,11.1H9.5V6.8c0-1.6-0.6-2.4-1.7-2.4c-0.6,0-1.1,0.2-1.5,0.7c-0.4,0.5-0.6,1-0.6,1.7v4.3H4.5V3.6h1.2v1.2h0
		c0.6-0.9,1.4-1.4,2.5-1.4c0.8,0,1.4,0.3,1.9,0.8s0.6,1.3,0.6,2.3V11.1z"/>
	<path d="M18.9,7.6h-5.3c0,0.8,0.2,1.5,0.7,1.9c0.4,0.5,1,0.7,1.8,0.7c0.8,0,1.6-0.3,2.3-0.8v1.1c-0.7,0.5-1.5,0.7-2.6,0.7
		c-1.1,0-1.9-0.3-2.5-1c-0.6-0.7-0.9-1.6-0.9-2.9c0-1.2,0.3-2.1,1-2.8c0.7-0.7,1.5-1.1,2.5-1.1c1,0,1.7,0.3,2.3,0.9
		C18.7,5,18.9,5.9,18.9,7V7.6z M17.7,6.6c0-0.7-0.2-1.2-0.5-1.6c-0.3-0.4-0.8-0.6-1.4-0.6c-0.6,0-1,0.2-1.4,0.6
		C14,5.4,13.8,6,13.7,6.6H17.7z"/>
	<path d="M27.1,10.5c0,2.7-1.3,4.1-3.9,4.1c-0.9,0-1.7-0.2-2.4-0.5v-1.2c0.8,0.5,1.6,0.7,2.4,0.7c1.8,0,2.8-1,2.8-2.9V9.8h0
		c-0.6,1-1.4,1.4-2.6,1.4c-0.9,0-1.7-0.3-2.2-1c-0.6-0.7-0.9-1.6-0.9-2.7c0-1.3,0.3-2.3,0.9-3s1.4-1.1,2.5-1.1c1,0,1.8,0.4,2.2,1.2
		h0v-1h1.2V10.5z M25.9,7.7V6.6c0-0.6-0.2-1.1-0.6-1.5s-0.9-0.6-1.5-0.6c-0.7,0-1.3,0.3-1.7,0.8c-0.4,0.5-0.6,1.3-0.6,2.3
		c0,0.8,0.2,1.5,0.6,2s0.9,0.7,1.6,0.7c0.7,0,1.2-0.2,1.6-0.7S25.9,8.4,25.9,7.7z"/>
	<path d="M35,11.1h-1.2V9.9h0c-0.5,0.9-1.3,1.3-2.3,1.3c-0.7,0-1.3-0.2-1.7-0.6c-0.4-0.4-0.6-0.9-0.6-1.6c0-1.4,0.8-2.2,2.5-2.4
		l2.2-0.3c0-1.3-0.5-1.9-1.5-1.9c-0.9,0-1.7,0.3-2.4,0.9V4.1c0.7-0.5,1.6-0.7,2.5-0.7c1.8,0,2.6,0.9,2.6,2.8V11.1z M33.8,7.3L32,7.5
		c-0.6,0.1-1,0.2-1.3,0.4c-0.3,0.2-0.4,0.5-0.4,1c0,0.4,0.1,0.7,0.4,0.9c0.3,0.2,0.6,0.3,1,0.3c0.6,0,1.1-0.2,1.5-0.6
		c0.4-0.4,0.6-0.9,0.6-1.6V7.3z"/>
	<path d="M40.7,11c-0.3,0.2-0.7,0.2-1.1,0.2c-1.3,0-2-0.7-2-2.2V4.6h-1.3v-1h1.3V1.8l1.2-0.4v2.2h1.9v1h-1.9v4.2
		c0,0.5,0.1,0.9,0.3,1.1c0.2,0.2,0.5,0.3,0.8,0.3c0.3,0,0.6-0.1,0.8-0.2V11z"/>
	<path d="M42.9,1.7c-0.2,0-0.4-0.1-0.5-0.2s-0.2-0.3-0.2-0.6s0.1-0.4,0.2-0.6s0.3-0.2,0.5-0.2c0.2,0,0.4,0.1,0.6,0.2
		s0.2,0.3,0.2,0.6c0,0.2-0.1,0.4-0.2,0.5S43.1,1.7,42.9,1.7z M43.5,11.1h-1.2V3.6h1.2V11.1z"/>
	<path d="M51.8,3.6l-3,7.5h-1.2l-2.8-7.5h1.3L48,9c0.1,0.4,0.2,0.7,0.3,1h0c0-0.4,0.1-0.7,0.2-1l2-5.5H51.8z"/>
	<path d="M59.1,7.6h-5.3c0,0.8,0.2,1.5,0.7,1.9c0.4,0.5,1,0.7,1.8,0.7c0.8,0,1.6-0.3,2.3-0.8v1.1c-0.7,0.5-1.5,0.7-2.6,0.7
		c-1.1,0-1.9-0.3-2.5-1c-0.6-0.7-0.9-1.6-0.9-2.9c0-1.2,0.3-2.1,1-2.8C54.2,3.8,55,3.4,56,3.4c1,0,1.7,0.3,2.3,0.9
		C58.8,5,59.1,5.9,59.1,7V7.6z M57.8,6.6c0-0.7-0.2-1.2-0.5-1.6C57,4.6,56.6,4.4,56,4.4c-0.6,0-1,0.2-1.4,0.6
		c-0.4,0.4-0.6,0.9-0.7,1.6H57.8z"/>
	<path d="M71.9,11.1h-1.2V6.8c0-1.6-0.6-2.4-1.7-2.4c-0.6,0-1.1,0.2-1.5,0.7c-0.4,0.5-0.6,1-0.6,1.7v4.3h-1.2V3.6h1.2v1.2h0
		c0.6-0.9,1.4-1.4,2.5-1.4c0.8,0,1.4,0.3,1.9,0.8s0.6,1.3,0.6,2.3V11.1z"/>
	<path d="M80.3,11.1h-1.2V9.9h0c-0.5,0.9-1.3,1.4-2.3,1.4c-1.8,0-2.7-1.1-2.7-3.2V3.6h1.2v4.3c0,1.6,0.6,2.4,1.8,2.4
		c0.6,0,1.1-0.2,1.4-0.6s0.6-1,0.6-1.7V3.6h1.2V11.1z"/>
	<path d="M93.3,11.1h-1.2V6.8c0-0.8-0.1-1.4-0.4-1.8S91,4.4,90.4,4.4c-0.5,0-0.9,0.2-1.3,0.7c-0.4,0.5-0.5,1-0.5,1.7v4.3h-1.2V6.6
		c0-1.5-0.6-2.2-1.7-2.2c-0.5,0-1,0.2-1.3,0.7c-0.3,0.4-0.5,1-0.5,1.7v4.3h-1.2V3.6h1.2v1.2h0c0.5-0.9,1.3-1.4,2.3-1.4
		c0.5,0,1,0.1,1.3,0.4s0.6,0.7,0.8,1.1c0.6-1,1.4-1.5,2.5-1.5c1.6,0,2.5,1,2.5,3V11.1z"/>
	<path d="M96.8,10L96.8,10l0,1.1h-1.2V0h1.2v4.9h0c0.6-1,1.4-1.5,2.6-1.5c1,0,1.7,0.3,2.3,1c0.5,0.7,0.8,1.6,0.8,2.7
		c0,1.3-0.3,2.3-0.9,3c-0.6,0.8-1.4,1.1-2.5,1.1C98,11.2,97.3,10.8,96.8,10z M96.8,7v1c0,0.6,0.2,1.1,0.6,1.6s0.9,0.6,1.5,0.6
		c0.7,0,1.3-0.3,1.7-0.8c0.4-0.6,0.6-1.3,0.6-2.3c0-0.8-0.2-1.5-0.6-2c-0.4-0.5-0.9-0.7-1.6-0.7c-0.7,0-1.3,0.2-1.7,0.7
		C97,5.6,96.8,6.2,96.8,7z"/>
	<path d="M110.7,7.6h-5.3c0,0.8,0.2,1.5,0.7,1.9c0.4,0.5,1,0.7,1.8,0.7c0.8,0,1.6-0.3,2.3-0.8v1.1c-0.7,0.5-1.5,0.7-2.6,0.7
		c-1.1,0-1.9-0.3-2.5-1c-0.6-0.7-0.9-1.6-0.9-2.9c0-1.2,0.3-2.1,1-2.8c0.7-0.7,1.5-1.1,2.5-1.1c1,0,1.7,0.3,2.3,0.9
		c0.5,0.6,0.8,1.5,0.8,2.6V7.6z M109.5,6.6c0-0.7-0.2-1.2-0.5-1.6c-0.3-0.4-0.8-0.6-1.4-0.6c-0.6,0-1,0.2-1.4,0.6
		c-0.4,0.4-0.6,0.9-0.7,1.6H109.5z"/>
	<path d="M116.4,4.8c-0.2-0.2-0.5-0.2-0.9-0.2c-0.5,0-0.9,0.2-1.3,0.7c-0.3,0.5-0.5,1.1-0.5,2v3.8h-1.2V3.6h1.2v1.5h0
		c0.2-0.5,0.4-0.9,0.8-1.2c0.4-0.3,0.7-0.4,1.2-0.4c0.3,0,0.5,0,0.7,0.1V4.8z"/>
	<path d="M117.2,10.8V9.5c0.7,0.5,1.4,0.7,2.2,0.7c1.1,0,1.6-0.4,1.6-1.1c0-0.2,0-0.4-0.1-0.5s-0.2-0.3-0.4-0.4s-0.3-0.2-0.5-0.3
		c-0.2-0.1-0.4-0.2-0.7-0.3c-0.3-0.1-0.6-0.3-0.9-0.4s-0.5-0.3-0.6-0.5c-0.2-0.2-0.3-0.4-0.4-0.6c-0.1-0.2-0.1-0.5-0.1-0.8
		c0-0.4,0.1-0.7,0.2-0.9s0.4-0.5,0.6-0.7s0.6-0.3,0.9-0.4c0.3-0.1,0.7-0.1,1.1-0.1c0.6,0,1.2,0.1,1.7,0.3V5
		c-0.5-0.4-1.2-0.5-1.9-0.5c-0.2,0-0.4,0-0.6,0.1c-0.2,0.1-0.3,0.1-0.5,0.2s-0.2,0.2-0.3,0.3c-0.1,0.1-0.1,0.3-0.1,0.4
		c0,0.2,0,0.4,0.1,0.5c0.1,0.1,0.2,0.2,0.3,0.4c0.1,0.1,0.3,0.2,0.5,0.3c0.2,0.1,0.4,0.2,0.7,0.3c0.3,0.1,0.6,0.3,0.9,0.4
		s0.5,0.3,0.7,0.5c0.2,0.2,0.3,0.4,0.4,0.6c0.1,0.2,0.1,0.5,0.1,0.8c0,0.4-0.1,0.7-0.2,1c-0.2,0.3-0.4,0.5-0.7,0.7
		c-0.3,0.2-0.6,0.3-0.9,0.4c-0.4,0.1-0.7,0.1-1.1,0.1C118.4,11.2,117.8,11.1,117.2,10.8z"/>
</g>
</svg>
