<?xml version="1.0" encoding="utf-8"?>
<!-- Generator: Adobe Illustrator 21.1.0, SVG Export Plug-In . SVG Version: 6.00 Build 0)  -->
<svg version="1.1" id="Слой_1" xmlns="http://www.w3.org/2000/svg" xmlns:xlink="http://www.w3.org/1999/xlink" x="0px" y="0px"
	 width="827px" height="135px" viewBox="0 0 827 135" style="enable-background:new 0 0 827 135;" xml:space="preserve">
<style type="text/css">
	.st0{fill:none;stroke:#000000;stroke-width:0.797;stroke-miterlimit:10;}
	.st1{font-family:'MyriadPro-Regular';}
	.st2{font-size:36.6184px;}
</style>
<polyline points="15.8,65.8 0.1,71.5 15.8,77.1 9.5,71.5 "/>
<polyline points="811.2,77.1 827,71.5 811.2,65.8 817.5,71.5 "/>
<line class="st0" x1="9.5" y1="71.5" x2="817.5" y2="71.5"/>
<line class="st0" x1="413.5" y1="61.1" x2="413.5" y2="81.8"/>
<line class="st0" x1="516.9" y1="61.1" x2="516.9" y2="81.8"/>
<line class="st0" x1="620.3" y1="61.1" x2="620.3" y2="81.8"/>
<line class="st0" x1="723.6" y1="61.1" x2="723.6" y2="81.8"/>
<line class="st0" x1="310.2" y1="61.1" x2="310.2" y2="81.8"/>
<line class="st0" x1="206.8" y1="61.1" x2="206.8" y2="81.8"/>
<line class="st0" x1="103.4" y1="61.1" x2="103.4" y2="81.8"/>
<polyline points="325.9,14.1 310.2,19.8 325.9,25.4 319.6,19.8 "/>
<line class="st0" x1="319.6" y1="19.8" x2="413.5" y2="19.8"/>
<polyline points="501.1,25.4 516.9,19.8 501.1,14.1 507.4,19.8 "/>
<line class="st0" x1="413.5" y1="19.8" x2="507.4" y2="19.8"/>
<line class="st0" x1="413.5" y1="30.1" x2="413.5" y2="9.4"/>
<text transform="matrix(1 0 0 1 0 30.6499)" class="st1 st2">negative numbers</text>
<text transform="matrix(1 0 0 1 557.8198 30.6499)" class="st1 st2">positive numbers</text>
<text transform="matrix(1 0 0 1 80.5596 125.8569)" class="st1 st2">-3</text>
<text transform="matrix(1 0 0 1 186.7529 125.8569)" class="st1 st2">-2</text>
<text transform="matrix(1 0 0 1 292.9463 125.8569)" class="st1 st2">-1</text>
<text transform="matrix(1 0 0 1 405.2427 125.8569)" class="st1 st2">0</text>
<text transform="matrix(1 0 0 1 506.5532 125.8569)" class="st1 st2">1</text>
<text transform="matrix(1 0 0 1 612.7466 125.8569)" class="st1 st2">2</text>
<text transform="matrix(1 0 0 1 716.4985 125.8569)" class="st1 st2">3</text>
</svg>
