<?xml version="1.0" encoding="utf-8"?>
<!-- Generator: Adobe Illustrator 21.1.0, SVG Export Plug-In . SVG Version: 6.00 Build 0)  -->
<svg version="1.1" id="Слой_1" xmlns="http://www.w3.org/2000/svg" xmlns:xlink="http://www.w3.org/1999/xlink" x="0px" y="0px"
	 width="226.6px" height="124.9px" viewBox="0 0 226.6 124.9" style="enable-background:new 0 0 226.6 124.9;" xml:space="preserve"
	>
<style type="text/css">
	.st0{fill:#BFBFBF;}
	.st1{fill:none;stroke:#000000;stroke-width:0.797;stroke-miterlimit:10;}
	.st2{fill:none;stroke:#000000;stroke-width:1.4944;stroke-miterlimit:10;}
	.st3{font-family:'MyriadPro-Regular';}
	.st4{font-size:6.9738px;}
	.st5{fill:none;stroke:#000000;stroke-width:0.3;stroke-miterlimit:10;}
</style>
<path class="st0" d="M54.6,74.9h49.6c0-8.7-2.3-17.3-6.6-24.8"/>
<path class="st1" d="M54.6,74.9h49.6c0-8.7-2.3-17.3-6.6-24.8L54.6,74.9z"/>
<path class="st0" d="M54.6,74.9l43-24.8c-4.4-7.5-10.6-13.8-18.2-18.2"/>
<path class="st1" d="M54.6,74.9l43-24.8c-4.4-7.5-10.6-13.8-18.2-18.2L54.6,74.9z"/>
<path class="st0" d="M54.6,74.9l24.8-43c-7.5-4.4-16.1-6.6-24.8-6.6"/>
<path class="st1" d="M54.6,74.9l24.8-43c-7.5-4.4-16.1-6.6-24.8-6.6V74.9z"/>
<path class="st0" d="M54.6,74.9V25.3c-8.7,0-17.3,2.3-24.8,6.6"/>
<path class="st1" d="M54.6,74.9V25.3c-8.7,0-17.3,2.3-24.8,6.6L54.6,74.9z"/>
<path class="st0" d="M54.6,74.9l-24.8-43C22.3,36.3,16,42.5,11.6,50.1"/>
<path class="st1" d="M54.6,74.9l-24.8-43C22.3,36.3,16,42.5,11.6,50.1L54.6,74.9z"/>
<path class="st0" d="M54.6,74.9l-43-24.8C7.3,57.6,5,66.2,5,74.9"/>
<path class="st1" d="M54.6,74.9l-43-24.8C7.3,57.6,5,66.2,5,74.9H54.6z"/>
<path class="st0" d="M54.6,74.9H5c0,8.7,2.3,17.3,6.6,24.8"/>
<path class="st1" d="M54.6,74.9H5c0,8.7,2.3,17.3,6.6,24.8L54.6,74.9z"/>
<path class="st0" d="M54.6,74.9l-43,24.8c4.4,7.5,10.6,13.8,18.2,18.2"/>
<path class="st1" d="M54.6,74.9l-43,24.8c4.4,7.5,10.6,13.8,18.2,18.2L54.6,74.9z"/>
<path class="st1" d="M54.6,74.9l-24.8,43c7.5,4.4,16.1,6.6,24.8,6.6V74.9z"/>
<path class="st1" d="M54.6,74.9v49.6c8.7,0,17.3-2.3,24.8-6.6L54.6,74.9z"/>
<path class="st1" d="M54.6,74.9l24.8,43c7.5-4.4,13.8-10.6,18.2-18.2L54.6,74.9z"/>
<path class="st1" d="M54.6,74.9l43,24.8c4.4-7.5,6.6-16.1,6.6-24.8H54.6z"/>
<line class="st2" x1="103.7" y1="74.2" x2="113.2" y2="74.1"/>
<polyline points="21.2,120.1 27.7,121.5 23.5,116.3 24.5,119.5 "/>
<path class="st2" d="M108.4,73.4l0,0.2C107.7,44.4,83.8,21,54.6,21C24.9,21,0.7,45.1,0.7,74.9c0,18,9,34.8,23.9,44.8"/>
<path class="st0" d="M168,74.9h49.6c0-27.4-22.2-49.6-49.6-49.6c-8.7,0-17.3,2.3-24.8,6.6"/>
<path class="st1" d="M168,74.9h49.6c0-27.4-22.2-49.6-49.6-49.6c-8.7,0-17.3,2.3-24.8,6.6L168,74.9z"/>
<path class="st0" d="M168,74.9l-24.8-43c-15.3,8.9-24.8,25.2-24.8,43c0,17.7,9.5,34.1,24.8,43"/>
<path class="st1" d="M168,74.9l-24.8-43c-15.3,8.9-24.8,25.2-24.8,43c0,17.7,9.5,34.1,24.8,43L168,74.9z"/>
<path class="st1" d="M168,74.9l-24.8,43c7.5,4.4,16.1,6.6,24.8,6.6c27.4,0,49.6-22.2,49.6-49.6H168z"/>
<line class="st2" x1="217.1" y1="74.2" x2="226.6" y2="74.1"/>
<polyline points="134.6,120.1 141.1,121.5 136.9,116.3 137.9,119.5 "/>
<path class="st2" d="M221.8,73.4l0,0.2C221.1,44.4,197.2,21,168,21c-29.7,0-53.9,24.1-53.9,53.9c0,18,9,34.8,23.9,44.8"/>
<text transform="matrix(1 0 0 1 52.5652 5.8369)" class="st3 st4">8</text>
<text transform="matrix(1 0 0 1 50.6453 13.1572)"><tspan x="0" y="0" class="st3 st4">1</tspan><tspan x="3.6" y="0" class="st3 st4">2</tspan></text>
<text transform="matrix(1 0 0 1 165.951 5.8369)" class="st3 st4">2</text>
<text transform="matrix(1 0 0 1 165.951 13.1572)" class="st3 st4">3</text>
<line class="st5" x1="164.9" y1="7" x2="170.9" y2="7"/>
<line class="st5" x1="50.9" y1="7" x2="57.9" y2="7"/>
</svg>
