<?xml version="1.0" encoding="utf-8"?>
<!-- Generator: Adobe Illustrator 21.1.0, SVG Export Plug-In . SVG Version: 6.00 Build 0)  -->
<svg version="1.1" id="Слой_1" xmlns="http://www.w3.org/2000/svg" xmlns:xlink="http://www.w3.org/1999/xlink" x="0px" y="0px"
	 width="180.2px" height="269.7px" viewBox="0 0 180.2 269.7" style="enable-background:new 0 0 180.2 269.7;" xml:space="preserve"
	>
<style type="text/css">
	.st0{fill:none;stroke:#000000;stroke-width:0.797;stroke-miterlimit:10;}
	.st1{fill:none;stroke:#000000;stroke-width:4.9813;stroke-miterlimit:10;}
	.st2{font-family:'SegoeUI';}
	.st3{font-size:9.9626px;}
</style>
<path d="M161,14.2c0-0.8-31.7-1.4-70.9-1.4c-39.1,0-70.9,0.6-70.9,1.4s31.7,1.4,70.9,1.4C129.2,15.6,161,15,161,14.2"/>
<ellipse class="st0" cx="90.1" cy="14.2" rx="70.9" ry="1.4"/>
<polyline points="86.6,56.7 83,113.4 97.2,113.4 90.1,0 "/>
<polygon class="st0" points="86.6,56.7 83,113.4 97.2,113.4 90.1,0 "/>
<polyline points="75.9,120.5 75.9,113.4 104.3,113.4 104.3,127.6 75.9,127.6 "/>
<polygon class="st0" points="75.9,120.5 75.9,113.4 104.3,113.4 104.3,127.6 75.9,127.6 "/>
<line class="st0" x1="33.4" y1="14.2" x2="5.1" y2="70.9"/>
<line class="st0" x1="33.4" y1="14.2" x2="61.8" y2="70.9"/>
<line class="st0" x1="146.8" y1="14.2" x2="175.1" y2="70.9"/>
<line class="st0" x1="146.8" y1="14.2" x2="118.5" y2="70.9"/>
<path d="M0.5,69.2c1.4,3,4.9,4.3,7.9,2.9c3-1.4,4.3-4.9,2.9-7.9c-1.4-3-4.9-4.3-7.9-2.9C0.5,62.6-0.8,66.2,0.5,69.2"/>
<path d="M55.4,64.2c-1.4,3-0.1,6.5,2.9,7.9c3,1.4,6.5,0.1,7.9-2.9c1.4-3,0.1-6.5-2.9-7.9C60.3,59.9,56.8,61.2,55.4,64.2"/>
<path class="st1" d="M8,71l-0.3-0.6c5.1,9.5,15,15.5,25.8,15.5S54.1,80,59.2,70.5"/>
<text transform="matrix(1 0 0 1 21.8947 78.104)" class="st2 st3">x</text>
<text transform="matrix(1 0 0 1 29.8146 78.104)" class="st2 st3">+</text>
<text transform="matrix(1 0 0 1 39.7746 78.104)" class="st2 st3">y</text>
<path d="M113.9,69.2c1.4,3,4.9,4.3,7.9,2.9c3-1.4,4.3-4.9,2.9-7.9c-1.4-3-4.9-4.3-7.9-2.9C113.9,62.6,112.6,66.2,113.9,69.2"/>
<path d="M168.8,64.2c-1.4,3-0.1,6.5,2.9,7.9c3,1.4,6.5,0.1,7.9-2.9c1.4-3,0.1-6.5-2.9-7.9C173.7,59.9,170.2,61.2,168.8,64.2"/>
<path class="st1" d="M121.3,71l-0.3-0.6c5.1,9.5,15,15.5,25.8,15.5s20.7-5.9,25.8-15.5"/>
<text transform="matrix(1 0 0 1 144.2809 80.0239)" class="st2 st3">z</text>
<path d="M161,155.9c0-0.8-31.7-1.4-70.9-1.4c-39.1,0-70.9,0.6-70.9,1.4c0,0.8,31.7,1.4,70.9,1.4C129.2,157.3,161,156.7,161,155.9"/>
<ellipse class="st0" cx="90.1" cy="155.9" rx="70.9" ry="1.4"/>
<polyline points="86.6,198.4 83,255.1 97.2,255.1 90.1,141.8 "/>
<polygon class="st0" points="86.6,198.4 83,255.1 97.2,255.1 90.1,141.8 "/>
<polyline points="75.9,262.2 75.9,255.1 104.3,255.1 104.3,269.3 75.9,269.3 "/>
<polygon class="st0" points="75.9,262.2 75.9,255.1 104.3,255.1 104.3,269.3 75.9,269.3 "/>
<line class="st0" x1="33.4" y1="155.9" x2="5.1" y2="212.6"/>
<line class="st0" x1="33.4" y1="155.9" x2="61.8" y2="212.6"/>
<line class="st0" x1="146.8" y1="155.9" x2="175.1" y2="212.6"/>
<line class="st0" x1="146.8" y1="155.9" x2="118.5" y2="212.6"/>
<path d="M0.5,210.9c1.4,3,4.9,4.3,7.9,2.9c3-1.4,4.3-4.9,2.9-7.9c-1.4-3-4.9-4.3-7.9-2.9C0.5,204.4-0.8,207.9,0.5,210.9"/>
<path d="M55.4,205.9c-1.4,3-0.1,6.5,2.9,7.9c3,1.4,6.5,0.1,7.9-2.9c1.4-3,0.1-6.5-2.9-7.9C60.3,201.6,56.8,202.9,55.4,205.9"/>
<path class="st1" d="M8,212.7l-0.3-0.6c5.1,9.5,15,15.5,25.8,15.5s20.7-5.9,25.8-15.5"/>
<text transform="matrix(1 0 0 1 13.1344 214.1669)" class="st2 st3">x</text>
<text transform="matrix(1 0 0 1 21.0544 214.1669)" class="st2 st3">+</text>
<text transform="matrix(1 0 0 1 31.0148 214.1669)" class="st2 st3">y</text>
<text transform="matrix(1 0 0 1 38.4548 214.1669)" class="st2 st3">−</text>
<text transform="matrix(1 0 0 1 48.4147 214.1669)" class="st2 st3">y</text>
<path d="M113.9,210.9c1.4,3,4.9,4.3,7.9,2.9c3-1.4,4.3-4.9,2.9-7.9c-1.4-3-4.9-4.3-7.9-2.9C113.9,204.4,112.6,207.9,113.9,210.9"/>
<path d="M168.8,205.9c-1.4,3-0.1,6.5,2.9,7.9c3,1.4,6.5,0.1,7.9-2.9c1.4-3,0.1-6.5-2.9-7.9C173.7,201.6,170.2,202.9,168.8,205.9"/>
<path class="st1" d="M121.3,212.7l-0.3-0.6c5.1,9.5,15,15.5,25.8,15.5s20.7-5.9,25.8-15.5"/>
<text transform="matrix(1 0 0 1 135.5202 214.1669)" class="st2 st3">z</text>
<text transform="matrix(1 0 0 1 142.8405 214.1669)" class="st2 st3">−</text>
<text transform="matrix(1 0 0 1 152.8005 214.1669)" class="st2 st3">y</text>
</svg>
