<?xml version="1.0" encoding="utf-8"?>
<!-- Generator: Adobe Illustrator 21.1.0, SVG Export Plug-In . SVG Version: 6.00 Build 0)  -->
<svg version="1.1" id="Слой_1" xmlns="http://www.w3.org/2000/svg" xmlns:xlink="http://www.w3.org/1999/xlink" x="0px" y="0px"
	 width="337.7px" height="117.1px" viewBox="0 0 337.7 117.1" style="enable-background:new 0 0 337.7 117.1;" xml:space="preserve"
	>
<style type="text/css">
	.st0{font-family:'SegoeUI';}
	.st1{font-size:14.944px;}
	.st2{font-size:16.5px;}
	.st3{fill:none;stroke:#000000;stroke-width:0.5;stroke-miterlimit:10;}
	.st4{font-size:12px;}
</style>
<g>
	<text transform="matrix(1 0 0 1 96.917 12.85)" class="st0 st1">a</text>
	<text transform="matrix(1 0 0 1 127.6973 12.85)" class="st0 st1">b</text>
	<text transform="matrix(1 0 0 1 155.2364 12.85)" class="st0 st1">a</text>
	<text transform="matrix(1 0 0 1 166.5772 12.85)" class="st0 st1">×</text>
	<text transform="matrix(1 0 0 1 181.5176 12.85)" class="st0 st1">b</text>
	<text transform="matrix(1 0 0 1 192.8575 12.85)"><tspan x="0" y="0" class="st0 st1">o</tspan><tspan x="8.5" y="0" class="st0 st1">r</tspan></text>
	<text transform="matrix(1 0 0 1 209.958 12.85)" class="st0 st1">a</text>
	<text transform="matrix(1 0 0 1 221.2979 12.85)" class="st0 st1">÷</text>
	<text transform="matrix(1 0 0 1 236.2373 12.85)" class="st0 st1">b</text>
	<text transform="matrix(1 0 0 1 95.6114 34.9896)" class="st0 st1">+</text>
	<text transform="matrix(1 0 0 1 125.8516 34.9896)" class="st0 st1">+</text>
	<text transform="matrix(1 0 0 1 193.7647 34.9896)" class="st0 st1">+</text>
	<text transform="matrix(1 0 0 1 95.6114 53.5287)" class="st0 st1">+</text>
	<text transform="matrix(1 0 0 1 127.5918 53.5287)" class="st0 st2">-</text>
	<text transform="matrix(1 0 0 1 195.5782 53.5287)" class="st0 st2">-</text>
	<text transform="matrix(1 0 0 1 97.5313 72.0697)" class="st0 st2">-</text>
	<text transform="matrix(1 0 0 1 125.8516 72.0697)" class="st0 st1">+</text>
	<text transform="matrix(1 0 0 1 195.5782 72.0697)" class="st0 st2">-</text>
	<text transform="matrix(1 0 0 1 97.5313 90.6098)" class="st0 st2">-</text>
	<text transform="matrix(1 0 0 1 127.5918 90.6098)" class="st0 st2">-</text>
	<text transform="matrix(1 0 0 1 193.7647 90.6098)" class="st0 st1">+</text>
	<line class="st3" x1="85.6" y1="0.3" x2="252.1" y2="0.3"/>
	<line class="st3" x1="85.6" y1="18.3" x2="252.1" y2="18.3"/>
	<line class="st3" x1="85.8" y1="22" x2="252.3" y2="22"/>
	<line class="st3" x1="85.8" y1="40" x2="252.3" y2="40"/>
	<line class="st3" x1="85.8" y1="59.5" x2="252.3" y2="59.5"/>
	<line class="st3" x1="85.8" y1="77.5" x2="252.3" y2="77.5"/>
	<line class="st3" x1="85.8" y1="95.5" x2="252.3" y2="95.5"/>
	<line class="st3" x1="85.5" y1="22" x2="85.5" y2="95.5"/>
	<line class="st3" x1="117" y1="22" x2="117" y2="95.5"/>
	<line class="st3" x1="147" y1="22" x2="147" y2="95.5"/>
	<line class="st3" x1="252" y1="22" x2="252" y2="95.5"/>
	<line class="st3" x1="85.4" y1="0.1" x2="85.4" y2="18.1"/>
	<line class="st3" x1="116.3" y1="0.3" x2="116.3" y2="18.3"/>
	<line class="st3" x1="146.3" y1="0.3" x2="146.3" y2="18.3"/>
	<line class="st3" x1="251.9" y1="0.3" x2="251.9" y2="18.3"/>
</g>
<text transform="matrix(1 0 0 1 -1.525879e-05 114.1)" class="st0 st4">Table 2.1: Table of signs for multiplying or dividing two numbers</text>
</svg>
