<?xml version="1.0" encoding="utf-8"?>
<!-- Generator: Adobe Illustrator 21.1.0, SVG Export Plug-In . SVG Version: 6.00 Build 0)  -->
<svg version="1.1" id="Слой_1" xmlns="http://www.w3.org/2000/svg" xmlns:xlink="http://www.w3.org/1999/xlink" x="0px" y="0px"
	 width="337.7px" height="120.1px" viewBox="0 0 337.7 120.1" style="enable-background:new 0 0 337.7 120.1;" xml:space="preserve"
	>
<style type="text/css">
	.st0{font-family:'SegoeUI';}
	.st1{font-size:14.944px;}
	.st2{font-size:16.5px;}
	.st3{fill:none;stroke:#000000;stroke-width:0.5;stroke-miterlimit:10;}
</style>
<g>
	<path d="M103.5,12.9h-1.2v-1.2h0c-0.5,0.9-1.3,1.3-2.3,1.3c-0.7,0-1.3-0.2-1.7-0.6c-0.4-0.4-0.6-0.9-0.6-1.6c0-1.4,0.8-2.2,2.5-2.4
		l2.2-0.3c0-1.3-0.5-1.9-1.5-1.9c-0.9,0-1.7,0.3-2.4,0.9V5.9c0.7-0.5,1.6-0.7,2.5-0.7c1.8,0,2.6,0.9,2.6,2.8V12.9z M102.3,9.1
		l-1.8,0.2c-0.6,0.1-1,0.2-1.3,0.4c-0.3,0.2-0.4,0.5-0.4,1c0,0.4,0.1,0.7,0.4,0.9c0.3,0.2,0.6,0.3,1,0.3c0.6,0,1.1-0.2,1.5-0.6
		c0.4-0.4,0.6-0.9,0.6-1.6V9.1z"/>
</g>
<g>
	<path d="M130.1,11.8L130.1,11.8l0,1.1h-1.2V1.8h1.2v4.9h0c0.6-1,1.4-1.5,2.6-1.5c1,0,1.7,0.3,2.3,1c0.5,0.7,0.8,1.6,0.8,2.7
		c0,1.3-0.3,2.3-0.9,3c-0.6,0.8-1.4,1.1-2.5,1.1C131.4,13,130.6,12.6,130.1,11.8z M130.1,8.8v1c0,0.6,0.2,1.1,0.6,1.6
		s0.9,0.6,1.5,0.6c0.7,0,1.3-0.3,1.7-0.8c0.4-0.6,0.6-1.3,0.6-2.3c0-0.8-0.2-1.5-0.6-2c-0.4-0.5-0.9-0.7-1.6-0.7
		c-0.7,0-1.3,0.2-1.7,0.7C130.3,7.4,130.1,8,130.1,8.8z"/>
</g>
<g>
	<path d="M161.8,12.9h-1.2v-1.2h0c-0.5,0.9-1.3,1.3-2.3,1.3c-0.7,0-1.3-0.2-1.7-0.6c-0.4-0.4-0.6-0.9-0.6-1.6c0-1.4,0.8-2.2,2.5-2.4
		l2.2-0.3c0-1.3-0.5-1.9-1.5-1.9c-0.9,0-1.7,0.3-2.4,0.9V5.9c0.7-0.5,1.6-0.7,2.5-0.7c1.8,0,2.6,0.9,2.6,2.8V12.9z M160.6,9.1
		l-1.8,0.2c-0.6,0.1-1,0.2-1.3,0.4c-0.3,0.2-0.4,0.5-0.4,1c0,0.4,0.1,0.7,0.4,0.9c0.3,0.2,0.6,0.3,1,0.3c0.6,0,1.1-0.2,1.5-0.6
		c0.4-0.4,0.6-0.9,0.6-1.6V9.1z"/>
</g>
<g>
	<path d="M174.9,11l-0.7,0.7l-2.5-2.5l-2.5,2.5l-0.7-0.7l2.5-2.5L168.5,6l0.7-0.7l2.5,2.5l2.5-2.5l0.7,0.7l-2.5,2.5L174.9,11z"/>
</g>
<text transform="matrix(1 0 0 1 181.5177 12.85)" class="st0 st1">b</text>
<g>
	<path d="M197.2,13c-1.1,0-2-0.3-2.6-1c-0.7-0.7-1-1.6-1-2.8c0-1.3,0.3-2.2,1-2.9c0.7-0.7,1.6-1.1,2.8-1.1c1.1,0,2,0.3,2.6,1
		s0.9,1.6,0.9,2.9c0,1.2-0.3,2.1-1,2.9C199.2,12.7,198.3,13,197.2,13z M197.3,6.2c-0.8,0-1.4,0.3-1.8,0.8c-0.4,0.5-0.7,1.2-0.7,2.2
		c0,0.9,0.2,1.6,0.7,2.1c0.5,0.5,1.1,0.8,1.8,0.8c0.8,0,1.4-0.3,1.8-0.8s0.6-1.2,0.6-2.1c0-0.9-0.2-1.7-0.6-2.2S198.1,6.2,197.3,6.2
		z"/>
	<path d="M206.5,6.6c-0.2-0.2-0.5-0.2-0.9-0.2c-0.5,0-0.9,0.2-1.3,0.7c-0.3,0.5-0.5,1.1-0.5,2v3.8h-1.2V5.4h1.2v1.5h0
		c0.2-0.5,0.4-0.9,0.8-1.2c0.4-0.3,0.7-0.4,1.2-0.4c0.3,0,0.5,0,0.7,0.1V6.6z"/>
</g>
<g>
	<path d="M216.5,12.9h-1.2v-1.2h0c-0.5,0.9-1.3,1.3-2.3,1.3c-0.7,0-1.3-0.2-1.7-0.6s-0.6-0.9-0.6-1.6c0-1.4,0.8-2.2,2.5-2.4l2.2-0.3
		c0-1.3-0.5-1.9-1.5-1.9c-0.9,0-1.7,0.3-2.4,0.9V5.9c0.7-0.5,1.6-0.7,2.5-0.7c1.8,0,2.6,0.9,2.6,2.8V12.9z M215.3,9.1l-1.8,0.2
		c-0.6,0.1-1,0.2-1.3,0.4c-0.3,0.2-0.4,0.5-0.4,1c0,0.4,0.1,0.7,0.4,0.9c0.3,0.2,0.6,0.3,1,0.3c0.6,0,1.1-0.2,1.5-0.6
		c0.4-0.4,0.6-0.9,0.6-1.6V9.1z"/>
</g>
<g>
	<path d="M229.8,9H223V8h6.9V9z M226.4,12c-0.2,0-0.4-0.1-0.5-0.2c-0.2-0.1-0.2-0.3-0.2-0.5c0-0.2,0.1-0.4,0.2-0.6
		c0.1-0.2,0.3-0.2,0.6-0.2c0.5,0,0.7,0.3,0.7,0.8c0,0.2-0.1,0.4-0.2,0.5C226.8,12,226.6,12,226.4,12z M226.5,6.5
		c-0.2,0-0.4-0.1-0.5-0.2c-0.1-0.1-0.2-0.3-0.2-0.5c0-0.2,0.1-0.4,0.2-0.6c0.1-0.2,0.3-0.2,0.5-0.2c0.5,0,0.8,0.3,0.8,0.8
		c0,0.2-0.1,0.4-0.2,0.6S226.7,6.5,226.5,6.5z"/>
</g>
<g>
	<path d="M238.7,11.8L238.7,11.8l0,1.1h-1.2V1.8h1.2v4.9h0c0.6-1,1.4-1.5,2.6-1.5c1,0,1.7,0.3,2.3,1c0.5,0.7,0.8,1.6,0.8,2.7
		c0,1.3-0.3,2.3-0.9,3S242,13,240.9,13C239.9,13,239.2,12.6,238.7,11.8z M238.6,8.8v1c0,0.6,0.2,1.1,0.6,1.6s0.9,0.6,1.5,0.6
		c0.7,0,1.3-0.3,1.7-0.8s0.6-1.3,0.6-2.3c0-0.8-0.2-1.5-0.6-2c-0.4-0.5-0.9-0.7-1.6-0.7c-0.7,0-1.3,0.2-1.7,0.7
		C238.9,7.4,238.6,8,238.6,8.8z"/>
</g>
<text transform="matrix(1 0 0 1 95.6114 34.9896)" class="st0 st1">+</text>
<text transform="matrix(1 0 0 1 125.8517 34.9896)" class="st0 st1">+</text>
<text transform="matrix(1 0 0 1 193.7648 34.9896)" class="st0 st1">+</text>
<text transform="matrix(1 0 0 1 95.6114 53.5287)" class="st0 st1">+</text>
<text transform="matrix(1 0 0 1 127.5919 53.5287)" class="st0 st2">-</text>
<text transform="matrix(1 0 0 1 195.5782 53.5287)" class="st0 st2">-</text>
<text transform="matrix(1 0 0 1 97.5314 72.0697)" class="st0 st2">-</text>
<text transform="matrix(1 0 0 1 125.8517 72.0697)" class="st0 st1">+</text>
<text transform="matrix(1 0 0 1 195.5782 72.0697)" class="st0 st2">-</text>
<text transform="matrix(1 0 0 1 97.5314 90.6098)" class="st0 st2">-</text>
<text transform="matrix(1 0 0 1 127.5919 90.6098)" class="st0 st2">-</text>
<text transform="matrix(1 0 0 1 193.7648 90.6098)" class="st0 st1">+</text>
<line class="st3" x1="85.6" y1="0.3" x2="252.1" y2="0.3"/>
<line class="st3" x1="85.6" y1="18.3" x2="252.1" y2="18.3"/>
<line class="st3" x1="85.8" y1="22" x2="252.3" y2="22"/>
<line class="st3" x1="85.8" y1="40" x2="252.3" y2="40"/>
<line class="st3" x1="85.8" y1="59.5" x2="252.3" y2="59.5"/>
<line class="st3" x1="85.8" y1="77.5" x2="252.3" y2="77.5"/>
<line class="st3" x1="85.8" y1="95.5" x2="252.3" y2="95.5"/>
<line class="st3" x1="85.5" y1="22" x2="85.5" y2="95.5"/>
<line class="st3" x1="117" y1="22" x2="117" y2="95.5"/>
<line class="st3" x1="147" y1="22" x2="147" y2="95.5"/>
<line class="st3" x1="252" y1="22" x2="252" y2="95.5"/>
<line class="st3" x1="85.4" y1="0.1" x2="85.4" y2="18.1"/>
<line class="st3" x1="116.3" y1="0.3" x2="116.3" y2="18.3"/>
<line class="st3" x1="146.3" y1="0.3" x2="146.3" y2="18.3"/>
<line class="st3" x1="251.9" y1="0.3" x2="251.9" y2="18.3"/>
<g>
	<path d="M6.1,109.6H3.6v7.5h-1v-7.5H0.2v-0.9h5.8V109.6z"/>
	<path d="M10.3,117.1h-1v-0.9h0c-0.4,0.7-1,1.1-1.8,1.1c-0.6,0-1.1-0.2-1.4-0.5s-0.5-0.7-0.5-1.3c0-1.1,0.7-1.8,2-2l1.8-0.3
		c0-1-0.4-1.5-1.2-1.5c-0.7,0-1.4,0.2-2,0.7v-1c0.6-0.4,1.3-0.6,2-0.6c1.4,0,2.1,0.7,2.1,2.2V117.1z M9.3,114.1l-1.4,0.2
		c-0.4,0.1-0.8,0.2-1,0.3s-0.3,0.4-0.3,0.8c0,0.3,0.1,0.5,0.3,0.7s0.5,0.3,0.8,0.3c0.5,0,0.9-0.2,1.2-0.5s0.5-0.8,0.5-1.3V114.1z"/>
	<path d="M13.1,116.2L13.1,116.2l0,0.9h-1v-8.9h1v3.9h0c0.5-0.8,1.2-1.2,2.1-1.2c0.8,0,1.4,0.3,1.8,0.8s0.7,1.3,0.7,2.2
		c0,1-0.2,1.8-0.7,2.4s-1.2,0.9-2,0.9C14.1,117.2,13.5,116.9,13.1,116.2z M13.1,113.8v0.8c0,0.5,0.2,0.9,0.5,1.3s0.7,0.5,1.2,0.5
		c0.6,0,1-0.2,1.4-0.7s0.5-1.1,0.5-1.9c0-0.7-0.2-1.2-0.5-1.6s-0.7-0.6-1.3-0.6c-0.6,0-1,0.2-1.3,0.6S13.1,113.2,13.1,113.8z"/>
	<path d="M20.1,117.1h-1v-8.9h1V117.1z"/>
	<path d="M26.9,114.3h-4.2c0,0.7,0.2,1.2,0.5,1.5s0.8,0.5,1.4,0.5c0.7,0,1.3-0.2,1.9-0.7v0.9c-0.5,0.4-1.2,0.6-2.1,0.6
		c-0.8,0-1.5-0.3-2-0.8s-0.7-1.3-0.7-2.3c0-0.9,0.3-1.7,0.8-2.3s1.2-0.9,2-0.9s1.4,0.3,1.8,0.8s0.6,1.2,0.6,2.1V114.3z M25.9,113.5
		c0-0.6-0.1-1-0.4-1.3s-0.6-0.5-1.1-0.5c-0.5,0-0.8,0.2-1.2,0.5s-0.5,0.7-0.6,1.3H25.9z"/>
	<path d="M36.3,117.1h-5.1v-0.9l2.4-2.5c0.6-0.6,1.1-1.1,1.3-1.6s0.4-0.9,0.4-1.3c0-0.5-0.1-0.9-0.4-1.1s-0.7-0.4-1.2-0.4
		c-0.8,0-1.5,0.3-2.2,1v-1c0.7-0.5,1.4-0.8,2.3-0.8c0.8,0,1.3,0.2,1.8,0.6s0.6,1,0.6,1.6c0,0.5-0.1,1.1-0.4,1.6s-0.8,1.2-1.6,1.9
		l-1.9,1.9v0h3.9V117.1z"/>
	<path d="M38.4,117.2c-0.2,0-0.3-0.1-0.5-0.2s-0.2-0.3-0.2-0.5s0.1-0.3,0.2-0.5s0.3-0.2,0.5-0.2c0.2,0,0.3,0.1,0.5,0.2
		s0.2,0.3,0.2,0.5s-0.1,0.3-0.2,0.5S38.6,117.2,38.4,117.2z"/>
	<path d="M45.5,117.1h-4.8v-0.8h1.9v-6.5l-1.9,0.6v-0.9l2.9-0.9v7.7h1.9V117.1z"/>
	<path d="M47.5,112.3c-0.2,0-0.3-0.1-0.5-0.2s-0.2-0.3-0.2-0.5s0.1-0.3,0.2-0.5s0.3-0.2,0.5-0.2c0.2,0,0.3,0.1,0.5,0.2
		s0.2,0.3,0.2,0.5s-0.1,0.3-0.2,0.5S47.7,112.3,47.5,112.3z M47.5,117.2c-0.2,0-0.3-0.1-0.5-0.2s-0.2-0.3-0.2-0.5s0.1-0.3,0.2-0.5
		s0.3-0.2,0.5-0.2c0.2,0,0.3,0.1,0.5,0.2s0.2,0.3,0.2,0.5s-0.1,0.3-0.2,0.5S47.7,117.2,47.5,117.2z"/>
	<path d="M58.1,109.6h-2.4v7.5h-1v-7.5h-2.4v-0.9h5.8V109.6z"/>
	<path d="M62.4,117.1h-1v-0.9h0c-0.4,0.7-1,1.1-1.8,1.1c-0.6,0-1.1-0.2-1.4-0.5s-0.5-0.7-0.5-1.3c0-1.1,0.7-1.8,2-2l1.8-0.3
		c0-1-0.4-1.5-1.2-1.5c-0.7,0-1.4,0.2-2,0.7v-1c0.6-0.4,1.3-0.6,2-0.6c1.4,0,2.1,0.7,2.1,2.2V117.1z M61.4,114.1l-1.4,0.2
		c-0.4,0.1-0.8,0.2-1,0.3s-0.3,0.4-0.3,0.8c0,0.3,0.1,0.5,0.3,0.7s0.5,0.3,0.8,0.3c0.5,0,0.9-0.2,1.2-0.5s0.5-0.8,0.5-1.3V114.1z"/>
	<path d="M65.2,116.2L65.2,116.2l0,0.9h-1v-8.9h1v3.9h0c0.5-0.8,1.2-1.2,2.1-1.2c0.8,0,1.4,0.3,1.8,0.8s0.7,1.3,0.7,2.2
		c0,1-0.2,1.8-0.7,2.4s-1.2,0.9-2,0.9C66.2,117.2,65.6,116.9,65.2,116.2z M65.1,113.8v0.8c0,0.5,0.2,0.9,0.5,1.3s0.7,0.5,1.2,0.5
		c0.6,0,1-0.2,1.4-0.7s0.5-1.1,0.5-1.9c0-0.7-0.2-1.2-0.5-1.6s-0.7-0.6-1.3-0.6c-0.6,0-1,0.2-1.3,0.6S65.1,113.2,65.1,113.8z"/>
	<path d="M72.2,117.1h-1v-8.9h1V117.1z"/>
	<path d="M78.9,114.3h-4.2c0,0.7,0.2,1.2,0.5,1.5s0.8,0.5,1.4,0.5c0.7,0,1.3-0.2,1.9-0.7v0.9c-0.5,0.4-1.2,0.6-2.1,0.6
		c-0.8,0-1.5-0.3-2-0.8s-0.7-1.3-0.7-2.3c0-0.9,0.3-1.7,0.8-2.3s1.2-0.9,2-0.9s1.4,0.3,1.8,0.8s0.6,1.2,0.6,2.1V114.3z M78,113.5
		c0-0.6-0.1-1-0.4-1.3s-0.6-0.5-1.1-0.5c-0.5,0-0.8,0.2-1.2,0.5s-0.5,0.7-0.6,1.3H78z"/>
	<path d="M86.2,117.2c-0.9,0-1.6-0.3-2.1-0.8s-0.8-1.3-0.8-2.2c0-1,0.3-1.8,0.8-2.4s1.3-0.8,2.2-0.8c0.9,0,1.6,0.3,2.1,0.8
		s0.8,1.3,0.8,2.3c0,1-0.3,1.7-0.8,2.3S87.1,117.2,86.2,117.2z M86.3,111.8c-0.6,0-1.1,0.2-1.5,0.6s-0.5,1-0.5,1.7
		c0,0.7,0.2,1.3,0.5,1.7s0.8,0.6,1.5,0.6c0.6,0,1.1-0.2,1.4-0.6s0.5-1,0.5-1.7c0-0.8-0.2-1.3-0.5-1.7S86.9,111.8,86.3,111.8z"/>
	<path d="M93.5,109.1c-0.2-0.1-0.4-0.2-0.6-0.2c-0.7,0-1,0.4-1,1.3v0.9h1.4v0.8h-1.4v5.2h-1v-5.2h-1v-0.8h1v-1
		c0-0.6,0.2-1.1,0.5-1.5s0.8-0.5,1.4-0.5c0.3,0,0.5,0,0.7,0.1V109.1z"/>
	<path d="M97.2,116.9v-1c0.5,0.4,1.1,0.6,1.7,0.6c0.8,0,1.3-0.3,1.3-0.8c0-0.2,0-0.3-0.1-0.4s-0.2-0.2-0.3-0.3s-0.3-0.2-0.4-0.2
		s-0.3-0.1-0.5-0.2c-0.3-0.1-0.5-0.2-0.7-0.3s-0.4-0.2-0.5-0.4s-0.2-0.3-0.3-0.5s-0.1-0.4-0.1-0.6c0-0.3,0.1-0.5,0.2-0.7
		s0.3-0.4,0.5-0.5s0.5-0.3,0.7-0.3s0.6-0.1,0.9-0.1c0.5,0,1,0.1,1.4,0.3v1c-0.4-0.3-0.9-0.4-1.5-0.4c-0.2,0-0.3,0-0.5,0.1
		s-0.3,0.1-0.4,0.2s-0.2,0.2-0.2,0.3s-0.1,0.2-0.1,0.3c0,0.2,0,0.3,0.1,0.4s0.1,0.2,0.2,0.3s0.2,0.2,0.4,0.2s0.3,0.1,0.5,0.2
		c0.3,0.1,0.5,0.2,0.7,0.3s0.4,0.2,0.5,0.4s0.3,0.3,0.3,0.5s0.1,0.4,0.1,0.6c0,0.3-0.1,0.6-0.2,0.8s-0.3,0.4-0.5,0.5
		s-0.5,0.3-0.8,0.3s-0.6,0.1-0.9,0.1C98.2,117.2,97.6,117.1,97.2,116.9z"/>
	<path d="M103.1,109.6c-0.2,0-0.3-0.1-0.4-0.2s-0.2-0.3-0.2-0.4s0.1-0.3,0.2-0.4s0.3-0.2,0.4-0.2c0.2,0,0.3,0.1,0.4,0.2
		s0.2,0.3,0.2,0.4c0,0.2-0.1,0.3-0.2,0.4S103.3,109.6,103.1,109.6z M103.6,117.1h-1v-6h1V117.1z"/>
	<path d="M110.7,116.6c0,2.2-1.1,3.3-3.2,3.3c-0.7,0-1.4-0.1-1.9-0.4v-1c0.7,0.4,1.3,0.6,1.9,0.6c1.5,0,2.2-0.8,2.2-2.4v-0.7h0
		c-0.5,0.8-1.1,1.1-2.1,1.1c-0.7,0-1.3-0.3-1.8-0.8s-0.7-1.2-0.7-2.1c0-1,0.2-1.8,0.7-2.4s1.2-0.9,2-0.9c0.8,0,1.4,0.3,1.8,1h0v-0.8
		h1V116.6z M109.7,114.4v-0.9c0-0.5-0.2-0.9-0.5-1.2s-0.7-0.5-1.2-0.5c-0.6,0-1.1,0.2-1.4,0.6s-0.5,1-0.5,1.8c0,0.7,0.2,1.2,0.5,1.6
		s0.7,0.6,1.3,0.6c0.5,0,1-0.2,1.3-0.6S109.7,115,109.7,114.4z"/>
	<path d="M117.6,117.1h-1v-3.4c0-1.3-0.5-1.9-1.4-1.9c-0.5,0-0.9,0.2-1.2,0.5s-0.5,0.8-0.5,1.4v3.4h-1v-6h1v1h0
		c0.5-0.8,1.1-1.1,2-1.1c0.7,0,1.2,0.2,1.5,0.6s0.5,1,0.5,1.8V117.1z"/>
	<path d="M119,116.9v-1c0.5,0.4,1.1,0.6,1.7,0.6c0.8,0,1.3-0.3,1.3-0.8c0-0.2,0-0.3-0.1-0.4s-0.2-0.2-0.3-0.3s-0.3-0.2-0.4-0.2
		s-0.3-0.1-0.5-0.2c-0.3-0.1-0.5-0.2-0.7-0.3s-0.4-0.2-0.5-0.4s-0.2-0.3-0.3-0.5s-0.1-0.4-0.1-0.6c0-0.3,0.1-0.5,0.2-0.7
		s0.3-0.4,0.5-0.5s0.5-0.3,0.7-0.3s0.6-0.1,0.9-0.1c0.5,0,1,0.1,1.4,0.3v1c-0.4-0.3-0.9-0.4-1.5-0.4c-0.2,0-0.3,0-0.5,0.1
		s-0.3,0.1-0.4,0.2s-0.2,0.2-0.2,0.3s-0.1,0.2-0.1,0.3c0,0.2,0,0.3,0.1,0.4s0.1,0.2,0.2,0.3s0.2,0.2,0.4,0.2s0.3,0.1,0.5,0.2
		c0.3,0.1,0.5,0.2,0.7,0.3s0.4,0.2,0.5,0.4s0.3,0.3,0.3,0.5s0.1,0.4,0.1,0.6c0,0.3-0.1,0.6-0.2,0.8s-0.3,0.4-0.5,0.5
		s-0.5,0.3-0.8,0.3s-0.6,0.1-0.9,0.1C120,117.2,119.5,117.1,119,116.9z"/>
	<path d="M130.7,109.1c-0.2-0.1-0.4-0.2-0.6-0.2c-0.7,0-1,0.4-1,1.3v0.9h1.4v0.8h-1.4v5.2h-1v-5.2h-1v-0.8h1v-1
		c0-0.6,0.2-1.1,0.5-1.5s0.8-0.5,1.4-0.5c0.3,0,0.5,0,0.7,0.1V109.1z"/>
	<path d="M134,117.2c-0.9,0-1.6-0.3-2.1-0.8s-0.8-1.3-0.8-2.2c0-1,0.3-1.8,0.8-2.4s1.3-0.8,2.2-0.8c0.9,0,1.6,0.3,2.1,0.8
		s0.8,1.3,0.8,2.3c0,1-0.3,1.7-0.8,2.3S135,117.2,134,117.2z M134.1,111.8c-0.6,0-1.1,0.2-1.5,0.6s-0.5,1-0.5,1.7
		c0,0.7,0.2,1.3,0.5,1.7s0.8,0.6,1.5,0.6c0.6,0,1.1-0.2,1.4-0.6s0.5-1,0.5-1.7c0-0.8-0.2-1.3-0.5-1.7S134.7,111.8,134.1,111.8z"/>
	<path d="M141.7,112.1c-0.2-0.1-0.4-0.2-0.7-0.2c-0.4,0-0.8,0.2-1,0.6s-0.4,0.9-0.4,1.6v3.1h-1v-6h1v1.2h0c0.1-0.4,0.3-0.8,0.6-1
		s0.6-0.4,0.9-0.4c0.3,0,0.4,0,0.6,0.1V112.1z"/>
	<path d="M154.5,117.1h-1v-3.4c0-0.7-0.1-1.1-0.3-1.4s-0.5-0.4-1-0.4c-0.4,0-0.8,0.2-1,0.6s-0.4,0.8-0.4,1.3v3.4h-1v-3.6
		c0-1.2-0.5-1.8-1.4-1.8c-0.4,0-0.8,0.2-1,0.5s-0.4,0.8-0.4,1.4v3.4h-1v-6h1v0.9h0c0.4-0.7,1-1.1,1.9-1.1c0.4,0,0.8,0.1,1.1,0.3
		s0.5,0.5,0.6,0.9c0.4-0.8,1.1-1.2,2-1.2c1.3,0,2,0.8,2,2.4V117.1z"/>
	<path d="M161.2,117.1h-1v-0.9h0c-0.4,0.7-1,1.1-1.9,1.1c-1.4,0-2.1-0.9-2.1-2.6v-3.6h1v3.4c0,1.3,0.5,1.9,1.5,1.9
		c0.5,0,0.9-0.2,1.2-0.5s0.5-0.8,0.5-1.4v-3.5h1V117.1z"/>
	<path d="M164.1,117.1h-1v-8.9h1V117.1z"/>
	<path d="M168.8,117c-0.2,0.1-0.5,0.2-0.9,0.2c-1.1,0-1.6-0.6-1.6-1.8v-3.6h-1v-0.8h1v-1.5l1-0.3v1.8h1.5v0.8h-1.5v3.4
		c0,0.4,0.1,0.7,0.2,0.9s0.4,0.3,0.7,0.3c0.2,0,0.5-0.1,0.6-0.2V117z"/>
	<path d="M170.6,109.6c-0.2,0-0.3-0.1-0.4-0.2s-0.2-0.3-0.2-0.4s0.1-0.3,0.2-0.4s0.3-0.2,0.4-0.2c0.2,0,0.3,0.1,0.4,0.2
		s0.2,0.3,0.2,0.4c0,0.2-0.1,0.3-0.2,0.4S170.8,109.6,170.6,109.6z M171.1,117.1h-1v-6h1V117.1z"/>
	<path d="M174,116.2L174,116.2l0,3.6h-1v-8.8h1v1.1h0c0.5-0.8,1.2-1.2,2.1-1.2c0.8,0,1.4,0.3,1.8,0.8s0.7,1.3,0.7,2.2
		c0,1-0.2,1.8-0.7,2.4s-1.2,0.9-2,0.9C175,117.2,174.4,116.9,174,116.2z M174,113.8v0.8c0,0.5,0.2,0.9,0.5,1.3s0.7,0.5,1.2,0.5
		c0.6,0,1-0.2,1.4-0.7s0.5-1.1,0.5-1.9c0-0.7-0.2-1.2-0.5-1.6s-0.7-0.6-1.3-0.6c-0.6,0-1,0.2-1.3,0.6S174,113.2,174,113.8z"/>
	<path d="M181,117.1h-1v-8.9h1V117.1z"/>
	<path d="M187.8,111.1l-2.8,7c-0.5,1.2-1.2,1.9-2.1,1.9c-0.3,0-0.5,0-0.6-0.1V119c0.2,0.1,0.4,0.1,0.6,0.1c0.5,0,0.8-0.3,1.1-0.9
		l0.5-1.1l-2.3-6h1.1l1.6,4.6c0,0.1,0.1,0.2,0.1,0.5h0c0-0.1,0.1-0.2,0.1-0.4l1.7-4.6H187.8z"/>
	<path d="M189.3,109.6c-0.2,0-0.3-0.1-0.4-0.2s-0.2-0.3-0.2-0.4s0.1-0.3,0.2-0.4s0.3-0.2,0.4-0.2c0.2,0,0.3,0.1,0.4,0.2
		s0.2,0.3,0.2,0.4c0,0.2-0.1,0.3-0.2,0.4S189.5,109.6,189.3,109.6z M189.8,117.1h-1v-6h1V117.1z"/>
	<path d="M196.7,117.1h-1v-3.4c0-1.3-0.5-1.9-1.4-1.9c-0.5,0-0.9,0.2-1.2,0.5s-0.5,0.8-0.5,1.4v3.4h-1v-6h1v1h0
		c0.5-0.8,1.1-1.1,2-1.1c0.7,0,1.2,0.2,1.5,0.6s0.5,1,0.5,1.8V117.1z"/>
	<path d="M203.6,116.6c0,2.2-1.1,3.3-3.2,3.3c-0.7,0-1.4-0.1-1.9-0.4v-1c0.7,0.4,1.3,0.6,1.9,0.6c1.5,0,2.2-0.8,2.2-2.4v-0.7h0
		c-0.5,0.8-1.1,1.1-2.1,1.1c-0.7,0-1.3-0.3-1.8-0.8s-0.7-1.2-0.7-2.1c0-1,0.2-1.8,0.7-2.4s1.2-0.9,2-0.9c0.8,0,1.4,0.3,1.8,1h0v-0.8
		h1V116.6z M202.7,114.4v-0.9c0-0.5-0.2-0.9-0.5-1.2s-0.7-0.5-1.2-0.5c-0.6,0-1.1,0.2-1.4,0.6s-0.5,1-0.5,1.8c0,0.7,0.2,1.2,0.5,1.6
		s0.7,0.6,1.3,0.6c0.5,0,1-0.2,1.3-0.6S202.7,115,202.7,114.4z"/>
	<path d="M211.4,117.2c-0.9,0-1.6-0.3-2.1-0.8s-0.8-1.3-0.8-2.2c0-1,0.3-1.8,0.8-2.4s1.3-0.8,2.2-0.8c0.9,0,1.6,0.3,2.1,0.8
		s0.8,1.3,0.8,2.3c0,1-0.3,1.7-0.8,2.3S212.3,117.2,211.4,117.2z M211.4,111.8c-0.6,0-1.1,0.2-1.5,0.6s-0.5,1-0.5,1.7
		c0,0.7,0.2,1.3,0.5,1.7s0.8,0.6,1.5,0.6c0.6,0,1.1-0.2,1.4-0.6s0.5-1,0.5-1.7c0-0.8-0.2-1.3-0.5-1.7S212.1,111.8,211.4,111.8z"/>
	<path d="M219,112.1c-0.2-0.1-0.4-0.2-0.7-0.2c-0.4,0-0.8,0.2-1,0.6s-0.4,0.9-0.4,1.6v3.1h-1v-6h1v1.2h0c0.1-0.4,0.3-0.8,0.6-1
		s0.6-0.4,0.9-0.4c0.3,0,0.4,0,0.6,0.1V112.1z"/>
	<path d="M228.5,117.1h-1v-1h0c-0.4,0.8-1.1,1.2-2.1,1.2c-0.8,0-1.4-0.3-1.8-0.8s-0.7-1.3-0.7-2.2c0-1,0.3-1.8,0.8-2.4
		s1.2-0.9,2-0.9c0.8,0,1.4,0.3,1.8,1h0v-3.7h1V117.1z M227.5,114.4v-0.9c0-0.5-0.2-0.9-0.5-1.2s-0.7-0.5-1.2-0.5
		c-0.6,0-1,0.2-1.4,0.6s-0.5,1-0.5,1.8c0,0.7,0.2,1.2,0.5,1.6s0.8,0.6,1.3,0.6c0.5,0,1-0.2,1.3-0.6S227.5,115,227.5,114.4z"/>
	<path d="M230.9,109.6c-0.2,0-0.3-0.1-0.4-0.2s-0.2-0.3-0.2-0.4s0.1-0.3,0.2-0.4s0.3-0.2,0.4-0.2c0.2,0,0.3,0.1,0.4,0.2
		s0.2,0.3,0.2,0.4c0,0.2-0.1,0.3-0.2,0.4S231.1,109.6,230.9,109.6z M231.4,117.1h-1v-6h1V117.1z"/>
	<path d="M238,111.1l-2.4,6h-0.9l-2.3-6h1.1l1.5,4.4c0.1,0.3,0.2,0.6,0.2,0.8h0c0-0.3,0.1-0.6,0.2-0.8l1.6-4.4H238z"/>
	<path d="M239.6,109.6c-0.2,0-0.3-0.1-0.4-0.2s-0.2-0.3-0.2-0.4s0.1-0.3,0.2-0.4s0.3-0.2,0.4-0.2c0.2,0,0.3,0.1,0.4,0.2
		s0.2,0.3,0.2,0.4c0,0.2-0.1,0.3-0.2,0.4S239.7,109.6,239.6,109.6z M240,117.1h-1v-6h1V117.1z"/>
	<path d="M247.1,117.1h-1v-1h0c-0.4,0.8-1.1,1.2-2.1,1.2c-0.8,0-1.4-0.3-1.8-0.8s-0.7-1.3-0.7-2.2c0-1,0.3-1.8,0.8-2.4
		s1.2-0.9,2-0.9c0.8,0,1.4,0.3,1.8,1h0v-3.7h1V117.1z M246.1,114.4v-0.9c0-0.5-0.2-0.9-0.5-1.2s-0.7-0.5-1.2-0.5
		c-0.6,0-1,0.2-1.4,0.6s-0.5,1-0.5,1.8c0,0.7,0.2,1.2,0.5,1.6s0.8,0.6,1.3,0.6c0.5,0,1-0.2,1.3-0.6S246.1,115,246.1,114.4z"/>
	<path d="M249.5,109.6c-0.2,0-0.3-0.1-0.4-0.2s-0.2-0.3-0.2-0.4s0.1-0.3,0.2-0.4s0.3-0.2,0.4-0.2c0.2,0,0.3,0.1,0.4,0.2
		s0.2,0.3,0.2,0.4c0,0.2-0.1,0.3-0.2,0.4S249.7,109.6,249.5,109.6z M250,117.1h-1v-6h1V117.1z"/>
	<path d="M256.9,117.1h-1v-3.4c0-1.3-0.5-1.9-1.4-1.9c-0.5,0-0.9,0.2-1.2,0.5s-0.5,0.8-0.5,1.4v3.4h-1v-6h1v1h0
		c0.5-0.8,1.1-1.1,2-1.1c0.7,0,1.2,0.2,1.5,0.6s0.5,1,0.5,1.8V117.1z"/>
	<path d="M263.9,116.6c0,2.2-1.1,3.3-3.2,3.3c-0.7,0-1.4-0.1-1.9-0.4v-1c0.7,0.4,1.3,0.6,1.9,0.6c1.5,0,2.2-0.8,2.2-2.4v-0.7h0
		c-0.5,0.8-1.1,1.1-2.1,1.1c-0.7,0-1.3-0.3-1.8-0.8s-0.7-1.2-0.7-2.1c0-1,0.2-1.8,0.7-2.4s1.2-0.9,2-0.9c0.8,0,1.4,0.3,1.8,1h0v-0.8
		h1V116.6z M262.9,114.4v-0.9c0-0.5-0.2-0.9-0.5-1.2s-0.7-0.5-1.2-0.5c-0.6,0-1.1,0.2-1.4,0.6s-0.5,1-0.5,1.8c0,0.7,0.2,1.2,0.5,1.6
		s0.7,0.6,1.3,0.6c0.5,0,1-0.2,1.3-0.6S262.9,115,262.9,114.4z"/>
	<path d="M271.9,117c-0.2,0.1-0.5,0.2-0.9,0.2c-1.1,0-1.6-0.6-1.6-1.8v-3.6h-1v-0.8h1v-1.5l1-0.3v1.8h1.5v0.8h-1.5v3.4
		c0,0.4,0.1,0.7,0.2,0.9s0.4,0.3,0.7,0.3c0.2,0,0.5-0.1,0.6-0.2V117z"/>
	<path d="M280.7,111.1l-1.8,6h-1l-1.2-4.3c0-0.2-0.1-0.3-0.1-0.6h0c0,0.1-0.1,0.3-0.1,0.5l-1.3,4.3h-1l-1.8-6h1l1.2,4.5
		c0,0.1,0.1,0.3,0.1,0.5h0c0-0.2,0-0.4,0.1-0.6l1.4-4.5h0.9l1.2,4.5c0,0.1,0.1,0.3,0.1,0.5h0c0-0.2,0-0.3,0.1-0.5l1.2-4.5H280.7z"/>
	<path d="M284.3,117.2c-0.9,0-1.6-0.3-2.1-0.8s-0.8-1.3-0.8-2.2c0-1,0.3-1.8,0.8-2.4s1.3-0.8,2.2-0.8c0.9,0,1.6,0.3,2.1,0.8
		s0.8,1.3,0.8,2.3c0,1-0.3,1.7-0.8,2.3S285.2,117.2,284.3,117.2z M284.4,111.8c-0.6,0-1.1,0.2-1.5,0.6s-0.5,1-0.5,1.7
		c0,0.7,0.2,1.3,0.5,1.7s0.8,0.6,1.5,0.6c0.6,0,1.1-0.2,1.4-0.6s0.5-1,0.5-1.7c0-0.8-0.2-1.3-0.5-1.7S285,111.8,284.4,111.8z"/>
	<path d="M297.1,117.1h-1v-3.4c0-1.3-0.5-1.9-1.4-1.9c-0.5,0-0.9,0.2-1.2,0.5s-0.5,0.8-0.5,1.4v3.4h-1v-6h1v1h0
		c0.5-0.8,1.1-1.1,2-1.1c0.7,0,1.2,0.2,1.5,0.6s0.5,1,0.5,1.8V117.1z"/>
	<path d="M303.8,117.1h-1v-0.9h0c-0.4,0.7-1,1.1-1.9,1.1c-1.4,0-2.1-0.9-2.1-2.6v-3.6h1v3.4c0,1.3,0.5,1.9,1.5,1.9
		c0.5,0,0.9-0.2,1.2-0.5s0.5-0.8,0.5-1.4v-3.5h1V117.1z"/>
	<path d="M314.2,117.1h-1v-3.4c0-0.7-0.1-1.1-0.3-1.4s-0.5-0.4-1-0.4c-0.4,0-0.8,0.2-1,0.6s-0.4,0.8-0.4,1.3v3.4h-1v-3.6
		c0-1.2-0.5-1.8-1.4-1.8c-0.4,0-0.8,0.2-1,0.5s-0.4,0.8-0.4,1.4v3.4h-1v-6h1v0.9h0c0.4-0.7,1-1.1,1.9-1.1c0.4,0,0.8,0.1,1.1,0.3
		s0.5,0.5,0.6,0.9c0.4-0.8,1.1-1.2,2-1.2c1.3,0,2,0.8,2,2.4V117.1z"/>
	<path d="M317,116.2L317,116.2l0,0.9h-1v-8.9h1v3.9h0c0.5-0.8,1.2-1.2,2.1-1.2c0.8,0,1.4,0.3,1.8,0.8s0.7,1.3,0.7,2.2
		c0,1-0.2,1.8-0.7,2.4s-1.2,0.9-2,0.9C318,117.2,317.4,116.9,317,116.2z M317,113.8v0.8c0,0.5,0.2,0.9,0.5,1.3s0.7,0.5,1.2,0.5
		c0.6,0,1-0.2,1.4-0.7s0.5-1.1,0.5-1.9c0-0.7-0.2-1.2-0.5-1.6s-0.7-0.6-1.3-0.6c-0.6,0-1,0.2-1.3,0.6S317,113.2,317,113.8z"/>
	<path d="M327.9,114.3h-4.2c0,0.7,0.2,1.2,0.5,1.5s0.8,0.5,1.4,0.5c0.7,0,1.3-0.2,1.9-0.7v0.9c-0.5,0.4-1.2,0.6-2.1,0.6
		c-0.8,0-1.5-0.3-2-0.8s-0.7-1.3-0.7-2.3c0-0.9,0.3-1.7,0.8-2.3s1.2-0.9,2-0.9s1.4,0.3,1.8,0.8s0.6,1.2,0.6,2.1V114.3z M326.9,113.5
		c0-0.6-0.1-1-0.4-1.3s-0.6-0.5-1.1-0.5c-0.5,0-0.8,0.2-1.2,0.5s-0.5,0.7-0.6,1.3H326.9z"/>
	<path d="M332.5,112.1c-0.2-0.1-0.4-0.2-0.7-0.2c-0.4,0-0.8,0.2-1,0.6s-0.4,0.9-0.4,1.6v3.1h-1v-6h1v1.2h0c0.1-0.4,0.3-0.8,0.6-1
		s0.6-0.4,0.9-0.4c0.3,0,0.4,0,0.6,0.1V112.1z"/>
	<path d="M333.2,116.9v-1c0.5,0.4,1.1,0.6,1.7,0.6c0.8,0,1.3-0.3,1.3-0.8c0-0.2,0-0.3-0.1-0.4s-0.2-0.2-0.3-0.3s-0.3-0.2-0.4-0.2
		s-0.3-0.1-0.5-0.2c-0.3-0.1-0.5-0.2-0.7-0.3s-0.4-0.2-0.5-0.4s-0.2-0.3-0.3-0.5s-0.1-0.4-0.1-0.6c0-0.3,0.1-0.5,0.2-0.7
		s0.3-0.4,0.5-0.5s0.5-0.3,0.7-0.3s0.6-0.1,0.9-0.1c0.5,0,1,0.1,1.4,0.3v1c-0.4-0.3-0.9-0.4-1.5-0.4c-0.2,0-0.3,0-0.5,0.1
		s-0.3,0.1-0.4,0.2s-0.2,0.2-0.2,0.3s-0.1,0.2-0.1,0.3c0,0.2,0,0.3,0.1,0.4s0.1,0.2,0.2,0.3s0.2,0.2,0.4,0.2s0.3,0.1,0.5,0.2
		c0.3,0.1,0.5,0.2,0.7,0.3s0.4,0.2,0.5,0.4s0.3,0.3,0.3,0.5s0.1,0.4,0.1,0.6c0,0.3-0.1,0.6-0.2,0.8s-0.3,0.4-0.5,0.5
		s-0.5,0.3-0.8,0.3s-0.6,0.1-0.9,0.1C334.2,117.2,333.7,117.1,333.2,116.9z"/>
</g>
</svg>
