<?xml version="1.0" encoding="utf-8"?>
<!-- Generator: Adobe Illustrator 21.1.0, SVG Export Plug-In . SVG Version: 6.00 Build 0)  -->
<svg version="1.1" id="Слой_1" xmlns="http://www.w3.org/2000/svg" xmlns:xlink="http://www.w3.org/1999/xlink" x="0px" y="0px"
	 width="540px" height="271.9px" viewBox="0 0 540 271.9" style="enable-background:new 0 0 540 271.9;" xml:space="preserve">
<style type="text/css">
	.st0{font-family:'MyriadPro-Regular';}
	.st1{font-size:26.7705px;}
	.st2{font-size:33.3557px;}
	.st3{font-size:34.722px;}
	.st4{font-size:34.72px;}
	.st5{font-size:53.541px;}
	.st6{font-size:31.2323px;}
</style>
<text transform="matrix(1 0 0 1 2.642155e-02 265.2126)" class="st0 st1">Table 2.2: Table of signs for adding two numbers.</text>
<g>
	<g>
		<defs>
			<rect id="SVGID_1_" x="146.2" width="247.6" height="1.6"/>
		</defs>
		<clipPath id="SVGID_2_">
			<use xlink:href="#SVGID_1_"  style="overflow:visible;"/>
		</clipPath>
		<g transform="matrix(1 0 0 1 0 -1.192093e-07)" style="clip-path:url(#SVGID_2_);">
			
				<image style="overflow:visible;" width="1" height="1" xlink:href="30F10FF.png"  transform="matrix(247.6327 0 0 -1.6071 146.1595 1.6071)">
			</image>
		</g>
	</g>
	<g>
		<defs>
			<rect id="SVGID_3_" x="146.2" y="1.2" width="1.6" height="40.2"/>
		</defs>
		<clipPath id="SVGID_4_">
			<use xlink:href="#SVGID_3_"  style="overflow:visible;"/>
		</clipPath>
		<g style="clip-path:url(#SVGID_4_);">
			
				<image style="overflow:visible;" width="1" height="1" xlink:href="30F10FD.png"  transform="matrix(1.6071 0 0 -40.177 146.1595 41.3822)">
			</image>
		</g>
	</g>
	<g>
		<defs>
			<rect id="SVGID_5_" x="213.7" y="1.2" width="1.6" height="40.2"/>
		</defs>
		<clipPath id="SVGID_6_">
			<use xlink:href="#SVGID_5_"  style="overflow:visible;"/>
		</clipPath>
		<g transform="matrix(1 0 0 1 -1.525879e-05 0)" style="clip-path:url(#SVGID_6_);">
			
				<image style="overflow:visible;" width="1" height="1" xlink:href="30F1103.png"  transform="matrix(1.6071 0 0 -40.177 213.6569 41.3822)">
			</image>
		</g>
	</g>
	<g>
		<defs>
			<rect id="SVGID_7_" x="280.8" y="1.2" width="1.6" height="40.2"/>
		</defs>
		<clipPath id="SVGID_8_">
			<use xlink:href="#SVGID_7_"  style="overflow:visible;"/>
		</clipPath>
		<g style="clip-path:url(#SVGID_8_);">
			
				<image style="overflow:visible;" width="1" height="1" xlink:href="30F1105.png"  transform="matrix(1.6071 0 0 -40.177 280.7524 41.3822)">
			</image>
		</g>
	</g>
	<text transform="matrix(1 0 0 1 327.3974 29.2883)" class="st0 st2">+</text>
	<g>
		<defs>
			<rect id="SVGID_9_" x="392.7" y="1.2" width="1.1" height="40.2"/>
		</defs>
		<clipPath id="SVGID_10_">
			<use xlink:href="#SVGID_9_"  style="overflow:visible;"/>
		</clipPath>
		<g style="clip-path:url(#SVGID_10_);">
			
				<image style="overflow:visible;" width="1" height="1" xlink:href="30F1107.png"  transform="matrix(1.0685 0 0 -40.177 392.7238 41.3822)">
			</image>
		</g>
	</g>
	<g>
		<defs>
			<rect id="SVGID_11_" x="146.2" y="41" width="247.6" height="1.6"/>
		</defs>
		<clipPath id="SVGID_12_">
			<use xlink:href="#SVGID_11_"  style="overflow:visible;"/>
		</clipPath>
		<g style="clip-path:url(#SVGID_12_);">
			
				<image style="overflow:visible;" width="1" height="1" xlink:href="30F1104.png"  transform="matrix(247.6327 0 0 -1.6071 146.1595 42.5876)">
			</image>
		</g>
	</g>
	<g>
		<defs>
			<rect id="SVGID_13_" x="146.2" y="49" width="247.6" height="1.6"/>
		</defs>
		<clipPath id="SVGID_14_">
			<use xlink:href="#SVGID_13_"  style="overflow:visible;"/>
		</clipPath>
		<g style="clip-path:url(#SVGID_14_);">
			
				<image style="overflow:visible;" width="1" height="1" xlink:href="30F110C.png"  transform="matrix(247.6327 0 0 -1.6071 146.1595 50.623)">
			</image>
		</g>
	</g>
	<g>
		<defs>
			<rect id="SVGID_15_" x="146.2" y="50.6" width="1.6" height="40.2"/>
		</defs>
		<clipPath id="SVGID_16_">
			<use xlink:href="#SVGID_15_"  style="overflow:visible;"/>
		</clipPath>
		<g style="clip-path:url(#SVGID_16_);">
			
				<image style="overflow:visible;" width="1" height="1" xlink:href="30F110D.png"  transform="matrix(1.6071 0 0 -40.177 146.1595 90.8)">
			</image>
		</g>
	</g>
	<g>
		<defs>
			<rect id="SVGID_17_" x="213.7" y="50.6" width="1.6" height="40.2"/>
		</defs>
		<clipPath id="SVGID_18_">
			<use xlink:href="#SVGID_17_"  style="overflow:visible;"/>
		</clipPath>
		<g transform="matrix(1 0 0 1 -1.525879e-05 0)" style="clip-path:url(#SVGID_18_);">
			
				<image style="overflow:visible;" width="1" height="1" xlink:href="30F110F.png"  transform="matrix(1.6071 0 0 -40.177 213.6569 90.8)">
			</image>
		</g>
	</g>
	<g>
		<defs>
			<rect id="SVGID_19_" x="280.8" y="50.6" width="1.6" height="40.2"/>
		</defs>
		<clipPath id="SVGID_20_">
			<use xlink:href="#SVGID_19_"  style="overflow:visible;"/>
		</clipPath>
		<g style="clip-path:url(#SVGID_20_);">
			
				<image style="overflow:visible;" width="1" height="1" xlink:href="712D74EC.png"  transform="matrix(1.6071 0 0 -40.177 280.7524 90.8)">
			</image>
		</g>
	</g>
	<g>
		<defs>
			<rect id="SVGID_21_" x="392.7" y="50.6" width="1.1" height="40.2"/>
		</defs>
		<clipPath id="SVGID_22_">
			<use xlink:href="#SVGID_21_"  style="overflow:visible;"/>
		</clipPath>
		<g style="clip-path:url(#SVGID_22_);">
			
				<image style="overflow:visible;" width="1" height="1" xlink:href="712D74EB.png"  transform="matrix(1.0685 0 0 -40.177 392.7238 90.8)">
			</image>
		</g>
	</g>
	<g>
		<defs>
			<rect id="SVGID_23_" x="146.2" y="90.4" width="247.6" height="1.6"/>
		</defs>
		<clipPath id="SVGID_24_">
			<use xlink:href="#SVGID_23_"  style="overflow:visible;"/>
		</clipPath>
		<g style="clip-path:url(#SVGID_24_);">
			
				<image style="overflow:visible;" width="1" height="1" xlink:href="712D74E4.png"  transform="matrix(247.6327 0 0 -1.6071 146.1595 92.0053)">
			</image>
		</g>
	</g>
	<g>
		<defs>
			<rect id="SVGID_25_" x="146.2" y="92" width="1.6" height="40.2"/>
		</defs>
		<clipPath id="SVGID_26_">
			<use xlink:href="#SVGID_25_"  style="overflow:visible;"/>
		</clipPath>
		<g style="clip-path:url(#SVGID_26_);">
			
				<image style="overflow:visible;" width="1" height="1" xlink:href="712D74E7.png"  transform="matrix(1.6071 0 0 -40.177 146.1595 132.1822)">
			</image>
		</g>
	</g>
	<g>
		<defs>
			<rect id="SVGID_27_" x="213.7" y="92" width="1.6" height="40.2"/>
		</defs>
		<clipPath id="SVGID_28_">
			<use xlink:href="#SVGID_27_"  style="overflow:visible;"/>
		</clipPath>
		<g transform="matrix(1 0 0 1 -1.525879e-05 0)" style="clip-path:url(#SVGID_28_);">
			
				<image style="overflow:visible;" width="1" height="1" xlink:href="712D74E5.png"  transform="matrix(1.6071 0 0 -40.177 213.6569 132.1822)">
			</image>
		</g>
	</g>
	<g>
		<defs>
			<rect id="SVGID_29_" x="280.8" y="92" width="1.6" height="40.2"/>
		</defs>
		<clipPath id="SVGID_30_">
			<use xlink:href="#SVGID_29_"  style="overflow:visible;"/>
		</clipPath>
		<g style="clip-path:url(#SVGID_30_);">
			
				<image style="overflow:visible;" width="1" height="1" xlink:href="712D74FB.png"  transform="matrix(1.6071 0 0 -40.177 280.7524 132.1822)">
			</image>
		</g>
	</g>
	<g>
		<defs>
			<rect id="SVGID_31_" x="392.7" y="92" width="1.1" height="40.2"/>
		</defs>
		<clipPath id="SVGID_32_">
			<use xlink:href="#SVGID_31_"  style="overflow:visible;"/>
		</clipPath>
		<g style="clip-path:url(#SVGID_32_);">
			
				<image style="overflow:visible;" width="1" height="1" xlink:href="712D74FC.png"  transform="matrix(1.0685 0 0 -40.177 392.7238 132.1822)">
			</image>
		</g>
	</g>
	<g>
		<defs>
			<rect id="SVGID_33_" x="146.2" y="131.8" width="247.6" height="1.6"/>
		</defs>
		<clipPath id="SVGID_34_">
			<use xlink:href="#SVGID_33_"  style="overflow:visible;"/>
		</clipPath>
		<g style="clip-path:url(#SVGID_34_);">
			
				<image style="overflow:visible;" width="1" height="1" xlink:href="712D74FF.png"  transform="matrix(247.6327 0 0 -1.6071 146.1595 133.3876)">
			</image>
		</g>
	</g>
	<g>
		<defs>
			<rect id="SVGID_35_" x="146.2" y="133.4" width="1.6" height="40.2"/>
		</defs>
		<clipPath id="SVGID_36_">
			<use xlink:href="#SVGID_35_"  style="overflow:visible;"/>
		</clipPath>
		<g style="clip-path:url(#SVGID_36_);">
			
				<image style="overflow:visible;" width="1" height="1" xlink:href="712D74FD.png"  transform="matrix(1.6071 0 0 -40.177 146.1595 173.5645)">
			</image>
		</g>
	</g>
	<g>
		<defs>
			<rect id="SVGID_37_" x="213.7" y="133.4" width="1.6" height="40.2"/>
		</defs>
		<clipPath id="SVGID_38_">
			<use xlink:href="#SVGID_37_"  style="overflow:visible;"/>
		</clipPath>
		<g transform="matrix(1 0 0 1 -1.525879e-05 0)" style="clip-path:url(#SVGID_38_);">
			
				<image style="overflow:visible;" width="1" height="1" xlink:href="712D74FA.png"  transform="matrix(1.6071 0 0 -40.177 213.6569 173.5645)">
			</image>
		</g>
	</g>
	<g>
		<defs>
			<rect id="SVGID_39_" x="280.8" y="133.4" width="1.6" height="40.2"/>
		</defs>
		<clipPath id="SVGID_40_">
			<use xlink:href="#SVGID_39_"  style="overflow:visible;"/>
		</clipPath>
		<g style="clip-path:url(#SVGID_40_);">
			
				<image style="overflow:visible;" width="1" height="1" xlink:href="712D751F.png"  transform="matrix(1.6071 0 0 -40.177 280.7524 173.5645)">
			</image>
		</g>
	</g>
	<g>
		<defs>
			<rect id="SVGID_41_" x="392.7" y="133.4" width="1.1" height="40.2"/>
		</defs>
		<clipPath id="SVGID_42_">
			<use xlink:href="#SVGID_41_"  style="overflow:visible;"/>
		</clipPath>
		<g style="clip-path:url(#SVGID_42_);">
			
				<image style="overflow:visible;" width="1" height="1" xlink:href="712D7519.png"  transform="matrix(1.0685 0 0 -40.177 392.7238 173.5645)">
			</image>
		</g>
	</g>
	<g>
		<defs>
			<rect id="SVGID_43_" x="146.2" y="173.2" width="247.6" height="1.6"/>
		</defs>
		<clipPath id="SVGID_44_">
			<use xlink:href="#SVGID_43_"  style="overflow:visible;"/>
		</clipPath>
		<g style="clip-path:url(#SVGID_44_);">
			
				<image style="overflow:visible;" width="1" height="1" xlink:href="712D751B.png"  transform="matrix(247.6327 0 0 -1.6071 146.1595 174.7698)">
			</image>
		</g>
	</g>
	<g>
		<defs>
			<rect id="SVGID_45_" x="146.2" y="174.8" width="1.6" height="40.2"/>
		</defs>
		<clipPath id="SVGID_46_">
			<use xlink:href="#SVGID_45_"  style="overflow:visible;"/>
		</clipPath>
		<g transform="matrix(1 0 0 1 0 -1.525879e-05)" style="clip-path:url(#SVGID_46_);">
			
				<image style="overflow:visible;" width="1" height="1" xlink:href="712D7516.png"  transform="matrix(1.6071 0 0 -40.177 146.1595 214.9468)">
			</image>
		</g>
	</g>
	<g>
		<defs>
			<rect id="SVGID_47_" x="213.7" y="174.8" width="1.6" height="40.2"/>
		</defs>
		<clipPath id="SVGID_48_">
			<use xlink:href="#SVGID_47_"  style="overflow:visible;"/>
		</clipPath>
		<g transform="matrix(1 0 0 1 -1.525879e-05 -1.525879e-05)" style="clip-path:url(#SVGID_48_);">
			
				<image style="overflow:visible;" width="1" height="1" xlink:href="712D7517.png"  transform="matrix(1.6071 0 0 -40.177 213.6569 214.9468)">
			</image>
		</g>
	</g>
	<g>
		<defs>
			<rect id="SVGID_49_" x="280.8" y="174.8" width="1.6" height="40.2"/>
		</defs>
		<clipPath id="SVGID_50_">
			<use xlink:href="#SVGID_49_"  style="overflow:visible;"/>
		</clipPath>
		<g transform="matrix(1 0 0 1 0 -1.525879e-05)" style="clip-path:url(#SVGID_50_);">
			
				<image style="overflow:visible;" width="1" height="1" xlink:href="712D7509.png"  transform="matrix(1.6071 0 0 -40.177 280.7524 214.9468)">
			</image>
		</g>
	</g>
	<g>
		<defs>
			<rect id="SVGID_51_" x="392.7" y="174.8" width="1.1" height="40.2"/>
		</defs>
		<clipPath id="SVGID_52_">
			<use xlink:href="#SVGID_51_"  style="overflow:visible;"/>
		</clipPath>
		<g transform="matrix(1 0 0 1 0 -1.525879e-05)" style="clip-path:url(#SVGID_52_);">
			
				<image style="overflow:visible;" width="1" height="1" xlink:href="712D750B.png"  transform="matrix(1.0685 0 0 -40.177 392.7238 214.9468)">
			</image>
		</g>
	</g>
	<g>
		<defs>
			<rect id="SVGID_53_" x="146.2" y="214.5" width="247.6" height="1.6"/>
		</defs>
		<clipPath id="SVGID_54_">
			<use xlink:href="#SVGID_53_"  style="overflow:visible;"/>
		</clipPath>
		<g style="clip-path:url(#SVGID_54_);">
			
				<image style="overflow:visible;" width="1" height="1" xlink:href="712D750E.png"  transform="matrix(247.6327 0 0 -1.6071 146.1595 216.1522)">
			</image>
		</g>
	</g>
	<text transform="matrix(1 0 0 1 168.1913 78.0627)" class="st0 st3">+</text>
	<text transform="matrix(1 0 0 1 241.0244 78.0627)" class="st0 st3">+</text>
	<text transform="matrix(1 0 0 1 328.228 78.0627)" class="st0 st3">+</text>
	<text transform="matrix(1 0 0 1 168.1913 121.3108)" class="st0 st3">+</text>
	<text transform="matrix(1 0 0 1 241.0244 163.7805)" class="st0 st3">+</text>
	<text transform="matrix(1 0 0 1 332.2709 166.304)" class="st0 st4">?</text>
	<text transform="matrix(1 0 0 1 243.1533 126.8342)" class="st0 st5">-</text>
	<text transform="matrix(1 0 0 1 243.1533 210.7825)" class="st0 st5">-</text>
	<text transform="matrix(1 0 0 1 332.2709 123.8342)" class="st0 st4">?</text>
	<text transform="matrix(1 0 0 1 168.1923 169.304)" class="st0 st5">-</text>
	<text transform="matrix(1 0 0 1 168.1923 210.7825)" class="st0 st5">-</text>
	<text transform="matrix(1 0 0 1 171.166 29.8196)" class="st0 st6">a</text>
	<text transform="matrix(1 0 0 1 238.0917 29.8196)" class="st0 st6">b</text>
	<text transform="matrix(1 0 0 1 302.0439 29.8196)" class="st0 st6">a</text>
	<text transform="matrix(1 0 0 1 358.56 29.8196)" class="st0 st6">b</text>
	<text transform="matrix(1 0 0 1 330.2709 210.304)" class="st0 st5">-</text>
</g>
</svg>
