<?xml version="1.0" encoding="utf-8"?>
<!-- Generator: Adobe Illustrator 21.1.0, SVG Export Plug-In . SVG Version: 6.00 Build 0)  -->
<svg version="1.1" id="Слой_1" xmlns="http://www.w3.org/2000/svg" xmlns:xlink="http://www.w3.org/1999/xlink" x="0px" y="0px"
	 width="298.8px" height="161.2px" viewBox="0 0 298.8 161.2" style="enable-background:new 0 0 298.8 161.2;" xml:space="preserve"
	>
<style type="text/css">
	.st0{fill:#BFBFBF;}
	.st1{fill:none;stroke:#000000;stroke-width:0.797;stroke-miterlimit:10;}
	.st2{fill:none;stroke:#000000;stroke-width:1.4944;stroke-miterlimit:10;}
	.st3{fill:none;stroke:#000000;stroke-width:0.3;stroke-miterlimit:10;}
</style>
<g>
	<path class="st0" d="M90.3,74.7H140c0-8.7-2.3-17.3-6.6-24.8"/>
	<path class="st1" d="M90.3,74.7H140c0-8.7-2.3-17.3-6.6-24.8L90.3,74.7z"/>
	<path class="st0" d="M90.3,74.7l43-24.8c-4.4-7.5-10.6-13.8-18.2-18.2"/>
	<path class="st1" d="M90.3,74.7l43-24.8c-4.4-7.5-10.6-13.8-18.2-18.2L90.3,74.7z"/>
	<path class="st0" d="M90.3,74.7l24.8-43c-7.5-4.4-16.1-6.6-24.8-6.6"/>
	<path class="st1" d="M90.3,74.7l24.8-43c-7.5-4.4-16.1-6.6-24.8-6.6V74.7z"/>
	<path class="st0" d="M90.3,74.7V25.1c-8.7,0-17.3,2.3-24.8,6.6"/>
	<path class="st1" d="M90.3,74.7V25.1c-8.7,0-17.3,2.3-24.8,6.6L90.3,74.7z"/>
	<path class="st0" d="M90.3,74.7l-24.8-43C58,36.1,51.7,42.4,47.4,49.9"/>
	<path class="st1" d="M90.3,74.7l-24.8-43C58,36.1,51.7,42.4,47.4,49.9L90.3,74.7z"/>
	<path class="st0" d="M90.3,74.7l-43-24.8C43,57.5,40.7,66,40.7,74.7"/>
	<path class="st1" d="M90.3,74.7l-43-24.8C43,57.5,40.7,66,40.7,74.7H90.3z"/>
	<path class="st0" d="M90.3,74.7H40.7c0,8.7,2.3,17.3,6.6,24.8"/>
	<path class="st1" d="M90.3,74.7H40.7c0,8.7,2.3,17.3,6.6,24.8L90.3,74.7z"/>
	<path class="st0" d="M90.3,74.7l-43,24.8c4.4,7.5,10.6,13.8,18.2,18.2"/>
	<path class="st1" d="M90.3,74.7l-43,24.8c4.4,7.5,10.6,13.8,18.2,18.2L90.3,74.7z"/>
	<path class="st1" d="M90.3,74.7l-24.8,43c7.5,4.4,16.1,6.6,24.8,6.6V74.7z"/>
	<path class="st1" d="M90.3,74.7v49.6c8.7,0,17.3-2.3,24.8-6.6L90.3,74.7z"/>
	<path class="st1" d="M90.3,74.7l24.8,43c7.5-4.4,13.8-10.6,18.2-18.2L90.3,74.7z"/>
	<path class="st1" d="M90.3,74.7l43,24.8c4.4-7.5,6.6-16.1,6.6-24.8H90.3z"/>
	<line class="st2" x1="139.5" y1="74.1" x2="148.9" y2="73.9"/>
	<polyline points="56.9,120 63.4,121.4 59.3,116.2 60.2,119.4 	"/>
	<path class="st2" d="M144.2,73.3l0,0.2c-0.7-29.2-24.6-52.6-53.8-52.6c-29.7,0-53.9,24.1-53.9,53.9c0,18,9,34.8,23.9,44.8"/>
	<path class="st0" d="M203.7,74.7h49.6c0-27.4-22.2-49.6-49.6-49.6c-8.7,0-17.3,2.3-24.8,6.6"/>
	<path class="st1" d="M203.7,74.7h49.6c0-27.4-22.2-49.6-49.6-49.6c-8.7,0-17.3,2.3-24.8,6.6L203.7,74.7z"/>
	<path class="st0" d="M203.7,74.7l-24.8-43c-15.3,8.9-24.8,25.2-24.8,43c0,17.7,9.5,34.1,24.8,43"/>
	<path class="st1" d="M203.7,74.7l-24.8-43c-15.3,8.9-24.8,25.2-24.8,43c0,17.7,9.5,34.1,24.8,43L203.7,74.7z"/>
	<path class="st1" d="M203.7,74.7l-24.8,43c7.5,4.4,16.1,6.6,24.8,6.6c27.4,0,49.6-22.2,49.6-49.6H203.7z"/>
	<line class="st2" x1="252.8" y1="74.1" x2="262.3" y2="73.9"/>
	<polyline points="170.3,120 176.8,121.4 172.7,116.2 173.6,119.4 	"/>
	<path class="st2" d="M257.6,73.3l0,0.2c-0.7-29.2-24.6-52.6-53.8-52.6c-29.7,0-53.9,24.1-53.9,53.9c0,18,9,34.8,23.9,44.8"/>
	<g>
		<path d="M89.9,2.8L89.9,2.8c-0.7-0.3-1-0.8-1-1.4c0-0.4,0.2-0.7,0.5-1S90.1,0,90.5,0c0.4,0,0.8,0.1,1.1,0.4S92,0.9,92,1.3
			c0,0.6-0.3,1.1-1,1.4v0c0.8,0.3,1.2,0.8,1.2,1.5c0,0.5-0.2,0.8-0.5,1.1s-0.8,0.4-1.4,0.4c-0.5,0-0.9-0.1-1.2-0.4s-0.5-0.6-0.5-1.1
			C88.7,3.6,89.1,3.1,89.9,2.8z M90.4,3.1c-0.7,0.3-1.1,0.7-1.1,1.2c0,0.3,0.1,0.5,0.3,0.7s0.5,0.3,0.8,0.3c0.3,0,0.6-0.1,0.8-0.3
			s0.3-0.4,0.3-0.7C91.6,3.8,91.2,3.3,90.4,3.1z M91.4,1.4c0-0.3-0.1-0.5-0.2-0.6s-0.4-0.2-0.7-0.2c-0.3,0-0.5,0.1-0.7,0.2
			s-0.3,0.4-0.3,0.6c0,0.5,0.3,0.9,0.9,1.1C91.1,2.2,91.4,1.8,91.4,1.4z"/>
	</g>
	<g>
		<path d="M90.2,13h-3.2v-0.6h1.3V8.1L87,8.5V7.9L89,7.3v5.2h1.3V13z"/>
		<path d="M94.4,13h-3.4v-0.6l1.6-1.6c0.4-0.4,0.7-0.8,0.9-1s0.3-0.6,0.3-0.9c0-0.3-0.1-0.6-0.3-0.8s-0.4-0.3-0.8-0.3
			c-0.5,0-1,0.2-1.4,0.6V7.8c0.4-0.3,0.9-0.5,1.5-0.5c0.5,0,0.9,0.1,1.2,0.4s0.4,0.6,0.4,1.1c0,0.4-0.1,0.7-0.3,1.1
			s-0.6,0.8-1.1,1.3l-1.3,1.3v0h2.6V13z"/>
	</g>
	<g>
		<path d="M205.4,5.7h-3.4V5.1l1.6-1.6c0.4-0.4,0.7-0.8,0.9-1s0.3-0.6,0.3-0.9c0-0.3-0.1-0.6-0.3-0.8s-0.4-0.3-0.8-0.3
			c-0.5,0-1,0.2-1.4,0.6V0.5c0.4-0.3,0.9-0.5,1.5-0.5c0.5,0,0.9,0.1,1.2,0.4s0.4,0.6,0.4,1.1c0,0.4-0.1,0.7-0.3,1.1
			s-0.6,0.8-1.1,1.3l-1.3,1.3v0h2.6V5.7z"/>
	</g>
	<g>
		<path d="M202.2,12.8v-0.7c0.4,0.3,0.8,0.5,1.3,0.5c0.4,0,0.7-0.1,0.9-0.3s0.3-0.5,0.3-0.8c0-0.7-0.5-1.1-1.6-1.1h-0.5V9.8h0.4
			c0.9,0,1.4-0.3,1.4-1c0-0.6-0.4-1-1.1-1c-0.4,0-0.8,0.1-1.1,0.4V7.6c0.4-0.2,0.8-0.3,1.3-0.3c0.5,0,0.8,0.1,1.1,0.4s0.4,0.6,0.4,1
			c0,0.7-0.4,1.2-1.1,1.4v0c0.4,0,0.7,0.2,1,0.4s0.4,0.5,0.4,0.9c0,0.5-0.2,0.9-0.5,1.2s-0.8,0.5-1.4,0.5
			C202.9,13.1,202.5,13,202.2,12.8z"/>
	</g>
	<line class="st3" x1="200.6" y1="6.8" x2="206.6" y2="6.8"/>
	<line class="st3" x1="86.6" y1="6.8" x2="93.6" y2="6.8"/>
</g>
<g>
	<g>
		<path d="M5.4,145.9H2.1v2.9h3v0.9h-3v3.7h-1V145h4.3V145.9z"/>
		<path d="M7.3,145.9c-0.2,0-0.3-0.1-0.4-0.2s-0.2-0.3-0.2-0.4s0.1-0.3,0.2-0.4s0.3-0.2,0.4-0.2c0.2,0,0.3,0.1,0.4,0.2
			s0.2,0.3,0.2,0.4c0,0.2-0.1,0.3-0.2,0.4S7.5,145.9,7.3,145.9z M7.8,153.4h-1v-6h1V153.4z"/>
		<path d="M14.9,152.9c0,2.2-1.1,3.3-3.2,3.3c-0.7,0-1.4-0.1-1.9-0.4v-1c0.7,0.4,1.3,0.6,1.9,0.6c1.5,0,2.2-0.8,2.2-2.4v-0.7h0
			c-0.5,0.8-1.1,1.1-2.1,1.1c-0.7,0-1.3-0.3-1.8-0.8s-0.7-1.2-0.7-2.1c0-1,0.2-1.8,0.7-2.4s1.2-0.9,2-0.9c0.8,0,1.4,0.3,1.8,1h0
			v-0.8h1V152.9z M13.9,150.7v-0.9c0-0.5-0.2-0.9-0.5-1.2s-0.7-0.5-1.2-0.5c-0.6,0-1.1,0.2-1.4,0.6s-0.5,1-0.5,1.8
			c0,0.7,0.2,1.2,0.5,1.6s0.7,0.6,1.3,0.6c0.5,0,1-0.2,1.3-0.6S13.9,151.3,13.9,150.7z"/>
		<path d="M21.7,153.4h-1v-0.9h0c-0.4,0.7-1,1.1-1.9,1.1c-1.4,0-2.1-0.9-2.1-2.6v-3.6h1v3.4c0,1.3,0.5,1.9,1.5,1.9
			c0.5,0,0.9-0.2,1.2-0.5s0.5-0.8,0.5-1.4v-3.5h1V153.4z"/>
		<path d="M26.7,148.4c-0.2-0.1-0.4-0.2-0.7-0.2c-0.4,0-0.8,0.2-1,0.6s-0.4,0.9-0.4,1.6v3.1h-1v-6h1v1.2h0c0.1-0.4,0.3-0.8,0.6-1
			s0.6-0.4,0.9-0.4c0.3,0,0.4,0,0.6,0.1V148.4z"/>
		<path d="M32.4,150.7h-4.2c0,0.7,0.2,1.2,0.5,1.5s0.8,0.5,1.4,0.5c0.7,0,1.3-0.2,1.9-0.7v0.9c-0.5,0.4-1.2,0.6-2.1,0.6
			c-0.8,0-1.5-0.3-2-0.8s-0.7-1.3-0.7-2.3c0-0.9,0.3-1.7,0.8-2.3s1.2-0.9,2-0.9s1.4,0.3,1.8,0.8s0.6,1.2,0.6,2.1V150.7z M31.4,149.8
			c0-0.6-0.1-1-0.4-1.3s-0.6-0.5-1.1-0.5c-0.5,0-0.8,0.2-1.2,0.5s-0.5,0.7-0.6,1.3H31.4z"/>
		<path d="M41.8,153.4h-5.1v-0.9l2.4-2.5c0.6-0.6,1.1-1.1,1.3-1.6s0.4-0.9,0.4-1.3c0-0.5-0.1-0.9-0.4-1.1s-0.7-0.4-1.2-0.4
			c-0.8,0-1.5,0.3-2.2,1v-1c0.7-0.5,1.4-0.8,2.3-0.8c0.8,0,1.3,0.2,1.8,0.6s0.6,1,0.6,1.6c0,0.5-0.1,1.1-0.4,1.6s-0.8,1.2-1.6,1.9
			l-1.9,1.9v0h3.9V153.4z"/>
		<path d="M44,153.5c-0.2,0-0.3-0.1-0.5-0.2s-0.2-0.3-0.2-0.5s0.1-0.3,0.2-0.5s0.3-0.2,0.5-0.2c0.2,0,0.3,0.1,0.5,0.2
			s0.2,0.3,0.2,0.5s-0.1,0.3-0.2,0.5S44.2,153.5,44,153.5z"/>
		<path d="M51.3,151.2h-1.1v2.2h-0.9v-2.2h-3.9v-0.6l3.7-5.5h1.2v5.4h1.1V151.2z M49.3,150.4v-3.6c0-0.3,0-0.5,0-0.9h0
			c-0.1,0.1-0.2,0.4-0.3,0.6l-2.6,3.9H49.3z"/>
		<path d="M53,148.6c-0.2,0-0.3-0.1-0.5-0.2s-0.2-0.3-0.2-0.5s0.1-0.3,0.2-0.5s0.3-0.2,0.5-0.2c0.2,0,0.3,0.1,0.5,0.2
			s0.2,0.3,0.2,0.5s-0.1,0.3-0.2,0.5S53.2,148.6,53,148.6z M53,153.5c-0.2,0-0.3-0.1-0.5-0.2s-0.2-0.3-0.2-0.5s0.1-0.3,0.2-0.5
			s0.3-0.2,0.5-0.2c0.2,0,0.3,0.1,0.5,0.2s0.2,0.3,0.2,0.5s-0.1,0.3-0.2,0.5S53.2,153.5,53,153.5z"/>
	</g>
	<g>
		<path d="M81.5,153.6c-0.9,0-1.6-0.3-2.1-0.8s-0.8-1.3-0.8-2.2c0-1,0.3-1.8,0.8-2.4s1.3-0.8,2.2-0.8c0.9,0,1.6,0.3,2.1,0.8
			s0.8,1.3,0.8,2.3c0,1-0.3,1.7-0.8,2.3S82.4,153.6,81.5,153.6z M81.6,148.1c-0.6,0-1.1,0.2-1.5,0.6s-0.5,1-0.5,1.7
			c0,0.7,0.2,1.3,0.5,1.7s0.8,0.6,1.5,0.6c0.6,0,1.1-0.2,1.4-0.6s0.5-1,0.5-1.7c0-0.8-0.2-1.3-0.5-1.7S82.2,148.1,81.6,148.1z"/>
		<path d="M88.8,145.4c-0.2-0.1-0.4-0.2-0.6-0.2c-0.7,0-1,0.4-1,1.3v0.9h1.4v0.8h-1.4v5.2h-1v-5.2h-1v-0.8h1v-1
			c0-0.6,0.2-1.1,0.5-1.5s0.8-0.5,1.4-0.5c0.3,0,0.5,0,0.7,0.1V145.4z"/>
		<path d="M95.6,153.4c-0.2,0.1-0.5,0.2-0.9,0.2c-1.1,0-1.6-0.6-1.6-1.8v-3.6h-1v-0.8h1v-1.5l1-0.3v1.8h1.5v0.8h-1.5v3.4
			c0,0.4,0.1,0.7,0.2,0.9s0.4,0.3,0.7,0.3c0.2,0,0.5-0.1,0.6-0.2V153.4z"/>
		<path d="M101.9,153.4h-1V150c0-1.3-0.5-1.9-1.4-1.9c-0.5,0-0.9,0.2-1.2,0.5s-0.5,0.8-0.5,1.4v3.4h-1v-8.9h1v3.9h0
			c0.5-0.8,1.1-1.1,2-1.1c1.4,0,2,0.8,2,2.4V153.4z"/>
		<path d="M108.5,150.7h-4.2c0,0.7,0.2,1.2,0.5,1.5s0.8,0.5,1.4,0.5c0.7,0,1.3-0.2,1.9-0.7v0.9c-0.5,0.4-1.2,0.6-2.1,0.6
			c-0.8,0-1.5-0.3-2-0.8s-0.7-1.3-0.7-2.3c0-0.9,0.3-1.7,0.8-2.3s1.2-0.9,2-0.9s1.4,0.3,1.8,0.8s0.6,1.2,0.6,2.1V150.7z
			 M107.5,149.8c0-0.6-0.1-1-0.4-1.3s-0.6-0.5-1.1-0.5c-0.5,0-0.8,0.2-1.2,0.5s-0.5,0.7-0.6,1.3H107.5z"/>
		<path d="M114.2,152.5L114.2,152.5l0,3.6h-1v-8.8h1v1.1h0c0.5-0.8,1.2-1.2,2.1-1.2c0.8,0,1.4,0.3,1.8,0.8s0.7,1.3,0.7,2.2
			c0,1-0.2,1.8-0.7,2.4s-1.2,0.9-2,0.9C115.3,153.6,114.7,153.2,114.2,152.5z M114.2,150.1v0.8c0,0.5,0.2,0.9,0.5,1.3
			s0.7,0.5,1.2,0.5c0.6,0,1-0.2,1.4-0.7s0.5-1.1,0.5-1.9c0-0.7-0.2-1.2-0.5-1.6s-0.7-0.6-1.3-0.6c-0.6,0-1,0.2-1.3,0.6
			S114.2,149.5,114.2,150.1z"/>
		<path d="M120.8,145.9c-0.2,0-0.3-0.1-0.4-0.2s-0.2-0.3-0.2-0.4s0.1-0.3,0.2-0.4s0.3-0.2,0.4-0.2c0.2,0,0.3,0.1,0.4,0.2
			s0.2,0.3,0.2,0.4c0,0.2-0.1,0.3-0.2,0.4S121,145.9,120.8,145.9z M121.3,153.4h-1v-6h1V153.4z"/>
		<path d="M127.4,147.7l-3.6,4.9h3.5v0.8h-4.9v-0.3l3.6-4.9h-3.2v-0.8h4.6V147.7z"/>
		<path d="M132.8,147.7l-3.6,4.9h3.5v0.8h-4.9v-0.3l3.6-4.9h-3.2v-0.8h4.6V147.7z"/>
		<path d="M138.4,153.4h-1v-0.9h0c-0.4,0.7-1,1.1-1.8,1.1c-0.6,0-1.1-0.2-1.4-0.5s-0.5-0.7-0.5-1.3c0-1.1,0.7-1.8,2-2l1.8-0.3
			c0-1-0.4-1.5-1.2-1.5c-0.7,0-1.4,0.2-2,0.7v-1c0.6-0.4,1.3-0.6,2-0.6c1.4,0,2.1,0.7,2.1,2.2V153.4z M137.4,150.4l-1.4,0.2
			c-0.4,0.1-0.8,0.2-1,0.3s-0.3,0.4-0.3,0.8c0,0.3,0.1,0.5,0.3,0.7s0.5,0.3,0.8,0.3c0.5,0,0.9-0.2,1.2-0.5s0.5-0.8,0.5-1.3V150.4z"
			/>
		<path d="M143.9,145.9c-0.2,0-0.3-0.1-0.4-0.2s-0.2-0.3-0.2-0.4s0.1-0.3,0.2-0.4s0.3-0.2,0.4-0.2c0.2,0,0.3,0.1,0.4,0.2
			s0.2,0.3,0.2,0.4c0,0.2-0.1,0.3-0.2,0.4S144.1,145.9,143.9,145.9z M144.4,153.4h-1v-6h1V153.4z"/>
		<path d="M146,153.2v-1c0.5,0.4,1.1,0.6,1.7,0.6c0.8,0,1.3-0.3,1.3-0.8c0-0.2,0-0.3-0.1-0.4s-0.2-0.2-0.3-0.3s-0.3-0.2-0.4-0.2
			s-0.3-0.1-0.5-0.2c-0.3-0.1-0.5-0.2-0.7-0.3s-0.4-0.2-0.5-0.4s-0.2-0.3-0.3-0.5s-0.1-0.4-0.1-0.6c0-0.3,0.1-0.5,0.2-0.7
			s0.3-0.4,0.5-0.5s0.5-0.3,0.7-0.3s0.6-0.1,0.9-0.1c0.5,0,1,0.1,1.4,0.3v1c-0.4-0.3-0.9-0.4-1.5-0.4c-0.2,0-0.3,0-0.5,0.1
			s-0.3,0.1-0.4,0.2s-0.2,0.2-0.2,0.3s-0.1,0.2-0.1,0.3c0,0.2,0,0.3,0.1,0.4s0.1,0.2,0.2,0.3s0.2,0.2,0.4,0.2s0.3,0.1,0.5,0.2
			c0.3,0.1,0.5,0.2,0.7,0.3s0.4,0.2,0.5,0.4s0.3,0.3,0.3,0.5s0.1,0.4,0.1,0.6c0,0.3-0.1,0.6-0.2,0.8s-0.3,0.4-0.5,0.5
			s-0.5,0.3-0.8,0.3s-0.6,0.1-0.9,0.1C147,153.6,146.5,153.4,146,153.2z"/>
		<path d="M157.5,153.4c-0.2,0.1-0.5,0.2-0.9,0.2c-1.1,0-1.6-0.6-1.6-1.8v-3.6h-1v-0.8h1v-1.5l1-0.3v1.8h1.5v0.8H156v3.4
			c0,0.4,0.1,0.7,0.2,0.9s0.4,0.3,0.7,0.3c0.2,0,0.5-0.1,0.6-0.2V153.4z"/>
		<path d="M163.8,153.4h-1V150c0-1.3-0.5-1.9-1.4-1.9c-0.5,0-0.9,0.2-1.2,0.5s-0.5,0.8-0.5,1.4v3.4h-1v-8.9h1v3.9h0
			c0.5-0.8,1.1-1.1,2-1.1c1.4,0,2,0.8,2,2.4V153.4z"/>
		<path d="M170.4,150.7h-4.2c0,0.7,0.2,1.2,0.5,1.5s0.8,0.5,1.4,0.5c0.7,0,1.3-0.2,1.9-0.7v0.9c-0.5,0.4-1.2,0.6-2.1,0.6
			c-0.8,0-1.5-0.3-2-0.8s-0.7-1.3-0.7-2.3c0-0.9,0.3-1.7,0.8-2.3s1.2-0.9,2-0.9s1.4,0.3,1.8,0.8s0.6,1.2,0.6,2.1V150.7z
			 M169.4,149.8c0-0.6-0.1-1-0.4-1.3s-0.6-0.5-1.1-0.5c-0.5,0-0.8,0.2-1.2,0.5s-0.5,0.7-0.6,1.3H169.4z"/>
		<path d="M174.8,153.2v-1c0.5,0.4,1.1,0.6,1.7,0.6c0.8,0,1.3-0.3,1.3-0.8c0-0.2,0-0.3-0.1-0.4s-0.2-0.2-0.3-0.3s-0.3-0.2-0.4-0.2
			s-0.3-0.1-0.5-0.2c-0.3-0.1-0.5-0.2-0.7-0.3s-0.4-0.2-0.5-0.4s-0.2-0.3-0.3-0.5s-0.1-0.4-0.1-0.6c0-0.3,0.1-0.5,0.2-0.7
			s0.3-0.4,0.5-0.5s0.5-0.3,0.7-0.3s0.6-0.1,0.9-0.1c0.5,0,1,0.1,1.4,0.3v1c-0.4-0.3-0.9-0.4-1.5-0.4c-0.2,0-0.3,0-0.5,0.1
			s-0.3,0.1-0.4,0.2s-0.2,0.2-0.2,0.3s-0.1,0.2-0.1,0.3c0,0.2,0,0.3,0.1,0.4s0.1,0.2,0.2,0.3s0.2,0.2,0.4,0.2s0.3,0.1,0.5,0.2
			c0.3,0.1,0.5,0.2,0.7,0.3s0.4,0.2,0.5,0.4s0.3,0.3,0.3,0.5s0.1,0.4,0.1,0.6c0,0.3-0.1,0.6-0.2,0.8s-0.3,0.4-0.5,0.5
			s-0.5,0.3-0.8,0.3s-0.6,0.1-0.9,0.1C175.8,153.6,175.3,153.4,174.8,153.2z"/>
		<path d="M184.5,153.4h-1v-0.9h0c-0.4,0.7-1,1.1-1.8,1.1c-0.6,0-1.1-0.2-1.4-0.5s-0.5-0.7-0.5-1.3c0-1.1,0.7-1.8,2-2l1.8-0.3
			c0-1-0.4-1.5-1.2-1.5c-0.7,0-1.4,0.2-2,0.7v-1c0.6-0.4,1.3-0.6,2-0.6c1.4,0,2.1,0.7,2.1,2.2V153.4z M183.6,150.4l-1.4,0.2
			c-0.4,0.1-0.8,0.2-1,0.3s-0.3,0.4-0.3,0.8c0,0.3,0.1,0.5,0.3,0.7s0.5,0.3,0.8,0.3c0.5,0,0.9-0.2,1.2-0.5s0.5-0.8,0.5-1.3V150.4z"
			/>
		<path d="M194.9,153.4h-1V150c0-0.7-0.1-1.1-0.3-1.4s-0.5-0.4-1-0.4c-0.4,0-0.8,0.2-1,0.6s-0.4,0.8-0.4,1.3v3.4h-1v-3.6
			c0-1.2-0.5-1.8-1.4-1.8c-0.4,0-0.8,0.2-1,0.5s-0.4,0.8-0.4,1.4v3.4h-1v-6h1v0.9h0c0.4-0.7,1-1.1,1.9-1.1c0.4,0,0.8,0.1,1.1,0.3
			s0.5,0.5,0.6,0.9c0.4-0.8,1.1-1.2,2-1.2c1.3,0,2,0.8,2,2.4V153.4z"/>
		<path d="M201.5,150.7h-4.2c0,0.7,0.2,1.2,0.5,1.5s0.8,0.5,1.4,0.5c0.7,0,1.3-0.2,1.9-0.7v0.9c-0.5,0.4-1.2,0.6-2.1,0.6
			c-0.8,0-1.5-0.3-2-0.8s-0.7-1.3-0.7-2.3c0-0.9,0.3-1.7,0.8-2.3s1.2-0.9,2-0.9s1.4,0.3,1.8,0.8s0.6,1.2,0.6,2.1V150.7z
			 M200.5,149.8c0-0.6-0.1-1-0.4-1.3s-0.6-0.5-1.1-0.5c-0.5,0-0.8,0.2-1.2,0.5s-0.5,0.7-0.6,1.3H200.5z"/>
		<path d="M210.6,153.4h-1v-0.9h0c-0.4,0.7-1,1.1-1.8,1.1c-0.6,0-1.1-0.2-1.4-0.5s-0.5-0.7-0.5-1.3c0-1.1,0.7-1.8,2-2l1.8-0.3
			c0-1-0.4-1.5-1.2-1.5c-0.7,0-1.4,0.2-2,0.7v-1c0.6-0.4,1.3-0.6,2-0.6c1.4,0,2.1,0.7,2.1,2.2V153.4z M209.6,150.4l-1.4,0.2
			c-0.4,0.1-0.8,0.2-1,0.3s-0.3,0.4-0.3,0.8c0,0.3,0.1,0.5,0.3,0.7s0.5,0.3,0.8,0.3c0.5,0,0.9-0.2,1.2-0.5s0.5-0.8,0.5-1.3V150.4z"
			/>
		<path d="M212,153.2v-1c0.5,0.4,1.1,0.6,1.7,0.6c0.8,0,1.3-0.3,1.3-0.8c0-0.2,0-0.3-0.1-0.4s-0.2-0.2-0.3-0.3s-0.3-0.2-0.4-0.2
			s-0.3-0.1-0.5-0.2c-0.3-0.1-0.5-0.2-0.7-0.3s-0.4-0.2-0.5-0.4s-0.2-0.3-0.3-0.5s-0.1-0.4-0.1-0.6c0-0.3,0.1-0.5,0.2-0.7
			s0.3-0.4,0.5-0.5s0.5-0.3,0.7-0.3s0.6-0.1,0.9-0.1c0.5,0,1,0.1,1.4,0.3v1c-0.4-0.3-0.9-0.4-1.5-0.4c-0.2,0-0.3,0-0.5,0.1
			s-0.3,0.1-0.4,0.2s-0.2,0.2-0.2,0.3s-0.1,0.2-0.1,0.3c0,0.2,0,0.3,0.1,0.4s0.1,0.2,0.2,0.3s0.2,0.2,0.4,0.2s0.3,0.1,0.5,0.2
			c0.3,0.1,0.5,0.2,0.7,0.3s0.4,0.2,0.5,0.4s0.3,0.3,0.3,0.5s0.1,0.4,0.1,0.6c0,0.3-0.1,0.6-0.2,0.8s-0.3,0.4-0.5,0.5
			s-0.5,0.3-0.8,0.3s-0.6,0.1-0.9,0.1C213,153.6,212.5,153.4,212,153.2z"/>
	</g>
	<g>
		<path d="M238.5,153.6c-0.9,0-1.6-0.3-2.1-0.8s-0.8-1.3-0.8-2.2c0-1,0.3-1.8,0.8-2.4s1.3-0.8,2.2-0.8c0.9,0,1.6,0.3,2.1,0.8
			s0.8,1.3,0.8,2.3c0,1-0.3,1.7-0.8,2.3S239.4,153.6,238.5,153.6z M238.6,148.1c-0.6,0-1.1,0.2-1.5,0.6s-0.5,1-0.5,1.7
			c0,0.7,0.2,1.3,0.5,1.7s0.8,0.6,1.5,0.6c0.6,0,1.1-0.2,1.4-0.6s0.5-1,0.5-1.7c0-0.8-0.2-1.3-0.5-1.7S239.2,148.1,238.6,148.1z"/>
		<path d="M245.8,145.4c-0.2-0.1-0.4-0.2-0.6-0.2c-0.7,0-1,0.4-1,1.3v0.9h1.4v0.8h-1.4v5.2h-1v-5.2h-1v-0.8h1v-1
			c0-0.6,0.2-1.1,0.5-1.5s0.8-0.5,1.4-0.5c0.3,0,0.5,0,0.7,0.1V145.4z"/>
		<path d="M252.6,153.4c-0.2,0.1-0.5,0.2-0.9,0.2c-1.1,0-1.6-0.6-1.6-1.8v-3.6h-1v-0.8h1v-1.5l1-0.3v1.8h1.5v0.8h-1.5v3.4
			c0,0.4,0.1,0.7,0.2,0.9s0.4,0.3,0.7,0.3c0.2,0,0.5-0.1,0.6-0.2V153.4z"/>
		<path d="M258.9,153.4h-1V150c0-1.3-0.5-1.9-1.4-1.9c-0.5,0-0.9,0.2-1.2,0.5s-0.5,0.8-0.5,1.4v3.4h-1v-8.9h1v3.9h0
			c0.5-0.8,1.1-1.1,2-1.1c1.4,0,2,0.8,2,2.4V153.4z"/>
		<path d="M265.5,150.7h-4.2c0,0.7,0.2,1.2,0.5,1.5s0.8,0.5,1.4,0.5c0.7,0,1.3-0.2,1.9-0.7v0.9c-0.5,0.4-1.2,0.6-2.1,0.6
			c-0.8,0-1.5-0.3-2-0.8s-0.7-1.3-0.7-2.3c0-0.9,0.3-1.7,0.8-2.3s1.2-0.9,2-0.9s1.4,0.3,1.8,0.8s0.6,1.2,0.6,2.1V150.7z
			 M264.5,149.8c0-0.6-0.1-1-0.4-1.3s-0.6-0.5-1.1-0.5c-0.5,0-0.8,0.2-1.2,0.5s-0.5,0.7-0.6,1.3H264.5z"/>
		<path d="M271.2,152.5L271.2,152.5l0,3.6h-1v-8.8h1v1.1h0c0.5-0.8,1.2-1.2,2.1-1.2c0.8,0,1.4,0.3,1.8,0.8s0.7,1.3,0.7,2.2
			c0,1-0.2,1.8-0.7,2.4s-1.2,0.9-2,0.9C272.3,153.6,271.7,153.2,271.2,152.5z M271.2,150.1v0.8c0,0.5,0.2,0.9,0.5,1.3
			s0.7,0.5,1.2,0.5c0.6,0,1-0.2,1.4-0.7s0.5-1.1,0.5-1.9c0-0.7-0.2-1.2-0.5-1.6s-0.7-0.6-1.3-0.6c-0.6,0-1,0.2-1.3,0.6
			S271.2,149.5,271.2,150.1z"/>
		<path d="M277.8,145.9c-0.2,0-0.3-0.1-0.4-0.2s-0.2-0.3-0.2-0.4s0.1-0.3,0.2-0.4s0.3-0.2,0.4-0.2c0.2,0,0.3,0.1,0.4,0.2
			s0.2,0.3,0.2,0.4c0,0.2-0.1,0.3-0.2,0.4S278,145.9,277.8,145.9z M278.3,153.4h-1v-6h1V153.4z"/>
		<path d="M284.4,147.7l-3.6,4.9h3.5v0.8h-4.9v-0.3l3.6-4.9h-3.2v-0.8h4.6V147.7z"/>
		<path d="M289.8,147.7l-3.6,4.9h3.5v0.8h-4.9v-0.3l3.6-4.9h-3.2v-0.8h4.6V147.7z"/>
		<path d="M295.4,153.4h-1v-0.9h0c-0.4,0.7-1,1.1-1.8,1.1c-0.6,0-1.1-0.2-1.4-0.5s-0.5-0.7-0.5-1.3c0-1.1,0.7-1.8,2-2l1.8-0.3
			c0-1-0.4-1.5-1.2-1.5c-0.7,0-1.4,0.2-2,0.7v-1c0.6-0.4,1.3-0.6,2-0.6c1.4,0,2.1,0.7,2.1,2.2V153.4z M294.4,150.4l-1.4,0.2
			c-0.4,0.1-0.8,0.2-1,0.3s-0.3,0.4-0.3,0.8c0,0.3,0.1,0.5,0.3,0.7s0.5,0.3,0.8,0.3c0.5,0,0.9-0.2,1.2-0.5s0.5-0.8,0.5-1.3V150.4z"
			/>
		<path d="M297.5,153.5c-0.2,0-0.3-0.1-0.5-0.2s-0.2-0.3-0.2-0.5s0.1-0.3,0.2-0.5s0.3-0.2,0.5-0.2c0.2,0,0.3,0.1,0.5,0.2
			s0.2,0.3,0.2,0.5s-0.1,0.3-0.2,0.5S297.7,153.5,297.5,153.5z"/>
	</g>
	<g>
		<g>
			<path d="M66.7,145.7L66.7,145.7c-1-0.5-1.5-1.2-1.5-2.1c0-0.6,0.2-1.1,0.7-1.5s1.1-0.6,1.8-0.6c0.7,0,1.2,0.2,1.6,0.5
				s0.6,0.8,0.6,1.4c0,0.9-0.5,1.7-1.6,2.2v0c1.2,0.4,1.8,1.2,1.8,2.3c0,0.7-0.3,1.2-0.8,1.7s-1.2,0.6-2.1,0.6
				c-0.7,0-1.3-0.2-1.8-0.6s-0.7-0.9-0.7-1.6C64.9,146.9,65.5,146.2,66.7,145.7z M67.5,146.1c-1.1,0.4-1.6,1-1.6,1.9
				c0,0.4,0.2,0.8,0.5,1s0.7,0.4,1.2,0.4c0.5,0,0.9-0.1,1.2-0.4s0.5-0.6,0.5-1C69.2,147.2,68.7,146.5,67.5,146.1z M69,143.6
				c0-0.4-0.1-0.7-0.4-0.9s-0.6-0.3-1-0.3c-0.4,0-0.7,0.1-1,0.3s-0.4,0.5-0.4,0.9c0,0.7,0.5,1.3,1.4,1.7
				C68.5,144.8,69,144.3,69,143.6z"/>
		</g>
		<line class="st3" x1="63" y1="150.7" x2="73" y2="150.7"/>
		<g>
			<path d="M67.3,161.1h-4.8v-0.8h1.9v-6.5l-1.9,0.6v-0.9l2.9-0.9v7.7h1.9V161.1z"/>
			<path d="M73.6,161.1h-5.1v-0.9l2.4-2.5c0.6-0.6,1.1-1.1,1.3-1.6s0.4-0.9,0.4-1.3c0-0.5-0.1-0.9-0.4-1.1s-0.7-0.4-1.2-0.4
				c-0.8,0-1.5,0.3-2.2,1v-1c0.7-0.5,1.4-0.8,2.3-0.8c0.8,0,1.3,0.2,1.8,0.6s0.6,1,0.6,1.6c0,0.5-0.1,1.1-0.4,1.6s-0.8,1.2-1.6,1.9
				l-1.9,1.9v0h3.9V161.1z"/>
		</g>
	</g>
	<g>
		<g>
			<path d="M228,150h-5.1v-0.9l2.4-2.5c0.6-0.6,1.1-1.1,1.3-1.6s0.4-0.9,0.4-1.3c0-0.5-0.1-0.9-0.4-1.1s-0.7-0.4-1.2-0.4
				c-0.8,0-1.5,0.3-2.2,1v-1c0.7-0.5,1.4-0.8,2.3-0.8c0.8,0,1.3,0.2,1.8,0.6s0.6,1,0.6,1.6c0,0.5-0.1,1.1-0.4,1.6s-0.8,1.2-1.6,1.9
				l-1.9,1.9v0h3.9V150z"/>
		</g>
		<line class="st3" x1="221" y1="150.7" x2="231" y2="150.7"/>
		<g>
			<path d="M223.3,160.7v-1c0.6,0.5,1.2,0.7,1.9,0.7c0.6,0,1.1-0.1,1.4-0.4s0.5-0.7,0.5-1.2c0-1.1-0.8-1.6-2.3-1.6h-0.7v-0.8h0.7
				c1.4,0,2.1-0.5,2.1-1.5c0-1-0.5-1.4-1.6-1.4c-0.6,0-1.1,0.2-1.7,0.6V153c0.5-0.3,1.2-0.5,1.9-0.5c0.7,0,1.3,0.2,1.7,0.6
				s0.6,0.9,0.6,1.4c0,1.1-0.6,1.8-1.7,2.1v0c0.6,0.1,1.1,0.3,1.4,0.6s0.5,0.8,0.5,1.4c0,0.8-0.3,1.4-0.8,1.8s-1.3,0.7-2.1,0.7
				C224.4,161.2,223.7,161,223.3,160.7z"/>
		</g>
	</g>
</g>
</svg>
