<?xml version="1.0" encoding="utf-8"?>
<!-- Generator: Adobe Illustrator 21.1.0, SVG Export Plug-In . SVG Version: 6.00 Build 0)  -->
<svg version="1.1" id="Слой_1" xmlns="http://www.w3.org/2000/svg" xmlns:xlink="http://www.w3.org/1999/xlink" x="0px" y="0px"
	 width="254.2px" height="116.9px" viewBox="0 0 254.2 116.9" style="enable-background:new 0 0 254.2 116.9;" xml:space="preserve"
	>
<style type="text/css">
	.st0{fill:none;stroke:#000000;stroke-width:0.5;stroke-miterlimit:10;}
	.st1{font-family:'SegoeUI';}
	.st2{font-size:14.944px;}
	.st3{font-size:16.5px;}
</style>
<line class="st0" x1="63.9" y1="22" x2="175" y2="22"/>
<text transform="matrix(1 0 0 1 73.9609 35.0027)" class="st1 st2">+</text>
<text transform="matrix(1 0 0 1 104.2001 35.0027)" class="st1 st2">+</text>
<text transform="matrix(1 0 0 1 145.0595 35.0027)" class="st1 st2">+</text>
<text transform="matrix(1 0 0 1 73.9609 53.5417)" class="st1 st2">+</text>
<text transform="matrix(1 0 0 1 105.9404 53.5417)" class="st1 st3">-</text>
<text transform="matrix(1 0 0 1 148.4804 53.5417)" class="st1 st2">?</text>
<text transform="matrix(1 0 0 1 77.3798 72.0828)" class="st1 st3">-</text>
<text transform="matrix(1 0 0 1 104.2001 72.0828)" class="st1 st2">+</text>
<text transform="matrix(1 0 0 1 148.4804 72.0828)" class="st1 st2">?</text>
<text transform="matrix(1 0 0 1 77.3798 90.6228)" class="st1 st3">-</text>
<text transform="matrix(1 0 0 1 107.4404 90.6228)" class="st1 st3">-</text>
<text transform="matrix(1 0 0 1 148.0595 90.6228)" class="st1 st3">-</text>
<line class="st0" x1="64.2" y1="40" x2="175.3" y2="40"/>
<line class="st0" x1="64.2" y1="59.5" x2="175.3" y2="59.5"/>
<line class="st0" x1="64.2" y1="77.5" x2="175.3" y2="77.5"/>
<line class="st0" x1="64.2" y1="95.5" x2="175.3" y2="95.5"/>
<line class="st0" x1="63.9" y1="22" x2="63.9" y2="95.5"/>
<line class="st0" x1="95.4" y1="22" x2="95.4" y2="95.5"/>
<line class="st0" x1="125.4" y1="22" x2="125.4" y2="95.5"/>
<line class="st0" x1="175.1" y1="22" x2="175.1" y2="95.5"/>
<g>
	<path d="M81.9,12.9h-1.2v-1.2h0c-0.5,0.9-1.3,1.3-2.3,1.3c-0.7,0-1.3-0.2-1.7-0.6S76,11.5,76,10.9c0-1.4,0.8-2.2,2.5-2.4l2.2-0.3
		c0-1.3-0.5-1.9-1.5-1.9c-0.9,0-1.7,0.3-2.4,0.9V5.9c0.7-0.5,1.6-0.7,2.5-0.7c1.8,0,2.6,0.9,2.6,2.8V12.9z M80.7,9.1l-1.8,0.2
		c-0.6,0.1-1,0.2-1.3,0.4c-0.3,0.2-0.4,0.5-0.4,1c0,0.4,0.1,0.7,0.4,0.9c0.3,0.2,0.6,0.3,1,0.3c0.6,0,1.1-0.2,1.5-0.6
		c0.4-0.4,0.6-0.9,0.6-1.6V9.1z"/>
</g>
<g>
	<path d="M108.6,11.8L108.6,11.8l0,1.1h-1.2V1.8h1.2v4.9h0c0.6-1,1.4-1.5,2.6-1.5c1,0,1.7,0.3,2.3,1c0.5,0.7,0.8,1.6,0.8,2.7
		c0,1.3-0.3,2.3-0.9,3s-1.4,1.1-2.5,1.1C109.8,13,109.1,12.6,108.6,11.8z M108.5,8.8v1c0,0.6,0.2,1.1,0.6,1.6s0.9,0.6,1.5,0.6
		c0.7,0,1.3-0.3,1.7-0.8s0.6-1.3,0.6-2.3c0-0.8-0.2-1.5-0.6-2c-0.4-0.5-0.9-0.7-1.6-0.7c-0.7,0-1.3,0.2-1.7,0.7
		C108.7,7.4,108.5,8,108.5,8.8z"/>
</g>
<g>
	<path d="M140.2,12.9H139v-1.2h0c-0.5,0.9-1.3,1.3-2.3,1.3c-0.7,0-1.3-0.2-1.7-0.6s-0.6-0.9-0.6-1.6c0-1.4,0.8-2.2,2.5-2.4l2.2-0.3
		c0-1.3-0.5-1.9-1.5-1.9c-0.9,0-1.7,0.3-2.4,0.9V5.9c0.7-0.5,1.6-0.7,2.5-0.7c1.8,0,2.6,0.9,2.6,2.8V12.9z M139,9.1l-1.8,0.2
		c-0.6,0.1-1,0.2-1.3,0.4c-0.3,0.2-0.4,0.5-0.4,1c0,0.4,0.1,0.7,0.4,0.9c0.3,0.2,0.6,0.3,1,0.3c0.6,0,1.1-0.2,1.5-0.6
		c0.4-0.4,0.6-0.9,0.6-1.6V9.1z"/>
</g>
<text transform="matrix(1 0 0 1 145 12.863)" class="st1 st2">+</text>
<g>
	<path d="M162.4,11.8L162.4,11.8l0,1.1h-1.2V1.8h1.2v4.9h0c0.6-1,1.4-1.5,2.6-1.5c1,0,1.7,0.3,2.3,1c0.5,0.7,0.8,1.6,0.8,2.7
		c0,1.3-0.3,2.3-0.9,3s-1.4,1.1-2.5,1.1C163.6,13,162.9,12.6,162.4,11.8z M162.3,8.8v1c0,0.6,0.2,1.1,0.6,1.6s0.9,0.6,1.5,0.6
		c0.7,0,1.3-0.3,1.7-0.8s0.6-1.3,0.6-2.3c0-0.8-0.2-1.5-0.6-2c-0.4-0.5-0.9-0.7-1.6-0.7c-0.7,0-1.3,0.2-1.7,0.7
		C162.6,7.4,162.3,8,162.3,8.8z"/>
</g>
<line class="st0" x1="63.9" y1="0.3" x2="175" y2="0.3"/>
<line class="st0" x1="63.9" y1="18.3" x2="175" y2="18.3"/>
<line class="st0" x1="63.9" y1="0.1" x2="63.9" y2="18.1"/>
<line class="st0" x1="94.8" y1="0.3" x2="94.8" y2="18.3"/>
<line class="st0" x1="124.8" y1="0.3" x2="124.8" y2="18.3"/>
<line class="st0" x1="175" y1="0.3" x2="175" y2="18.3"/>
<g>
	<path d="M5.8,106.6H3.4v7.5h-1v-7.5H0v-0.9h5.8V106.6z"/>
	<path d="M10,114.1h-1v-0.9h0c-0.4,0.7-1,1.1-1.8,1.1c-0.6,0-1.1-0.2-1.4-0.5s-0.5-0.7-0.5-1.3c0-1.1,0.7-1.8,2-2l1.8-0.3
		c0-1-0.4-1.5-1.2-1.5c-0.7,0-1.4,0.2-2,0.7v-1c0.6-0.4,1.3-0.6,2-0.6c1.4,0,2.1,0.7,2.1,2.2V114.1z M9.1,111.1l-1.4,0.2
		c-0.4,0.1-0.8,0.2-1,0.3s-0.3,0.4-0.3,0.8c0,0.3,0.1,0.5,0.3,0.7s0.5,0.3,0.8,0.3c0.5,0,0.9-0.2,1.2-0.5s0.5-0.8,0.5-1.3V111.1z"/>
	<path d="M12.8,113.2L12.8,113.2l0,0.9h-1v-8.9h1v3.9h0c0.5-0.8,1.2-1.2,2.1-1.2c0.8,0,1.4,0.3,1.8,0.8s0.7,1.3,0.7,2.2
		c0,1-0.2,1.8-0.7,2.4s-1.2,0.9-2,0.9C13.8,114.3,13.2,113.9,12.8,113.2z M12.8,110.8v0.8c0,0.5,0.2,0.9,0.5,1.3s0.7,0.5,1.2,0.5
		c0.6,0,1-0.2,1.4-0.7s0.5-1.1,0.5-1.9c0-0.7-0.2-1.2-0.5-1.6s-0.7-0.6-1.3-0.6c-0.6,0-1,0.2-1.3,0.6S12.8,110.2,12.8,110.8z"/>
	<path d="M19.9,114.1h-1v-8.9h1V114.1z"/>
	<path d="M26.6,111.4h-4.2c0,0.7,0.2,1.2,0.5,1.5s0.8,0.5,1.4,0.5c0.7,0,1.3-0.2,1.9-0.7v0.9c-0.5,0.4-1.2,0.6-2.1,0.6
		c-0.8,0-1.5-0.3-2-0.8s-0.7-1.3-0.7-2.3c0-0.9,0.3-1.7,0.8-2.3s1.2-0.9,2-0.9s1.4,0.3,1.8,0.8s0.6,1.2,0.6,2.1V111.4z M25.7,110.5
		c0-0.6-0.1-1-0.4-1.3s-0.6-0.5-1.1-0.5c-0.5,0-0.8,0.2-1.2,0.5s-0.5,0.7-0.6,1.3H25.7z"/>
	<path d="M36,114.1H31v-0.9l2.4-2.5c0.6-0.6,1.1-1.1,1.3-1.6s0.4-0.9,0.4-1.3c0-0.5-0.1-0.9-0.4-1.1s-0.7-0.4-1.2-0.4
		c-0.8,0-1.5,0.3-2.2,1v-1c0.7-0.5,1.4-0.8,2.3-0.8c0.8,0,1.3,0.2,1.8,0.6s0.6,1,0.6,1.6c0,0.5-0.1,1.1-0.4,1.6s-0.8,1.2-1.6,1.9
		l-1.9,1.9v0H36V114.1z"/>
	<path d="M38.2,114.2c-0.2,0-0.3-0.1-0.5-0.2s-0.2-0.3-0.2-0.5s0.1-0.3,0.2-0.5s0.3-0.2,0.5-0.2c0.2,0,0.3,0.1,0.5,0.2
		s0.2,0.3,0.2,0.5s-0.1,0.3-0.2,0.5S38.4,114.2,38.2,114.2z"/>
	<path d="M45.1,114.1H40v-0.9l2.4-2.5c0.6-0.6,1.1-1.1,1.3-1.6s0.4-0.9,0.4-1.3c0-0.5-0.1-0.9-0.4-1.1s-0.7-0.4-1.2-0.4
		c-0.8,0-1.5,0.3-2.2,1v-1c0.7-0.5,1.4-0.8,2.3-0.8c0.8,0,1.3,0.2,1.8,0.6s0.6,1,0.6,1.6c0,0.5-0.1,1.1-0.4,1.6s-0.8,1.2-1.6,1.9
		l-1.9,1.9v0h3.9V114.1z"/>
	<path d="M47.3,109.3c-0.2,0-0.3-0.1-0.5-0.2c-0.1-0.1-0.2-0.3-0.2-0.5s0.1-0.3,0.2-0.5c0.1-0.1,0.3-0.2,0.5-0.2
		c0.2,0,0.3,0.1,0.5,0.2s0.2,0.3,0.2,0.5s-0.1,0.3-0.2,0.5S47.4,109.3,47.3,109.3z M47.3,114.2c-0.2,0-0.3-0.1-0.5-0.2
		c-0.1-0.1-0.2-0.3-0.2-0.5s0.1-0.3,0.2-0.5c0.1-0.1,0.3-0.2,0.5-0.2c0.2,0,0.3,0.1,0.5,0.2s0.2,0.3,0.2,0.5s-0.1,0.3-0.2,0.5
		S47.4,114.2,47.3,114.2z"/>
	<path d="M57.9,106.6h-2.4v7.5h-1v-7.5h-2.4v-0.9h5.8V106.6z"/>
	<path d="M62.1,114.1h-1v-0.9h0c-0.4,0.7-1,1.1-1.8,1.1c-0.6,0-1.1-0.2-1.4-0.5s-0.5-0.7-0.5-1.3c0-1.1,0.7-1.8,2-2l1.8-0.3
		c0-1-0.4-1.5-1.2-1.5c-0.7,0-1.4,0.2-2,0.7v-1c0.6-0.4,1.3-0.6,2-0.6c1.4,0,2.1,0.7,2.1,2.2V114.1z M61.2,111.1l-1.4,0.2
		c-0.4,0.1-0.8,0.2-1,0.3s-0.3,0.4-0.3,0.8c0,0.3,0.1,0.5,0.3,0.7s0.5,0.3,0.8,0.3c0.5,0,0.9-0.2,1.2-0.5s0.5-0.8,0.5-1.3V111.1z"/>
	<path d="M64.9,113.2L64.9,113.2l0,0.9h-1v-8.9h1v3.9h0c0.5-0.8,1.2-1.2,2.1-1.2c0.8,0,1.4,0.3,1.8,0.8s0.7,1.3,0.7,2.2
		c0,1-0.2,1.8-0.7,2.4s-1.2,0.9-2,0.9C65.9,114.3,65.3,113.9,64.9,113.2z M64.9,110.8v0.8c0,0.5,0.2,0.9,0.5,1.3s0.7,0.5,1.2,0.5
		c0.6,0,1-0.2,1.4-0.7s0.5-1.1,0.5-1.9c0-0.7-0.2-1.2-0.5-1.6s-0.7-0.6-1.3-0.6c-0.6,0-1,0.2-1.3,0.6S64.9,110.2,64.9,110.8z"/>
	<path d="M71.9,114.1h-1v-8.9h1V114.1z"/>
	<path d="M78.7,111.4h-4.2c0,0.7,0.2,1.2,0.5,1.5s0.8,0.5,1.4,0.5c0.7,0,1.3-0.2,1.9-0.7v0.9c-0.5,0.4-1.2,0.6-2.1,0.6
		c-0.8,0-1.5-0.3-2-0.8s-0.7-1.3-0.7-2.3c0-0.9,0.3-1.7,0.8-2.3s1.2-0.9,2-0.9s1.4,0.3,1.8,0.8s0.6,1.2,0.6,2.1V111.4z M77.7,110.5
		c0-0.6-0.1-1-0.4-1.3s-0.6-0.5-1.1-0.5c-0.5,0-0.8,0.2-1.2,0.5s-0.5,0.7-0.6,1.3H77.7z"/>
	<path d="M86,114.3c-0.9,0-1.6-0.3-2.1-0.8s-0.8-1.3-0.8-2.2c0-1,0.3-1.8,0.8-2.4s1.3-0.8,2.2-0.8c0.9,0,1.6,0.3,2.1,0.8
		s0.8,1.3,0.8,2.3c0,1-0.3,1.7-0.8,2.3S86.9,114.3,86,114.3z M86,108.8c-0.6,0-1.1,0.2-1.5,0.6s-0.5,1-0.5,1.7
		c0,0.7,0.2,1.3,0.5,1.7s0.8,0.6,1.5,0.6c0.6,0,1.1-0.2,1.4-0.6s0.5-1,0.5-1.7c0-0.8-0.2-1.3-0.5-1.7S86.6,108.8,86,108.8z"/>
	<path d="M93.2,106.1c-0.2-0.1-0.4-0.2-0.6-0.2c-0.7,0-1,0.4-1,1.3v0.9H93v0.8h-1.4v5.2h-1v-5.2h-1v-0.8h1v-1c0-0.6,0.2-1.1,0.5-1.5
		s0.8-0.5,1.4-0.5c0.3,0,0.5,0,0.7,0.1V106.1z"/>
	<path d="M96.9,113.9v-1c0.5,0.4,1.1,0.6,1.7,0.6c0.8,0,1.3-0.3,1.3-0.8c0-0.2,0-0.3-0.1-0.4s-0.2-0.2-0.3-0.3
		c-0.1-0.1-0.3-0.2-0.4-0.2s-0.3-0.1-0.5-0.2c-0.3-0.1-0.5-0.2-0.7-0.3s-0.4-0.2-0.5-0.4s-0.2-0.3-0.3-0.5s-0.1-0.4-0.1-0.6
		c0-0.3,0.1-0.5,0.2-0.7s0.3-0.4,0.5-0.5s0.5-0.3,0.7-0.3s0.6-0.1,0.9-0.1c0.5,0,1,0.1,1.4,0.3v1c-0.4-0.3-0.9-0.4-1.5-0.4
		c-0.2,0-0.3,0-0.5,0.1s-0.3,0.1-0.4,0.2s-0.2,0.2-0.2,0.3s-0.1,0.2-0.1,0.3c0,0.2,0,0.3,0.1,0.4s0.1,0.2,0.2,0.3s0.2,0.2,0.4,0.2
		s0.3,0.1,0.5,0.2c0.3,0.1,0.5,0.2,0.7,0.3s0.4,0.2,0.5,0.4s0.3,0.3,0.3,0.5s0.1,0.4,0.1,0.6c0,0.3-0.1,0.6-0.2,0.8
		s-0.3,0.4-0.5,0.5s-0.5,0.3-0.8,0.3s-0.6,0.1-0.9,0.1C97.9,114.3,97.4,114.1,96.9,113.9z"/>
	<path d="M102.9,106.6c-0.2,0-0.3-0.1-0.4-0.2s-0.2-0.3-0.2-0.4s0.1-0.3,0.2-0.4s0.3-0.2,0.4-0.2c0.2,0,0.3,0.1,0.4,0.2
		s0.2,0.3,0.2,0.4c0,0.2-0.1,0.3-0.2,0.4S103.1,106.6,102.9,106.6z M103.4,114.1h-1v-6h1V114.1z"/>
	<path d="M110.4,113.6c0,2.2-1.1,3.3-3.2,3.3c-0.7,0-1.4-0.1-1.9-0.4v-1c0.7,0.4,1.3,0.6,1.9,0.6c1.5,0,2.2-0.8,2.2-2.4v-0.7h0
		c-0.5,0.8-1.1,1.1-2.1,1.1c-0.7,0-1.3-0.3-1.8-0.8s-0.7-1.2-0.7-2.1c0-1,0.2-1.8,0.7-2.4s1.2-0.9,2-0.9c0.8,0,1.4,0.3,1.8,1h0v-0.8
		h1V113.6z M109.5,111.4v-0.9c0-0.5-0.2-0.9-0.5-1.2s-0.7-0.5-1.2-0.5c-0.6,0-1.1,0.2-1.4,0.6s-0.5,1-0.5,1.8c0,0.7,0.2,1.2,0.5,1.6
		s0.7,0.6,1.3,0.6c0.5,0,1-0.2,1.3-0.6S109.5,112,109.5,111.4z"/>
	<path d="M117.4,114.1h-1v-3.4c0-1.3-0.5-1.9-1.4-1.9c-0.5,0-0.9,0.2-1.2,0.5s-0.5,0.8-0.5,1.4v3.4h-1v-6h1v1h0
		c0.5-0.8,1.1-1.1,2-1.1c0.7,0,1.2,0.2,1.5,0.6s0.5,1,0.5,1.8V114.1z"/>
	<path d="M118.8,113.9v-1c0.5,0.4,1.1,0.6,1.7,0.6c0.8,0,1.3-0.3,1.3-0.8c0-0.2,0-0.3-0.1-0.4s-0.2-0.2-0.3-0.3s-0.3-0.2-0.4-0.2
		s-0.3-0.1-0.5-0.2c-0.3-0.1-0.5-0.2-0.7-0.3s-0.4-0.2-0.5-0.4s-0.2-0.3-0.3-0.5c-0.1-0.2-0.1-0.4-0.1-0.6c0-0.3,0.1-0.5,0.2-0.7
		s0.3-0.4,0.5-0.5s0.5-0.3,0.7-0.3s0.6-0.1,0.9-0.1c0.5,0,1,0.1,1.4,0.3v1c-0.4-0.3-0.9-0.4-1.5-0.4c-0.2,0-0.3,0-0.5,0.1
		s-0.3,0.1-0.4,0.2s-0.2,0.2-0.2,0.3s-0.1,0.2-0.1,0.3c0,0.2,0,0.3,0.1,0.4s0.1,0.2,0.2,0.3s0.2,0.2,0.4,0.2s0.3,0.1,0.5,0.2
		c0.3,0.1,0.5,0.2,0.7,0.3s0.4,0.2,0.5,0.4s0.3,0.3,0.3,0.5s0.1,0.4,0.1,0.6c0,0.3-0.1,0.6-0.2,0.8s-0.3,0.4-0.5,0.5
		s-0.5,0.3-0.8,0.3s-0.6,0.1-0.9,0.1C119.8,114.3,119.3,114.1,118.8,113.9z"/>
	<path d="M130.5,106.1c-0.2-0.1-0.4-0.2-0.6-0.2c-0.7,0-1,0.4-1,1.3v0.9h1.4v0.8h-1.4v5.2h-1v-5.2h-1v-0.8h1v-1
		c0-0.6,0.2-1.1,0.5-1.5s0.8-0.5,1.4-0.5c0.3,0,0.5,0,0.7,0.1V106.1z"/>
	<path d="M133.8,114.3c-0.9,0-1.6-0.3-2.1-0.8s-0.8-1.3-0.8-2.2c0-1,0.3-1.8,0.8-2.4s1.3-0.8,2.2-0.8c0.9,0,1.6,0.3,2.1,0.8
		c0.5,0.6,0.8,1.3,0.8,2.3c0,1-0.3,1.7-0.8,2.3S134.7,114.3,133.8,114.3z M133.9,108.8c-0.6,0-1.1,0.2-1.5,0.6s-0.5,1-0.5,1.7
		c0,0.7,0.2,1.3,0.5,1.7s0.8,0.6,1.5,0.6c0.6,0,1.1-0.2,1.4-0.6s0.5-1,0.5-1.7c0-0.8-0.2-1.3-0.5-1.7S134.5,108.8,133.9,108.8z"/>
	<path d="M141.5,109.1c-0.2-0.1-0.4-0.2-0.7-0.2c-0.4,0-0.8,0.2-1,0.6s-0.4,0.9-0.4,1.6v3.1h-1v-6h1v1.2h0c0.1-0.4,0.3-0.8,0.6-1
		s0.6-0.4,0.9-0.4c0.3,0,0.4,0,0.6,0.1V109.1z"/>
	<path d="M150.1,114.1h-1v-0.9h0c-0.4,0.7-1,1.1-1.8,1.1c-0.6,0-1.1-0.2-1.4-0.5s-0.5-0.7-0.5-1.3c0-1.1,0.7-1.8,2-2l1.8-0.3
		c0-1-0.4-1.5-1.2-1.5c-0.7,0-1.4,0.2-2,0.7v-1c0.6-0.4,1.3-0.6,2-0.6c1.4,0,2.1,0.7,2.1,2.2V114.1z M149.1,111.1l-1.4,0.2
		c-0.4,0.1-0.8,0.2-1,0.3s-0.3,0.4-0.3,0.8c0,0.3,0.1,0.5,0.3,0.7s0.5,0.3,0.8,0.3c0.5,0,0.9-0.2,1.2-0.5s0.5-0.8,0.5-1.3V111.1z"/>
	<path d="M157,114.1h-1v-1h0c-0.4,0.8-1.1,1.2-2.1,1.2c-0.8,0-1.4-0.3-1.8-0.8s-0.7-1.3-0.7-2.2c0-1,0.3-1.8,0.8-2.4s1.2-0.9,2-0.9
		c0.8,0,1.4,0.3,1.8,1h0v-3.7h1V114.1z M156.1,111.4v-0.9c0-0.5-0.2-0.9-0.5-1.2s-0.7-0.5-1.2-0.5c-0.6,0-1,0.2-1.4,0.6
		s-0.5,1-0.5,1.8c0,0.7,0.2,1.2,0.5,1.6s0.8,0.6,1.3,0.6c0.5,0,1-0.2,1.3-0.6S156.1,112,156.1,111.4z"/>
	<path d="M164.1,114.1h-1v-1h0c-0.4,0.8-1.1,1.2-2.1,1.2c-0.8,0-1.4-0.3-1.8-0.8s-0.7-1.3-0.7-2.2c0-1,0.3-1.8,0.8-2.4
		s1.2-0.9,2-0.9c0.8,0,1.4,0.3,1.8,1h0v-3.7h1V114.1z M163.1,111.4v-0.9c0-0.5-0.2-0.9-0.5-1.2s-0.7-0.5-1.2-0.5
		c-0.6,0-1,0.2-1.4,0.6s-0.5,1-0.5,1.8c0,0.7,0.2,1.2,0.5,1.6s0.8,0.6,1.3,0.6c0.5,0,1-0.2,1.3-0.6S163.1,112,163.1,111.4z"/>
	<path d="M166.5,106.6c-0.2,0-0.3-0.1-0.4-0.2s-0.2-0.3-0.2-0.4s0.1-0.3,0.2-0.4s0.3-0.2,0.4-0.2c0.2,0,0.3,0.1,0.4,0.2
		s0.2,0.3,0.2,0.4c0,0.2-0.1,0.3-0.2,0.4S166.7,106.6,166.5,106.6z M167,114.1h-1v-6h1V114.1z"/>
	<path d="M173.9,114.1h-1v-3.4c0-1.3-0.5-1.9-1.4-1.9c-0.5,0-0.9,0.2-1.2,0.5s-0.5,0.8-0.5,1.4v3.4h-1v-6h1v1h0
		c0.5-0.8,1.1-1.1,2-1.1c0.7,0,1.2,0.2,1.5,0.6s0.5,1,0.5,1.8V114.1z"/>
	<path d="M180.8,113.6c0,2.2-1.1,3.3-3.2,3.3c-0.7,0-1.4-0.1-1.9-0.4v-1c0.7,0.4,1.3,0.6,1.9,0.6c1.5,0,2.2-0.8,2.2-2.4v-0.7h0
		c-0.5,0.8-1.1,1.1-2.1,1.1c-0.7,0-1.3-0.3-1.8-0.8s-0.7-1.2-0.7-2.1c0-1,0.2-1.8,0.7-2.4c0.5-0.6,1.2-0.9,2-0.9
		c0.8,0,1.4,0.3,1.8,1h0v-0.8h1V113.6z M179.9,111.4v-0.9c0-0.5-0.2-0.9-0.5-1.2s-0.7-0.5-1.2-0.5c-0.6,0-1.1,0.2-1.4,0.6
		s-0.5,1-0.5,1.8c0,0.7,0.2,1.2,0.5,1.6s0.7,0.6,1.3,0.6c0.5,0,1-0.2,1.3-0.6C179.7,112.5,179.9,112,179.9,111.4z"/>
	<path d="M188.9,114.1c-0.2,0.1-0.5,0.2-0.9,0.2c-1.1,0-1.6-0.6-1.6-1.8v-3.6h-1v-0.8h1v-1.5l1-0.3v1.8h1.5v0.8h-1.5v3.4
		c0,0.4,0.1,0.7,0.2,0.9s0.4,0.3,0.7,0.3c0.2,0,0.5-0.1,0.6-0.2V114.1z"/>
	<path d="M197.7,108.1l-1.8,6h-1l-1.2-4.3c0-0.2-0.1-0.3-0.1-0.6h0c0,0.1-0.1,0.3-0.1,0.5l-1.3,4.3h-1l-1.8-6h1l1.2,4.5
		c0,0.1,0.1,0.3,0.1,0.5h0c0-0.2,0-0.4,0.1-0.6l1.4-4.5h0.9l1.2,4.5c0,0.1,0.1,0.3,0.1,0.5h0c0-0.2,0-0.3,0.1-0.5l1.2-4.5H197.7z"/>
	<path d="M201.3,114.3c-0.9,0-1.6-0.3-2.1-0.8c-0.5-0.6-0.8-1.3-0.8-2.2c0-1,0.3-1.8,0.8-2.4s1.3-0.8,2.2-0.8c0.9,0,1.6,0.3,2.1,0.8
		s0.8,1.3,0.8,2.3c0,1-0.3,1.7-0.8,2.3S202.2,114.3,201.3,114.3z M201.4,108.8c-0.6,0-1.1,0.2-1.5,0.6s-0.5,1-0.5,1.7
		c0,0.7,0.2,1.3,0.5,1.7s0.8,0.6,1.5,0.6c0.6,0,1.1-0.2,1.4-0.6s0.5-1,0.5-1.7c0-0.8-0.2-1.3-0.5-1.7S202,108.8,201.4,108.8z"/>
	<path d="M214.1,114.1h-1v-3.4c0-1.3-0.5-1.9-1.4-1.9c-0.5,0-0.9,0.2-1.2,0.5s-0.5,0.8-0.5,1.4v3.4h-1v-6h1v1h0
		c0.5-0.8,1.1-1.1,2-1.1c0.7,0,1.2,0.2,1.5,0.6s0.5,1,0.5,1.8V114.1z"/>
	<path d="M220.7,114.1h-1v-0.9h0c-0.4,0.7-1,1.1-1.9,1.1c-1.4,0-2.1-0.9-2.1-2.6v-3.6h1v3.4c0,1.3,0.5,1.9,1.5,1.9
		c0.5,0,0.9-0.2,1.2-0.5s0.5-0.8,0.5-1.4v-3.5h1V114.1z"/>
	<path d="M231.2,114.1h-1v-3.4c0-0.7-0.1-1.1-0.3-1.4s-0.5-0.4-1-0.4c-0.4,0-0.8,0.2-1,0.6s-0.4,0.8-0.4,1.3v3.4h-1v-3.6
		c0-1.2-0.5-1.8-1.4-1.8c-0.4,0-0.8,0.2-1,0.5s-0.4,0.8-0.4,1.4v3.4h-1v-6h1v0.9h0c0.4-0.7,1-1.1,1.9-1.1c0.4,0,0.8,0.1,1.1,0.3
		s0.5,0.5,0.6,0.9c0.4-0.8,1.1-1.2,2-1.2c1.3,0,2,0.8,2,2.4V114.1z"/>
	<path d="M234,113.2L234,113.2l0,0.9h-1v-8.9h1v3.9h0c0.5-0.8,1.2-1.2,2.1-1.2c0.8,0,1.4,0.3,1.8,0.8s0.7,1.3,0.7,2.2
		c0,1-0.2,1.8-0.7,2.4s-1.2,0.9-2,0.9C235,114.3,234.4,113.9,234,113.2z M234,110.8v0.8c0,0.5,0.2,0.9,0.5,1.3s0.7,0.5,1.2,0.5
		c0.6,0,1-0.2,1.4-0.7s0.5-1.1,0.5-1.9c0-0.7-0.2-1.2-0.5-1.6s-0.7-0.6-1.3-0.6c-0.6,0-1,0.2-1.3,0.6S234,110.2,234,110.8z"/>
	<path d="M244.9,111.4h-4.2c0,0.7,0.2,1.2,0.5,1.5s0.8,0.5,1.4,0.5c0.7,0,1.3-0.2,1.9-0.7v0.9c-0.5,0.4-1.2,0.6-2.1,0.6
		c-0.8,0-1.5-0.3-2-0.8s-0.7-1.3-0.7-2.3c0-0.9,0.3-1.7,0.8-2.3s1.2-0.9,2-0.9s1.4,0.3,1.8,0.8s0.6,1.2,0.6,2.1V111.4z M243.9,110.5
		c0-0.6-0.1-1-0.4-1.3s-0.6-0.5-1.1-0.5c-0.5,0-0.8,0.2-1.2,0.5s-0.5,0.7-0.6,1.3H243.9z"/>
	<path d="M249.5,109.1c-0.2-0.1-0.4-0.2-0.7-0.2c-0.4,0-0.8,0.2-1,0.6s-0.4,0.9-0.4,1.6v3.1h-1v-6h1v1.2h0c0.1-0.4,0.3-0.8,0.6-1
		s0.6-0.4,0.9-0.4c0.3,0,0.4,0,0.6,0.1V109.1z"/>
	<path d="M250.2,113.9v-1c0.5,0.4,1.1,0.6,1.7,0.6c0.8,0,1.3-0.3,1.3-0.8c0-0.2,0-0.3-0.1-0.4s-0.2-0.2-0.3-0.3s-0.3-0.2-0.4-0.2
		s-0.3-0.1-0.5-0.2c-0.3-0.1-0.5-0.2-0.7-0.3s-0.4-0.2-0.5-0.4s-0.2-0.3-0.3-0.5s-0.1-0.4-0.1-0.6c0-0.3,0.1-0.5,0.2-0.7
		s0.3-0.4,0.5-0.5s0.5-0.3,0.7-0.3s0.6-0.1,0.9-0.1c0.5,0,1,0.1,1.4,0.3v1c-0.4-0.3-0.9-0.4-1.5-0.4c-0.2,0-0.3,0-0.5,0.1
		s-0.3,0.1-0.4,0.2s-0.2,0.2-0.2,0.3s-0.1,0.2-0.1,0.3c0,0.2,0,0.3,0.1,0.4s0.1,0.2,0.2,0.3s0.2,0.2,0.4,0.2s0.3,0.1,0.5,0.2
		c0.3,0.1,0.5,0.2,0.7,0.3s0.4,0.2,0.5,0.4s0.3,0.3,0.3,0.5s0.1,0.4,0.1,0.6c0,0.3-0.1,0.6-0.2,0.8s-0.3,0.4-0.5,0.5
		s-0.5,0.3-0.8,0.3s-0.6,0.1-0.9,0.1C251.2,114.3,250.7,114.1,250.2,113.9z"/>
</g>
</svg>
