<?xml version="1.0" encoding="utf-8"?>
<!-- Generator: Adobe Illustrator 21.1.0, SVG Export Plug-In . SVG Version: 6.00 Build 0)  -->
<svg version="1.1" id="Слой_1" xmlns="http://www.w3.org/2000/svg" xmlns:xlink="http://www.w3.org/1999/xlink" x="0px" y="0px"
	 width="540px" height="271.9px" viewBox="0 0 540 271.9" style="enable-background:new 0 0 540 271.9;" xml:space="preserve">
<style type="text/css">
	.st0{font-family:'MyriadPro-Regular';}
	.st1{font-size:26.7705px;}
	.st2{font-size:33.3557px;}
	.st3{font-size:31.2323px;}
	.st4{fill:none;stroke:#000000;stroke-width:1.5;stroke-miterlimit:10;}
	.st5{font-size:34.722px;}
	.st6{font-size:34.72px;}
	.st7{font-size:53.541px;}
</style>
<text transform="matrix(1 0 0 1 2.642441e-02 265.2126)" class="st0 st1">Table 2.2: Table of signs for adding two numbers.</text>
<g>
	<text transform="matrix(1 0 0 1 327.3974 29.2883)" class="st0 st2">+</text>
	<text transform="matrix(1 0 0 1 171.166 29.8196)" class="st0 st3">a</text>
	<text transform="matrix(1 0 0 1 238.0917 29.8196)" class="st0 st3">b</text>
	<text transform="matrix(1 0 0 1 302.0439 29.8196)" class="st0 st3">a</text>
	<text transform="matrix(1 0 0 1 358.56 29.8196)" class="st0 st3">b</text>
	<line class="st4" x1="147.6" y1="1.3" x2="392.6" y2="1.3"/>
	<line class="st4" x1="147.6" y1="41.3" x2="393.6" y2="41.3"/>
	<line class="st4" x1="147.6" y1="1.3" x2="147.6" y2="41.3"/>
	<line class="st4" x1="215.6" y1="1.3" x2="215.6" y2="41.3"/>
	<line class="st4" x1="281.6" y1="1.3" x2="281.6" y2="41.3"/>
	<line class="st4" x1="393.1" y1="1.3" x2="393.1" y2="41.3"/>
	<g>
		<text transform="matrix(1 0 0 1 168.1913 78.0627)" class="st0 st5">+</text>
		<text transform="matrix(1 0 0 1 241.0244 78.0627)" class="st0 st5">+</text>
		<text transform="matrix(1 0 0 1 328.228 78.0627)" class="st0 st5">+</text>
		<text transform="matrix(1 0 0 1 168.1913 121.3108)" class="st0 st5">+</text>
		<text transform="matrix(1 0 0 1 241.0244 163.7805)" class="st0 st5">+</text>
		<text transform="matrix(1 0 0 1 332.2709 166.304)" class="st0 st6">?</text>
		<text transform="matrix(1 0 0 1 243.1533 126.8342)" class="st0 st7">-</text>
		<text transform="matrix(1 0 0 1 243.1533 210.7825)" class="st0 st7">-</text>
		<text transform="matrix(1 0 0 1 332.2709 123.8342)" class="st0 st6">?</text>
		<text transform="matrix(1 0 0 1 168.1923 169.304)" class="st0 st7">-</text>
		<text transform="matrix(1 0 0 1 168.1923 210.7825)" class="st0 st7">-</text>
		<text transform="matrix(1 0 0 1 330.2709 210.304)" class="st0 st7">-</text>
		<line class="st4" x1="147.6" y1="50.3" x2="392.6" y2="50.3"/>
		<line class="st4" x1="147.6" y1="91.3" x2="392.6" y2="91.3"/>
		<line class="st4" x1="147.6" y1="132.3" x2="392.6" y2="132.3"/>
		<line class="st4" x1="147.6" y1="174.3" x2="392.6" y2="174.3"/>
		<line class="st4" x1="147.6" y1="215.3" x2="392.6" y2="215.3"/>
		<line class="st4" x1="147.6" y1="50.3" x2="147.6" y2="215.3"/>
		<line class="st4" x1="215.6" y1="50.3" x2="215.6" y2="215.3"/>
		<line class="st4" x1="281.6" y1="50.3" x2="281.6" y2="215.3"/>
		<line class="st4" x1="392.6" y1="50.3" x2="392.6" y2="215.3"/>
	</g>
</g>
</svg>
