<?xml version="1.0" encoding="utf-8"?>
<!-- Generator: Adobe Illustrator 21.1.0, SVG Export Plug-In . SVG Version: 6.00 Build 0)  -->
<svg version="1.1" id="Слой_1" xmlns="http://www.w3.org/2000/svg" xmlns:xlink="http://www.w3.org/1999/xlink" x="0px" y="0px"
	 width="298.8px" height="161.2px" viewBox="0 0 298.8 161.2" style="enable-background:new 0 0 298.8 161.2;" xml:space="preserve"
	>
<style type="text/css">
	.st0{fill:#BFBFBF;}
	.st1{fill:none;stroke:#000000;stroke-width:0.797;stroke-miterlimit:10;}
	.st2{fill:none;stroke:#000000;stroke-width:1.4944;stroke-miterlimit:10;}
	.st3{fill:none;stroke:#000000;stroke-width:0.3;stroke-miterlimit:10;}
	.st4{font-family:'SegoeUI';}
	.st5{font-size:12px;}
</style>
<g>
	<path class="st0" d="M90.3,74.7H140c0-8.7-2.3-17.3-6.6-24.8"/>
	<path class="st1" d="M90.3,74.7H140c0-8.7-2.3-17.3-6.6-24.8L90.3,74.7z"/>
	<path class="st0" d="M90.3,74.7l43-24.8c-4.4-7.5-10.6-13.8-18.2-18.2"/>
	<path class="st1" d="M90.3,74.7l43-24.8c-4.4-7.5-10.6-13.8-18.2-18.2L90.3,74.7z"/>
	<path class="st0" d="M90.3,74.7l24.8-43c-7.5-4.4-16.1-6.6-24.8-6.6"/>
	<path class="st1" d="M90.3,74.7l24.8-43c-7.5-4.4-16.1-6.6-24.8-6.6V74.7z"/>
	<path class="st0" d="M90.3,74.7V25.1c-8.7,0-17.3,2.3-24.8,6.6"/>
	<path class="st1" d="M90.3,74.7V25.1c-8.7,0-17.3,2.3-24.8,6.6L90.3,74.7z"/>
	<path class="st0" d="M90.3,74.7l-24.8-43C58,36.1,51.7,42.4,47.4,49.9"/>
	<path class="st1" d="M90.3,74.7l-24.8-43C58,36.1,51.7,42.4,47.4,49.9L90.3,74.7z"/>
	<path class="st0" d="M90.3,74.7l-43-24.8C43,57.5,40.7,66,40.7,74.7"/>
	<path class="st1" d="M90.3,74.7l-43-24.8C43,57.5,40.7,66,40.7,74.7H90.3z"/>
	<path class="st0" d="M90.3,74.7H40.7c0,8.7,2.3,17.3,6.6,24.8"/>
	<path class="st1" d="M90.3,74.7H40.7c0,8.7,2.3,17.3,6.6,24.8L90.3,74.7z"/>
	<path class="st0" d="M90.3,74.7l-43,24.8c4.4,7.5,10.6,13.8,18.2,18.2"/>
	<path class="st1" d="M90.3,74.7l-43,24.8c4.4,7.5,10.6,13.8,18.2,18.2L90.3,74.7z"/>
	<path class="st1" d="M90.3,74.7l-24.8,43c7.5,4.4,16.1,6.6,24.8,6.6V74.7z"/>
	<path class="st1" d="M90.3,74.7v49.6c8.7,0,17.3-2.3,24.8-6.6L90.3,74.7z"/>
	<path class="st1" d="M90.3,74.7l24.8,43c7.5-4.4,13.8-10.6,18.2-18.2L90.3,74.7z"/>
	<path class="st1" d="M90.3,74.7l43,24.8c4.4-7.5,6.6-16.1,6.6-24.8H90.3z"/>
	<line class="st2" x1="139.5" y1="74.1" x2="148.9" y2="73.9"/>
	<polyline points="56.9,120 63.4,121.4 59.3,116.2 60.2,119.4 	"/>
	<path class="st2" d="M144.2,73.3l0,0.2c-0.7-29.2-24.6-52.6-53.8-52.6c-29.7,0-53.9,24.1-53.9,53.9c0,18,9,34.8,23.9,44.8"/>
	<path class="st0" d="M203.7,74.7h49.6c0-27.4-22.2-49.6-49.6-49.6c-8.7,0-17.3,2.3-24.8,6.6"/>
	<path class="st1" d="M203.7,74.7h49.6c0-27.4-22.2-49.6-49.6-49.6c-8.7,0-17.3,2.3-24.8,6.6L203.7,74.7z"/>
	<path class="st0" d="M203.7,74.7l-24.8-43c-15.3,8.9-24.8,25.2-24.8,43c0,17.7,9.5,34.1,24.8,43"/>
	<path class="st1" d="M203.7,74.7l-24.8-43c-15.3,8.9-24.8,25.2-24.8,43c0,17.7,9.5,34.1,24.8,43L203.7,74.7z"/>
	<path class="st1" d="M203.7,74.7l-24.8,43c7.5,4.4,16.1,6.6,24.8,6.6c27.4,0,49.6-22.2,49.6-49.6H203.7z"/>
	<line class="st2" x1="252.8" y1="74.1" x2="262.3" y2="73.9"/>
	<polyline points="170.3,120 176.8,121.4 172.7,116.2 173.6,119.4 	"/>
	<path class="st2" d="M257.6,73.3l0,0.2c-0.7-29.2-24.6-52.6-53.8-52.6c-29.7,0-53.9,24.1-53.9,53.9c0,18,9,34.8,23.9,44.8"/>
	<g>
		<path d="M89.9,2.8L89.9,2.8c-0.7-0.3-1-0.8-1-1.4c0-0.4,0.2-0.7,0.5-1S90.1,0,90.5,0c0.4,0,0.8,0.1,1.1,0.4S92,0.9,92,1.3
			c0,0.6-0.3,1.1-1,1.4v0c0.8,0.3,1.2,0.8,1.2,1.5c0,0.5-0.2,0.8-0.5,1.1s-0.8,0.4-1.4,0.4c-0.5,0-0.9-0.1-1.2-0.4s-0.5-0.6-0.5-1.1
			C88.7,3.6,89.1,3.1,89.9,2.8z M90.4,3.1c-0.7,0.3-1.1,0.7-1.1,1.2c0,0.3,0.1,0.5,0.3,0.7s0.5,0.3,0.8,0.3c0.3,0,0.6-0.1,0.8-0.3
			s0.3-0.4,0.3-0.7C91.6,3.8,91.2,3.3,90.4,3.1z M91.4,1.4c0-0.3-0.1-0.5-0.2-0.6s-0.4-0.2-0.7-0.2c-0.3,0-0.5,0.1-0.7,0.2
			s-0.3,0.4-0.3,0.6c0,0.5,0.3,0.9,0.9,1.1C91.1,2.2,91.4,1.8,91.4,1.4z"/>
	</g>
	<g>
		<path d="M90.2,13h-3.2v-0.6h1.3V8.1L87,8.5V7.9L89,7.3v5.2h1.3V13z"/>
		<path d="M94.4,13h-3.4v-0.6l1.6-1.6c0.4-0.4,0.7-0.8,0.9-1s0.3-0.6,0.3-0.9c0-0.3-0.1-0.6-0.3-0.8s-0.4-0.3-0.8-0.3
			c-0.5,0-1,0.2-1.4,0.6V7.8c0.4-0.3,0.9-0.5,1.5-0.5c0.5,0,0.9,0.1,1.2,0.4s0.4,0.6,0.4,1.1c0,0.4-0.1,0.7-0.3,1.1
			s-0.6,0.8-1.1,1.3l-1.3,1.3v0h2.6V13z"/>
	</g>
	<g>
		<path d="M205.4,5.7h-3.4V5.1l1.6-1.6c0.4-0.4,0.7-0.8,0.9-1s0.3-0.6,0.3-0.9c0-0.3-0.1-0.6-0.3-0.8s-0.4-0.3-0.8-0.3
			c-0.5,0-1,0.2-1.4,0.6V0.5c0.4-0.3,0.9-0.5,1.5-0.5c0.5,0,0.9,0.1,1.2,0.4s0.4,0.6,0.4,1.1c0,0.4-0.1,0.7-0.3,1.1
			s-0.6,0.8-1.1,1.3l-1.3,1.3v0h2.6V5.7z"/>
	</g>
	<g>
		<path d="M202.2,12.8v-0.7c0.4,0.3,0.8,0.5,1.3,0.5c0.4,0,0.7-0.1,0.9-0.3s0.3-0.5,0.3-0.8c0-0.7-0.5-1.1-1.6-1.1h-0.5V9.8h0.4
			c0.9,0,1.4-0.3,1.4-1c0-0.6-0.4-1-1.1-1c-0.4,0-0.8,0.1-1.1,0.4V7.6c0.4-0.2,0.8-0.3,1.3-0.3c0.5,0,0.8,0.1,1.1,0.4s0.4,0.6,0.4,1
			c0,0.7-0.4,1.2-1.1,1.4v0c0.4,0,0.7,0.2,1,0.4s0.4,0.5,0.4,0.9c0,0.5-0.2,0.9-0.5,1.2s-0.8,0.5-1.4,0.5
			C202.9,13.1,202.5,13,202.2,12.8z"/>
	</g>
	<line class="st3" x1="200.6" y1="6.8" x2="206.6" y2="6.8"/>
	<line class="st3" x1="86.6" y1="6.8" x2="93.6" y2="6.8"/>
</g>
<g>
	<text transform="matrix(1 0 0 1 -1.411438e-04 153.4132)" class="st4 st5">Figure 2.4:</text>
	<text transform="matrix(1 0 0 1 77.9999 153.4132)" class="st4 st5">of the pizza is the same as</text>
	<text transform="matrix(1 0 0 1 234.9999 153.4132)" class="st4 st5">of the pizza.</text>
	<g>
		<g>
			<path d="M66.7,145.7L66.7,145.7c-1-0.5-1.5-1.2-1.5-2.1c0-0.6,0.2-1.1,0.7-1.5s1.1-0.6,1.8-0.6c0.7,0,1.2,0.2,1.6,0.5
				s0.6,0.8,0.6,1.4c0,0.9-0.5,1.7-1.6,2.2v0c1.2,0.4,1.8,1.2,1.8,2.3c0,0.7-0.3,1.2-0.8,1.7s-1.2,0.6-2.1,0.6
				c-0.7,0-1.3-0.2-1.8-0.6s-0.7-0.9-0.7-1.6C64.9,146.9,65.5,146.2,66.7,145.7z M67.5,146.1c-1.1,0.4-1.6,1-1.6,1.9
				c0,0.4,0.2,0.8,0.5,1s0.7,0.4,1.2,0.4c0.5,0,0.9-0.1,1.2-0.4s0.5-0.6,0.5-1C69.2,147.2,68.7,146.5,67.5,146.1z M69,143.6
				c0-0.4-0.1-0.7-0.4-0.9s-0.6-0.3-1-0.3c-0.4,0-0.7,0.1-1,0.3s-0.4,0.5-0.4,0.9c0,0.7,0.5,1.3,1.4,1.7
				C68.5,144.8,69,144.3,69,143.6z"/>
		</g>
		<line class="st3" x1="63" y1="150.7" x2="73" y2="150.7"/>
		<g>
			<path d="M67.3,161.1h-4.8v-0.8h1.9v-6.5l-1.9,0.6v-0.9l2.9-0.9v7.7h1.9V161.1z"/>
			<path d="M73.6,161.1h-5.1v-0.9l2.4-2.5c0.6-0.6,1.1-1.1,1.3-1.6s0.4-0.9,0.4-1.3c0-0.5-0.1-0.9-0.4-1.1s-0.7-0.4-1.2-0.4
				c-0.8,0-1.5,0.3-2.2,1v-1c0.7-0.5,1.4-0.8,2.3-0.8c0.8,0,1.3,0.2,1.8,0.6s0.6,1,0.6,1.6c0,0.5-0.1,1.1-0.4,1.6s-0.8,1.2-1.6,1.9
				l-1.9,1.9v0h3.9V161.1z"/>
		</g>
	</g>
	<g>
		<g>
			<path d="M228,150h-5.1v-0.9l2.4-2.5c0.6-0.6,1.1-1.1,1.3-1.6s0.4-0.9,0.4-1.3c0-0.5-0.1-0.9-0.4-1.1s-0.7-0.4-1.2-0.4
				c-0.8,0-1.5,0.3-2.2,1v-1c0.7-0.5,1.4-0.8,2.3-0.8c0.8,0,1.3,0.2,1.8,0.6s0.6,1,0.6,1.6c0,0.5-0.1,1.1-0.4,1.6s-0.8,1.2-1.6,1.9
				l-1.9,1.9v0h3.9V150z"/>
		</g>
		<line class="st3" x1="221" y1="150.7" x2="231" y2="150.7"/>
		<g>
			<path d="M223.3,160.7v-1c0.6,0.5,1.2,0.7,1.9,0.7c0.6,0,1.1-0.1,1.4-0.4s0.5-0.7,0.5-1.2c0-1.1-0.8-1.6-2.3-1.6h-0.7v-0.8h0.7
				c1.4,0,2.1-0.5,2.1-1.5c0-1-0.5-1.4-1.6-1.4c-0.6,0-1.1,0.2-1.7,0.6V153c0.5-0.3,1.2-0.5,1.9-0.5c0.7,0,1.3,0.2,1.7,0.6
				s0.6,0.9,0.6,1.4c0,1.1-0.6,1.8-1.7,2.1v0c0.6,0.1,1.1,0.3,1.4,0.6s0.5,0.8,0.5,1.4c0,0.8-0.3,1.4-0.8,1.8s-1.3,0.7-2.1,0.7
				C224.4,161.2,223.7,161,223.3,160.7z"/>
		</g>
	</g>
</g>
</svg>
