<?xml version="1.0" encoding="utf-8"?>
<!-- Generator: Adobe Illustrator 21.1.0, SVG Export Plug-In . SVG Version: 6.00 Build 0)  -->
<svg version="1.1" id="Слой_1" xmlns="http://www.w3.org/2000/svg" xmlns:xlink="http://www.w3.org/1999/xlink" x="0px" y="0px"
	 width="340.2px" height="51.4px" viewBox="0 0 340.2 51.4" style="enable-background:new 0 0 340.2 51.4;" xml:space="preserve">
<style type="text/css">
	.st0{fill:none;stroke:#000000;stroke-width:0.797;stroke-miterlimit:10;}
	.st1{font-family:'SegoeUI';}
	.st2{font-size:14.944px;}
	.st3{letter-spacing:4;}
</style>
<g>
	<polyline points="6.5,28 0,30.4 6.5,32.7 3.9,30.4 	"/>
	<polyline points="333.7,32.7 340.2,30.4 333.7,28 336.3,30.4 	"/>
	<line class="st0" x1="3.9" y1="30.4" x2="336.3" y2="30.4"/>
	<text transform="matrix(1 0 0 1 121.2601 47.6445)"><tspan x="0" y="0" class="st1 st2">-</tspan><tspan x="6" y="0" class="st1 st2">1</tspan></text>
	<text transform="matrix(1 0 0 1 78.7406 47.6445)"><tspan x="0" y="0" class="st1 st2">-</tspan><tspan x="6" y="0" class="st1 st2">2</tspan></text>
	<g>
		<path d="M40.4,43.1v1h-3.7v-1H40.4z"/>
		<path d="M41.8,46.1c0.4,0.2,1.2,0.6,2.2,0.6c1.7,0,2.2-1.1,2.2-1.9c0-1.4-1.2-1.9-2.5-1.9h-0.7v-1h0.7c1,0,2.2-0.5,2.2-1.6
			c0-0.8-0.5-1.5-1.7-1.5c-0.8,0-1.5,0.3-1.9,0.6l-0.3-1c0.5-0.4,1.5-0.7,2.5-0.7c1.9,0,2.8,1.1,2.8,2.3c0,1-0.6,1.9-1.8,2.3v0
			c1.2,0.2,2.2,1.1,2.2,2.5c0,1.6-1.2,2.9-3.5,2.9c-1.1,0-2-0.3-2.5-0.7L41.8,46.1z"/>
		<path d="M173.2,42.7c0,3.3-1.2,5.1-3.4,5.1c-1.9,0-3.2-1.8-3.2-5c0-3.3,1.4-5.1,3.4-5.1C172,37.8,173.2,39.6,173.2,42.7z
			 M167.9,42.8c0,2.5,0.8,4,2,4c1.3,0,2-1.6,2-4.1c0-2.4-0.6-4-2-4C168.8,38.8,167.9,40.2,167.9,42.8z"/>
		<path d="M212.3,39.2L212.3,39.2l-1.7,0.9l-0.3-1l2.1-1.1h1.1v9.7h-1.3V39.2z"/>
		<path d="M252.2,47.6v-0.8l1-1c2.5-2.4,3.6-3.6,3.6-5.1c0-1-0.5-1.9-1.9-1.9c-0.9,0-1.6,0.4-2.1,0.8l-0.4-0.9c0.7-0.6,1.6-1,2.8-1
			c2.1,0,3,1.4,3,2.8c0,1.8-1.3,3.2-3.3,5.2l-0.8,0.7v0h4.4v1.1H252.2z"/>
		<path d="M295.2,46.1c0.4,0.2,1.2,0.6,2.2,0.6c1.7,0,2.2-1.1,2.2-1.9c0-1.4-1.2-1.9-2.5-1.9h-0.7v-1h0.7c1,0,2.2-0.5,2.2-1.6
			c0-0.8-0.5-1.5-1.7-1.5c-0.8,0-1.5,0.3-1.9,0.6l-0.3-1c0.5-0.4,1.5-0.7,2.5-0.7c1.9,0,2.8,1.1,2.8,2.3c0,1-0.6,1.9-1.8,2.3v0
			c1.2,0.2,2.2,1.1,2.2,2.5c0,1.6-1.2,2.9-3.5,2.9c-1.1,0-2-0.3-2.5-0.7L295.2,46.1z"/>
	</g>
	<line class="st0" x1="170.1" y1="26.1" x2="170.1" y2="34.6"/>
	<line class="st0" x1="212.6" y1="26.1" x2="212.6" y2="34.6"/>
	<line class="st0" x1="255.1" y1="26.1" x2="255.1" y2="34.6"/>
	<line class="st0" x1="297.6" y1="26.1" x2="297.6" y2="34.6"/>
	<line class="st0" x1="127.6" y1="26.1" x2="127.6" y2="34.6"/>
	<line class="st0" x1="85" y1="26.1" x2="85" y2="34.6"/>
	<line class="st0" x1="42.5" y1="26.1" x2="42.5" y2="34.6"/>
	<polyline points="134,6.8 127.6,9.1 134,11.4 131.5,9.1 	"/>
	<line class="st0" x1="131.5" y1="9.1" x2="170.1" y2="9.1"/>
	<polyline points="206.1,11.4 212.6,9.1 206.1,6.8 208.7,9.1 	"/>
	<line class="st0" x1="170.1" y1="9.1" x2="208.7" y2="9.1"/>
	<line class="st0" x1="170.1" y1="13.4" x2="170.1" y2="4.9"/>
	<text transform="matrix(1 0 0 1 215.6605 12.7036)"><tspan x="0" y="0" class="st1 st2">p</tspan><tspan x="9.2" y="0" class="st1 st2">o</tspan><tspan x="18" y="0" class="st1 st2">s</tspan><tspan x="24.3" y="0" class="st1 st2">i</tspan><tspan x="28" y="0" class="st1 st2">t</tspan><tspan x="33.1" y="0" class="st1 st2">i</tspan><tspan x="36.7" y="0" class="st1 st2">v</tspan><tspan x="43.8" y="0" class="st1 st2 st3">e</tspan><tspan x="56.5" y="0" class="st1 st2">nu</tspan><tspan x="73.5" y="0" class="st1 st2">m</tspan><tspan x="86.3" y="0" class="st1 st2">b</tspan><tspan x="95.5" y="0" class="st1 st2">e</tspan><tspan x="103.3" y="0" class="st1 st2">r</tspan><tspan x="108.4" y="0" class="st1 st2">s</tspan></text>
	<text transform="matrix(1 0 0 1 3.2396 12.7036)"><tspan x="0" y="0" class="st1 st2">n</tspan><tspan x="8.5" y="0" class="st1 st2">e</tspan><tspan x="16.3" y="0" class="st1 st2">g</tspan><tspan x="25.2" y="0" class="st1 st2">a</tspan><tspan x="32.8" y="0" class="st1 st2">t</tspan><tspan x="37.8" y="0" class="st1 st2">i</tspan><tspan x="41.5" y="0" class="st1 st2">v</tspan><tspan x="48.6" y="0" class="st1 st2 st3">e</tspan><tspan x="61.3" y="0" class="st1 st2">nu</tspan><tspan x="78.2" y="0" class="st1 st2">m</tspan><tspan x="91.1" y="0" class="st1 st2">b</tspan><tspan x="100.3" y="0" class="st1 st2">e</tspan><tspan x="108.1" y="0" class="st1 st2">r</tspan><tspan x="113.2" y="0" class="st1 st2">s</tspan></text>
</g>
</svg>
