<?xml version="1.0" encoding="utf-8"?>
<!-- Generator: Adobe Illustrator 21.1.0, SVG Export Plug-In . SVG Version: 6.00 Build 0)  -->
<svg version="1.1" id="Слой_1" xmlns="http://www.w3.org/2000/svg" xmlns:xlink="http://www.w3.org/1999/xlink" x="0px" y="0px"
	 width="213.4px" height="170.9px" viewBox="0 0 213.4 170.9" style="enable-background:new 0 0 213.4 170.9;" xml:space="preserve"
	>
<style type="text/css">
	.st0{fill:none;stroke:#000000;stroke-width:0.797;stroke-miterlimit:10;}
	.st1{font-family:'SegoeUI';}
	.st2{font-size:14.944px;}
	.st3{clip-path:url(#SVGID_2_);fill:none;stroke:#000000;stroke-width:0.797;stroke-linecap:square;stroke-miterlimit:10;}
	.st4{clip-path:url(#SVGID_4_);fill:none;stroke:#000000;stroke-width:0.797;stroke-linecap:square;stroke-miterlimit:10;}
	.st5{fill:#FFFFFF;}
	.st6{fill:none;stroke:#FFFFFF;stroke-width:0.797;stroke-miterlimit:10;}
	.st7{fill:#BFBFBF;}
</style>
<g>
	<ellipse class="st0" cx="106.7" cy="85.4" rx="106.3" ry="85"/>
	<text transform="matrix(1 0 0 1 179.9587 90.6583)" class="st1 st2">R</text>
	<g>
		<defs>
			<ellipse id="SVGID_1_" cx="81.2" cy="85.4" rx="51" ry="42.5"/>
		</defs>
		<clipPath id="SVGID_2_">
			<use xlink:href="#SVGID_1_"  style="overflow:visible;"/>
		</clipPath>
		<line class="st3" x1="84.6" y1="175.6" x2="-8.9" y2="82"/>
		<line class="st3" x1="89.7" y1="170.5" x2="-3.8" y2="76.9"/>
		<line class="st3" x1="94.8" y1="165.4" x2="1.3" y2="71.8"/>
		<line class="st3" x1="99.9" y1="160.3" x2="6.4" y2="66.7"/>
		<line class="st3" x1="105" y1="155.2" x2="11.5" y2="61.6"/>
		<line class="st3" x1="110.1" y1="150.1" x2="16.6" y2="56.5"/>
		<line class="st3" x1="115.2" y1="145" x2="21.7" y2="51.4"/>
		<line class="st3" x1="120.3" y1="139.9" x2="26.8" y2="46.3"/>
		<line class="st3" x1="125.4" y1="134.8" x2="31.9" y2="41.2"/>
		<line class="st3" x1="130.5" y1="129.7" x2="37" y2="36.1"/>
		<line class="st3" x1="135.6" y1="124.6" x2="42.1" y2="31"/>
		<line class="st3" x1="140.7" y1="119.5" x2="47.2" y2="25.9"/>
		<line class="st3" x1="145.8" y1="114.4" x2="52.3" y2="20.8"/>
		<line class="st3" x1="150.9" y1="109.3" x2="57.4" y2="15.7"/>
		<line class="st3" x1="156" y1="104.2" x2="62.5" y2="10.6"/>
		<line class="st3" x1="161.1" y1="99.1" x2="67.6" y2="5.5"/>
		<line class="st3" x1="166.2" y1="94" x2="72.7" y2="0.4"/>
		<line class="st3" x1="171.3" y1="88.9" x2="77.8" y2="-4.7"/>
		<line class="st3" x1="176.4" y1="83.8" x2="82.9" y2="-9.8"/>
	</g>
	<ellipse class="st0" cx="81.2" cy="85.4" rx="51" ry="42.5"/>
	<g>
		<defs>
			<ellipse id="SVGID_3_" cx="85.4" cy="85.4" rx="76.5" ry="72.3"/>
		</defs>
		<clipPath id="SVGID_4_">
			<use xlink:href="#SVGID_3_"  style="overflow:visible;"/>
		</clipPath>
		<line class="st4" x1="231.7" y1="82.9" x2="82.9" y2="231.7"/>
		<line class="st4" x1="226.6" y1="77.8" x2="77.8" y2="226.6"/>
		<line class="st4" x1="221.5" y1="72.7" x2="72.7" y2="221.5"/>
		<line class="st4" x1="216.4" y1="67.6" x2="67.6" y2="216.4"/>
		<line class="st4" x1="211.3" y1="62.5" x2="62.5" y2="211.3"/>
		<line class="st4" x1="206.2" y1="57.4" x2="57.4" y2="206.2"/>
		<line class="st4" x1="201.1" y1="52.3" x2="52.3" y2="201.1"/>
		<line class="st4" x1="196" y1="47.2" x2="47.2" y2="196"/>
		<line class="st4" x1="190.9" y1="42.1" x2="42.1" y2="190.9"/>
		<line class="st4" x1="185.8" y1="37" x2="37" y2="185.8"/>
		<line class="st4" x1="180.7" y1="31.9" x2="31.9" y2="180.7"/>
		<line class="st4" x1="175.6" y1="26.8" x2="26.8" y2="175.6"/>
		<line class="st4" x1="170.5" y1="21.7" x2="21.7" y2="170.5"/>
		<line class="st4" x1="165.4" y1="16.6" x2="16.6" y2="165.4"/>
		<line class="st4" x1="160.3" y1="11.5" x2="11.5" y2="160.3"/>
		<line class="st4" x1="155.2" y1="6.4" x2="6.4" y2="155.2"/>
		<line class="st4" x1="150.1" y1="1.3" x2="1.3" y2="150.1"/>
		<line class="st4" x1="145" y1="-3.8" x2="-3.8" y2="145"/>
		<line class="st4" x1="139.9" y1="-8.9" x2="-8.9" y2="139.9"/>
		<line class="st4" x1="134.8" y1="-14" x2="-14" y2="134.8"/>
		<line class="st4" x1="129.7" y1="-19.1" x2="-19.1" y2="129.7"/>
		<line class="st4" x1="124.6" y1="-24.2" x2="-24.2" y2="124.6"/>
		<line class="st4" x1="119.5" y1="-29.3" x2="-29.3" y2="119.5"/>
		<line class="st4" x1="114.4" y1="-34.4" x2="-34.4" y2="114.4"/>
		<line class="st4" x1="109.3" y1="-39.5" x2="-39.5" y2="109.3"/>
		<line class="st4" x1="104.2" y1="-44.6" x2="-44.6" y2="104.2"/>
		<line class="st4" x1="99.1" y1="-49.7" x2="-49.7" y2="99.1"/>
		<line class="st4" x1="94" y1="-54.8" x2="-54.8" y2="94"/>
		<line class="st4" x1="88.9" y1="-59.9" x2="-59.9" y2="88.9"/>
		<line class="st4" x1="83.8" y1="-65" x2="-65" y2="83.8"/>
	</g>
	<ellipse class="st0" cx="85.4" cy="85.4" rx="76.5" ry="72.3"/>
	<path class="st5" d="M153.5,85.4c0-4.7-3.8-8.5-8.5-8.5c-4.7,0-8.5,3.8-8.5,8.5c0,4.7,3.8,8.5,8.5,8.5
		C149.7,93.9,153.5,90.1,153.5,85.4"/>
	<circle class="st6" cx="145" cy="85.4" r="8.5"/>
	<text transform="matrix(1 0 0 1 139.2053 89.3985)" class="st1 st2">Q</text>
	<path class="st5" d="M123.7,85.4c0-4.7-3.8-8.5-8.5-8.5c-4.7,0-8.5,3.8-8.5,8.5c0,4.7,3.8,8.5,8.5,8.5
		C119.9,93.9,123.7,90.1,123.7,85.4"/>
	<circle class="st6" cx="115.2" cy="85.4" r="8.5"/>
	<text transform="matrix(1 0 0 1 110.1603 90.6583)" class="st1 st2">Z</text>
	<path class="st7" d="M102.4,85.4c0-14.1-13.3-25.5-29.8-25.5c-16.4,0-29.8,11.4-29.8,25.5c0,14.1,13.3,25.5,29.8,25.5
		C89.1,111,102.4,99.5,102.4,85.4"/>
	<ellipse class="st0" cx="72.7" cy="85.4" rx="29.8" ry="25.5"/>
	<text transform="matrix(1 0 0 1 84.2902 90.6583)" class="st1 st2">N</text>
</g>
</svg>
