<?xml version="1.0" encoding="utf-8"?>
<!-- Generator: Adobe Illustrator 21.1.0, SVG Export Plug-In . SVG Version: 6.00 Build 0)  -->
<svg version="1.1" id="Слой_1" xmlns="http://www.w3.org/2000/svg" xmlns:xlink="http://www.w3.org/1999/xlink" x="0px" y="0px"
	 width="149.1px" height="127.5px" viewBox="0 0 149.1 127.5" style="enable-background:new 0 0 149.1 127.5;" xml:space="preserve"
	>
<style type="text/css">
	.st0{font-family:'SegoeUI';}
	.st1{font-size:19.9253px;}
	.st2{font-size:22px;}
	.st3{fill:none;stroke:#000000;stroke-width:0.5;stroke-miterlimit:10;}
</style>
<g>
	<text transform="matrix(1 0 0 1 16.0399 17.0681)" class="st0 st1">a</text>
	<text transform="matrix(1 0 0 1 57.08 17.0681)" class="st0 st1">b</text>
	<text transform="matrix(1 0 0 1 93.7997 17.0681)" class="st0 st1">a</text>
	<text transform="matrix(1 0 0 1 108.9198 17.0681)" class="st0 st1">+</text>
	<text transform="matrix(1 0 0 1 128.8407 17.0681)" class="st0 st1">b</text>
	<text transform="matrix(1 0 0 1 13.7304 46.5876)" class="st0 st1">+</text>
	<text transform="matrix(1 0 0 1 54.0497 46.5876)" class="st0 st1">+</text>
	<text transform="matrix(1 0 0 1 108.5292 46.5876)" class="st0 st1">+</text>
	<text transform="matrix(1 0 0 1 13.7304 71.3064)" class="st0 st1">+</text>
	<text transform="matrix(1 0 0 1 56.37 71.3064)" class="st0 st2">-</text>
	<text transform="matrix(1 0 0 1 113.0897 71.3064)" class="st0 st1">?</text>
	<text transform="matrix(1 0 0 1 18.2899 96.0271)" class="st0 st2">-</text>
	<text transform="matrix(1 0 0 1 54.0497 96.0271)" class="st0 st1">+</text>
	<text transform="matrix(1 0 0 1 113.0897 96.0271)" class="st0 st1">?</text>
	<text transform="matrix(1 0 0 1 18.2899 120.7478)" class="st0 st2">-</text>
	<text transform="matrix(1 0 0 1 58.37 120.7478)" class="st0 st2">-</text>
	<text transform="matrix(1 0 0 1 112.5292 120.7478)" class="st0 st2">-</text>
	<line class="st3" x1="0.7" y1="0.3" x2="149" y2="0.3"/>
	<line class="st3" x1="0.7" y1="24.3" x2="149" y2="24.3"/>
	<line class="st3" x1="0.6" y1="29.3" x2="148.9" y2="29.3"/>
	<line class="st3" x1="0.6" y1="53.3" x2="148.9" y2="53.3"/>
	<line class="st3" x1="0.6" y1="79.3" x2="148.9" y2="79.3"/>
	<line class="st3" x1="0.6" y1="103.3" x2="148.9" y2="103.3"/>
	<line class="st3" x1="0.6" y1="127.3" x2="148.9" y2="127.3"/>
	<line class="st3" x1="0.3" y1="29.3" x2="0.3" y2="127.3"/>
	<line class="st3" x1="42.3" y1="29.3" x2="42.3" y2="127.3"/>
	<line class="st3" x1="82.3" y1="29.3" x2="82.3" y2="127.3"/>
	<line class="st3" x1="148.6" y1="29.3" x2="148.6" y2="127.3"/>
	<line class="st3" x1="0.7" y1="0.1" x2="0.7" y2="24.1"/>
	<line class="st3" x1="41.9" y1="0.3" x2="41.9" y2="24.3"/>
	<line class="st3" x1="81.9" y1="0.3" x2="81.9" y2="24.3"/>
	<line class="st3" x1="148.9" y1="0.3" x2="148.9" y2="24.3"/>
</g>
</svg>
